ply
format ascii 1.0
element vertex 994
property float x
property float y
property float z
element face 1828
property list uchar uint vertex_indices
end_header
-12.4274 34.487 5.939
-13.1709 34.066 6.509
-13.2203 35.379 6.406
-7.5612 9.7323 6.508
-6.3751 9.6653 7.611
-7.3666 10.7528 7.423
10.223 31.413 8.563
11.028 30.932 7.692
10.7257 32.551 7.964
5.5082 26.783 13.826
5.9898 25.64 13.6
6.6525 26.374 12.854
2.0158 30.875 14.719
0.7886 30.749 14.979
1.6701 29.613 15.123
-9.9075 12.3757 5.522
-9.7708 10.8852 4.753
-9.07 11.3197 5.832
9.6929 30.39 9.184
10.4073 30.047 8.365
-14.4893 27.889 6.329
-13.6323 27.462 7.032
-13.3133 28.867 7.268
3.4729 2.2638 1.03
4.1986 3.4272 1.77
3.4828 3.4099 2.424
2.965 16.0211 14.992
3.5537 15.1736 14.327
4.0483 16.4991 14.782
17.0874 33.754 1.022
18.0015 33.509 -0.221
17.6235 35.409 0.344
9.1805 26.111 9.713
8.7209 24.783 10.294
9.4302 24.896 9.362
-2.4561 29.211 14.885
-2.3905 27.982 15.068
-1.4279 28.506 15.224
-0.6509 16.0176 15.327
-0.2508 14.7769 14.599
0.5319 15.7305 15.165
-0.6794 26.499 15.547
0.5437 27.007 15.589
-0.3474 28.094 15.434
12.4694 26.446 5.967
13.2402 27.123 5.081
12.4278 27.722 6.144
1.2702 25.935 15.598
1.9162 27.262 15.395
7.9921 13.6173 8.014
7.9245 12.4601 7.378
8.7105 13.2297 6.52
12.5125 16.0296 1.983
11.6753 15.951 3.228
12.007 15.0483 2.119
-1.3227 36.266 13.349
-2.0979 36.269 13.32
-1.9646 35.105 13.649
12.8869 36.096 5.542
12.5678 34.941 5.931
13.5652 34.785 4.821
15.7716 22.5004 1.034
15.2269 21.2088 1.094
15.7934 21.3913 -0.186
12.5264 17.0115 2.605
13.1663 16.6556 1.215
11.9639 12.9116 0.568
12.0512 14.0641 1.315
11.3062 12.8428 1.723
-0.8377 3.6161 3.874
-2.0684 3.3418 3.635
-1.1251 2.6695 2.951
8.9925 28.738 10.06
9.4839 27.603 9.383
9.8477 29.011 8.977
3.0955 1.2062 -0.371
3.8039 1.6302 -0.372
13.3885 36.071 4.978
13.9064 36.065 4.403
-10.7651 12.1186 4.328
-10.6849 13.2535 5.143
0.274 17.227 15.65
-1.1677 17.2892 15.675
-1.2946 10.1349 10.591
-2.2676 10.7058 11.146
-2.6841 9.7915 10.163
3.0065 24.93 15.245
2.5658 26.033 15.323
1.8606 24.821 15.6
11.5123 28.236 7.161
12.2146 29.091 6.433
11.0334 29.288 7.668
0.785 0.7406 0.872
0 0 0
0.8315 0.1006 -0.166
-10.8175 21.207 8.781
-11.2973 22.4584 8.552
-11.7945 21.1565 7.974
4.5154 2.057 -0.348
-1.6879 18.7126 15.682
-2.843 19.1881 15.33
-2.4581 17.6509 15.51
11.8733 30.286 6.813
11.6375 31.797 7.021
13.0985 21.534 4.396
12.4272 22.2324 5.306
12.4772 20.7589 4.961
13.4823 22.6642 4.151
14.5695 23.2291 2.997
13.8103 23.7969 3.926
13.7662 17.4506 0.751
13.7283 16.1385 -0.406
14.0227 16.8951 -0.305
8.2476 25.853 10.883
8.5699 27.288 10.548
7.6229 26.626 11.725
12.5314 14.1316 0.437
1.7495 15.6302 15.036
1.2518 16.7479 15.481
-1.0974 13.6034 13.753
-1.4038 14.8887 14.676
-6.4904 23.1028 12.821
-7.3995 23.4321 12.043
-7.0741 21.9765 12.157
5.2541 2.4793 -0.455
4.6519 2.9547 0.79
12.6048 13.1394 -0.56
12.9371 13.8765 -0.543
-12.0696 17.4448 5.938
-12.7686 18.7273 5.883
-12.9612 18.002 5.261
12.8439 15.3394 0.791
-5.5599 20.6216 13.343
-6.0924 21.7664 13.005
-6.6245 20.6073 12.326
-2.427 24.473 15.389
-3.1505 25.59 15.1
-3.7781 24.362 14.925
-4.6262 14.0517 12.836
-3.8327 14.4767 13.825
-4.7519 15.1039 13.239
15.0883 22.2403 2.062
14.3474 22.0575 3.016
9.0115 34.95 9.803
8.3947 34.274 10.481
9.0629 33.227 9.836
8.1358 14.7962 8.479
8.0625 15.9975 9.317
7.575 14.4298 9.228
2.7573 28.545 14.992
2.8712 30.107 14.638
-2.9075 30.306 14.531
-1.7642 30.369 14.809
2.0616 9.1061 9.219
0.9554 9.779 10.075
0.743 8.778 9.054
-2.9138 8.7579 9.063
-2.3832 7.6577 7.943
-1.7695 8.2803 8.726
14.118 19.4145 1.666
14.2475 18.6149 0.778
14.823 19.9921 0.852
5.9692 31.486 12.822
6.4951 32.564 12.238
5.6202 32.848 12.757
8.5771 31.88 10.483
8.9692 30.305 10.029
9.3158 31.662 9.57
13.0866 25.56 5.077
0.0514 12.7781 13.079
-0.9546 12.2876 12.703
0.3411 11.6719 12.053
2.389 14.7654 14.344
7.0987 8.5409 4.957
6.1834 7.7983 5.157
6.9363 7.5667 3.963
13.6639 19.6065 2.554
13.3809 18.1611 1.987
14.3511 17.6255 -0.33
7.6342 6.3188 1.739
8.2413 6.1221 0.75
8.4482 7.2626 1.838
-13.7393 26.427 6.842
-14.6133 26.491 6.183
-3.3715 6.9766 7.019
-1.8133 6.8053 7.109
7.5489 11.1725 6.933
8.2973 12.0085 6.399
-1.187 24.986 15.561
-1.9309 25.908 15.369
10.5635 11.8181 2.306
11.35 11.8673 0.879
-6.0056 25.438 13.348
-4.9798 24.81 14.166
-5.1841 26.424 13.996
-4.2794 25.606 14.61
2.8406 7.4261 7.321
2.2235 6.6345 6.623
3.5012 6.6517 6.219
-4.6638 7.1177 6.354
-5.0383 6.2853 5.223
-3.8804 6.0684 5.794
0.0519 25.575 15.669
-0.4169 24.172 15.727
3.8682 27.95 14.63
3.8082 29.165 14.481
1.2329 10.8216 11.107
-0.0411 10.5122 10.942
-5.5417 22.8278 13.625
-5.0887 21.8041 13.992
-4.5738 23.3092 14.444
14.3661 34.96 3.918
13.834 21.3641 3.433
16.6463 31.975 1.733
17.4017 32.138 0.868
5.6561 29.226 13.429
6.477 30.137 12.727
5.1887 30.715 13.424
9.4623 22.7548 9.087
9.9103 23.9035 8.667
9.1009 23.6685 9.681
12.4941 32.353 6.096
11.5527 33.201 7.047
1.1026 14.567 14.406
-10.2525 16.0541 7.262
-9.3452 15.3957 7.928
-9.6824 16.8059 8.279
8.8116 19.6795 9.498
8.6732 20.8308 9.828
8.1505 19.2491 10.3
-7.3914 32.119 12.12
-6.6059 32.791 12.625
-7.2495 33.742 12.1
4.6549 10.4645 9.917
5.1965 11.6649 10.887
4.0308 11.2513 11.1
14.1254 28.094 4.141
15.2218 28.281 2.965
14.6303 29.395 3.755
7.1686 24.006 12.213
7.0498 22.7916 12.306
7.7432 23.0029 11.413
3.2228 27.016 15.008
7.2736 28.9 12.134
6.9866 27.586 12.522
7.7826 27.76 11.549
6.6014 3.4906 -0.41
6.6845 4.4006 0.567
5.7201 3.636 0.69
10.2166 25.177 8.452
5.3607 17.7398 13.964
5.0257 19.1691 14.385
4.56 17.7043 14.765
5.815 34.031 12.353
6.7744 33.694 11.868
8.1011 8.0327 3.075
9.0239 8.466 2.208
10.9873 19.7721 6.705
11.7934 20.9979 5.986
11.0452 21.0964 6.904
-4.0889 21.9816 14.792
-9.0165 21.5723 10.442
-9.8881 20.7414 9.56
-8.8686 20.3835 10.386
4.5319 6.528 5.318
4.6027 5.6154 4.087
5.5785 6.6464 4.325
-1.5927 9.2044 9.616
2.2093 10.0918 10.211
-8.9371 29.005 10.855
-8.6826 27.546 11.167
-8.0196 28.501 11.716
5.9566 21.9683 13.756
5.4314 23.1048 14.189
4.9906 21.7538 14.498
15.4932 23.8381 2.049
16.1452 23.7795 0.96
-6.7586 24.511 12.691
-7.7358 24.9 11.87
2.6173 23.7882 15.457
2.2536 22.7233 15.603
3.3493 22.6762 15.226
-13.4601 19.7498 5.721
-13.7736 18.5809 4.686
9.5084 10.8816 3.348
9.6271 9.8063 2.353
10.1751 10.7261 2.11
-12.895 26.194 7.526
-7.0854 25.932 12.445
7.3161 5.321 0.87
8.2098 5.3673 -0.467
-0.15 6.7012 6.989
-0.9395 7.5316 7.884
-3.7649 10.5908 10.703
16.2064 27.924 1.83
16.1045 29.151 2.144
-1.2409 1.7292 1.987
0.0213 2.219 2.382
13.3883 32.653 5.148
12.4164 33.623 6.14
-0.2824 9.4824 9.886
13.3331 20.3768 3.571
14.4274 20.7809 2.239
-9.078 17.3225 9.258
-8.9831 18.2846 9.859
-9.9973 18.3258 8.727
-9.2626 26.372 10.648
-8.7518 25.16 11.009
-8.1934 26.275 11.582
10.427 16.4156 5.525
9.7747 15.4586 6.003
10.4042 15.4596 4.974
16.0231 22.1742 -0.211
12.8906 23.9095 5.025
12.4639 25.107 5.761
12.1564 18.6452 4.239
12.99 19.037 3.229
12.5575 19.7258 4.331
10.7151 34.017 7.926
11.6072 34.743 6.941
15.6033 31.876 2.842
16.1914 33.035 2.137
15.1677 33.208 3.181
0.0577 13.8429 13.93
0.9749 13.4732 13.589
10.5317 27.782 8.153
5.5394 15.4345 13.262
5.1617 14.2179 13.049
5.9406 14.3299 12.172
5.7461 24.378 13.88
4.7763 24.284 14.587
-3.3916 28.101 14.714
-4.5134 27.812 14.319
-3.9269 26.774 14.668
16.8052 25.364 -0.161
16.1873 25.008 1.185
16.6554 24.557 -0.204
-4.827 34.109 13.156
-5.5034 32.729 13.161
-4.4903 32.747 13.545
9.9155 35.16 8.835
9.6783 36.471 8.983
9.1689 36.424 9.54
3.8714 30.581 14.114
6.2021 15.6228 12.355
6.7448 15.0863 11.225
6.7942 16.3913 11.77
1.7841 18.0257 15.623
-2.7638 26.866 15.082
10.1589 19.3416 7.704
10.3034 18.1792 6.909
11.428 22.3355 6.572
4.5957 9.3236 8.62
5.4182 10.1363 8.843
9.5516 18.1382 8.152
-13.7252 25.35 6.798
-14.7237 25.033 5.965
0.0434 5.802 6.039
-1.2014 6.0408 6.352
-6.8425 15.0323 10.69
-6.1493 14.3461 11.218
-6.5805 15.8969 11.581
11.8014 19.6251 5.454
15.4745 25.56 2.304
1.2055 5.9761 6.101
1.2204 7.0606 7.198
-3.325 15.28 14.417
-2.4243 15.3372 14.833
-3.2086 16.5647 14.997
7.3651 36.534 10.919
7.7613 35.385 10.881
7.9903 36.518 10.508
-9.7403 27.722 10.218
9.4211 19.128 8.651
9.5028 20.2972 8.685
9.8619 33.836 8.896
7.4997 19.6213 11.3
7.8846 20.6252 10.914
6.9525 20.4673 12.143
5.9333 2.9399 -0.454
-6.3505 26.751 13.109
6.509 28.785 12.872
16.4544 26.405 1.16
16.8535 27.824 0.909
16.9045 29.263 1.201
14.1038 26.985 4.041
14.8812 26.981 3.136
13.0041 29.997 5.601
12.5454 17.9771 3.153
-12.6197 27.695 7.811
-12.2744 28.926 8.148
3.4526 10.4913 10.412
2.5837 11.0524 11.118
11.567 11.0198 -0.429
11.9293 11.7265 -0.436
4.9606 28.153 14.052
8.707 18.3898 9.383
16.2426 30.569 2.172
15.4627 29.692 2.906
2.8606 18.9154 15.457
2.773 20.3252 15.479
1.7498 19.4791 15.765
14.4123 32.027 4.052
14.0736 33.31 4.354
1.5691 8.0257 8.177
0.3156 7.7356 8.021
2.4914 5.8828 5.782
7.4461 34.118 11.288
8.2198 33.1 10.774
6.0563 27.751 13.359
16.4378 23.7722 -0.178
16.9762 26.163 -0.138
6.5613 8.962 6.06
7.7684 9.6889 5.241
8.1815 21.9147 10.692
8.4375 23.3195 10.529
6.9742 31.256 12.09
11.715 25.719 6.754
6.3451 23.2871 13.232
-7.1236 19.2272 11.797
-7.9826 19.7254 11.103
-7.9008 18.4478 10.968
7.9368 8.7794 4.091
8.8452 9.3397 3.186
0.7104 24.528 15.751
16.5031 35.651 1.446
16.1304 34.278 2.082
6.5996 11.9602 9.18
7.3642 12.6195 8.417
7.0897 13.2304 9.301
-10.9477 18.7481 7.869
-10.7119 19.867 8.605
-11.6982 19.9237 7.601
-8.0116 22.3113 11.376
7.9341 24.421 11.243
7.3679 25.391 12.002
10.6657 23.5442 7.677
10.5722 21.9899 7.598
4.374 14.5212 13.62
3.1897 13.9913 13.579
6.6106 5.7969 2.217
1.5803 20.8746 15.836
1.3076 22.2133 15.838
0.3251 21.5689 15.902
6.108 4.8211 1.633
10.7113 13.1103 2.918
9.9954 12.3654 3.648
13.1895 33.846 5.29
4.3812 7.5359 6.647
5.2189 7.3583 5.588
5.5657 8.3138 6.429
13.4043 31.417 5.165
12.5231 31.12 6.135
10.7195 36.468 7.826
10.1874 36.481 8.407
10.7327 35.254 7.852
-13.9563 17.3323 3.664
-13.6344 16.0214 3.194
-12.8421 16.239 4.289
-7.5742 6.3952 3.486
-6.5532 5.6666 3.527
-6.5545 6.7179 4.602
-5.5426 18.2357 13.132
-4.5254 18.3447 14.052
-5.0165 19.5106 13.727
6.8316 19.0865 12.114
7.5239 18.3979 11.081
2.5999 21.6108 15.528
7.3808 15.1765 10.1
17.4414 28.609 -0.079
17.5778 29.434 -0.151
5.1221 13.2853 12.376
3.5697 5.7398 5.094
4.7016 29.576 13.946
-17.2924 30.12 4.018
-17.1494 31.717 4.161
-18.0159 30.863 3.049
-3.0977 3.2647 3.251
-3.6067 2.748 2.42
-2.3719 2.2753 2.444
-13.1083 14.5507 2.894
-14.0557 15.2694 2.144
-13.8539 14.4967 2.009
6.8292 13.991 10.248
-12.5083 13.1495 2.805
-13.5494 13.7603 1.887
-5.0171 17.1462 13.498
-6.1399 16.8381 12.491
-5.3077 16.0804 13.068
-12.4801 32.532 7.677
-11.2946 33.498 8.538
-12.1198 33.499 7.723
6.2024 12.5865 10.316
5.5746 12.8111 11.522
1.37 12.6 12.783
2.815 12.8005 12.702
2.0218 13.6618 13.565
-7.387 35.144 11.865
-8.6444 35.086 10.959
-8.2183 34.083 11.347
-6.2926 31.609 12.969
-5.0041 31.466 13.619
6.3384 20.82 13.165
5.6155 20.5456 14.028
6.1371 19.582 13.204
-2.2816 31.486 14.45
-1.21 32.379 14.461
-2.4367 32.843 14.154
1.3062 2.5399 2.547
1.6 3.4109 3.412
0.2337 3.0943 3.242
-11.5657 34.636 8.247
-12.4842 34.346 7.315
-4.2212 15.9769 13.998
-10.6847 10.9256 3.752
-11.1308 10.2891 2.795
-9.9837 9.5924 3.688
9.9958 16.807 6.517
10.8657 17.4536 5.512
-12.673 35.423 6.881
-10.2757 23.5584 9.512
-11.1226 23.7204 8.79
1.1294 35.424 13.817
2.5987 35.106 13.498
2.1695 36.293 13.048
7.1335 9.9738 6.456
-4.5335 7.928 7.347
-10.677 28.388 9.475
-10.9131 27.17 9.292
4.0416 13.3543 12.916
4.3169 12.3435 11.981
-5.1982 4.7901 3.542
-5.3214 3.8427 2.522
-4.214 3.8729 3.22
-14.0719 33.083 5.957
-13.0915 32.89 6.856
-17.2316 28.5 3.951
-16.6315 29.357 4.64
7.439 21.6499 11.669
-14.2444 34.093 5.689
3.8881 8.2158 7.812
2.6727 8.275 8.278
0.5651 20.1237 15.918
-8.9398 8.4095 4.088
-7.7734 7.5569 4.454
-8.0141 8.7895 5.333
-9.735 25.061 10.109
-5.7326 3.102 1.656
-6.6391 4.0159 1.869
-6.7102 3.0021 0.76
8.9928 6.9154 0.643
9.4378 7.9107 0.908
-1.4713 33.862 14.087
-0.3794 33.725 14.203
-0.5287 35.113 13.865
-10.239 26.245 9.802
-10.5217 17.4004 7.673
-12.6552 31.363 7.698
-13.4417 31.587 6.892
2.2423 5.0639 4.938
0.5519 34.385 14.039
0.8869 33.103 14.3
-4.5413 20.652 14.4
-3.9916 19.4446 14.71
-9.6854 19.459 9.499
4.7384 33.749 13.015
-7.4804 27.413 12.191
-9.2713 6.9377 2.425
-8.3717 5.9824 2.379
-8.5783 7.1987 3.397
-0.0318 1.4003 1.571
8.8761 12.1044 5.485
9.4887 13.1556 5.074
17.9019 31.887 -0.225
17.9051 32.701 -0.127
-17.8428 27.838 3.021
-17.7432 27.086 3.03
0.5249 3.9867 4.115
-1.9133 16.273 15.381
-12.7913 15.2308 3.732
-11.9962 15.0639 4.584
-17.554 25.587 3.056
-16.8296 24.906 4.125
-16.9109 26.476 4.178
-11.894 18.7114 6.838
0.2432 29.594 15.241
15.7183 26.944 2.243
-14.5111 30.712 6.157
-15.6847 31.675 5.162
-15.698 30.334 5.343
-8.299 23.8446 11.294
-9.2894 23.993 10.43
-14.2201 31.922 6.058
-14.2454 21.8542 5.94
-13.935 20.7957 5.784
-13.3811 21.7973 6.701
-12.2083 35.5 7.355
-11.893 35.667 7.823
13.7028 26.07 4.361
13.7309 24.866 4.157
-5.8368 12.8655 10.749
-6.4521 12.5854 9.853
-6.0136 11.551 9.661
-0.9514 11.1602 11.644
-16.5439 33.207 4.234
-17.9078 32.4 3.155
-10.5639 34.731 9.163
-10.9377 35.88 8.756
0.2035 31.847 14.674
-0.1569 32.765 14.437
4.9376 32.226 13.264
4.1109 31.682 13.759
10.3009 13.708 4.008
10.7894 15.0581 4.055
9.9419 14.3905 5.043
11.5794 27.035 7.05
10.872 26.229 7.792
15.294 34.629 2.94
14.526 34.011 3.826
-3.8116 30.86 14.146
-3.8296 29.33 14.396
-15.7872 24.425 5.081
-15.6307 22.9665 4.963
-14.7902 23.7738 5.797
-16.1438 22.2436 4.085
-16.9709 22.5934 2.911
-16.7432 21.8454 2.913
-11.6987 10.1775 1.678
-11.3555 9.4484 1.59
2.1282 32.882 14.174
2.9518 33.636 13.799
1.7721 34.188 13.903
-6.1168 35.04 12.526
-6.4027 36.458 12.14
-1.4845 27.231 15.338
-15.3977 25.746 5.492
6.442 35.226 11.759
8.7617 17.2376 8.904
8.8418 16.3801 8.221
9.5106 17.0823 7.567
-4.5853 2.7303 1.818
-3.6295 33.529 13.66
-3.5289 34.961 13.344
-8.6151 10.1042 5.57
-9.1301 9.5511 4.659
-10.2254 13.877 6.049
3.7414 24.013 15.03
4.411 22.8405 14.796
-11.3165 17.7664 6.952
-11.1578 16.5931 6.518
-2.5908 34.094 13.788
-5.9234 10.413 8.832
-6.71 11.0958 8.462
4.0042 18.6646 15.04
3.8456 19.8557 15.083
4.6605 15.5865 14.116
5.2055 16.6063 14.001
0.7673 36.376 13.154
0.024 36.327 13.227
-15.1809 33.695 4.991
-0.9606 29.52 15.129
-7.389 16.1832 10.601
-7.1834 17.3846 11.516
-8.0783 17.4028 10.444
-17.2422 34.903 3.616
-17.9995 33.194 3.085
-7.8028 20.8574 11.385
-14.6978 18.6537 3.599
-14.9657 17.4928 2.412
2.2451 1.2516 0.797
-12.9338 17.1908 4.788
-11.8363 16.1124 5.397
1.1725 1.6704 1.663
8.0908 17.5081 10.08
7.5055 16.2316 10.553
-8.3891 11.99 7.094
-8.2351 13.1241 8.009
-9.2665 13.255 6.829
-8.7934 5.3651 1.261
-8.3086 4.7274 1.202
2.9299 31.835 14.176
-1.985 11.7588 12.203
-2.1749 12.8707 13.22
-17.4647 24.825 2.995
-10.1832 22.0728 9.446
-9.5416 22.7518 10.057
-2.1774 21.9568 15.495
-3.2809 20.6549 15.211
-1.9041 20.2046 15.58
3.8878 34.732 13.215
3.5481 36.327 12.822
-4.0661 17.1849 14.319
-14.4422 19.8632 4.704
-8.8399 16.0038 8.807
-8.3219 16.5919 9.777
-7.0498 29.146 12.545
-7.9786 29.708 11.729
-10.5633 9.072 2.628
-11.6173 28.086 8.686
6.583 24.803 12.97
-16.57 23.5468 4.134
-17.3003 24.069 3.003
-17.1359 23.3394 2.966
-5.5578 5.7262 4.318
13.4469 15.3771 -0.47
9.2666 14.3065 6.145
9.2675 15.6793 7.036
-9.8821 14.6937 6.949
-10.8001 15.3528 6.229
-16.3222 20.3448 2.663
-16.0275 19.6287 2.569
-15.3206 19.9411 3.716
4.8449 36.384 12.316
4.238 36.321 12.582
5.0892 35.123 12.503
-0.6387 19.5107 15.817
-15.8476 21.0663 3.789
-15.0752 21.3251 4.843
-11.6848 11.7205 2.93
-11.6498 12.7913 3.646
-7.8735 30.944 11.818
-7.0758 30.613 12.487
-10.9547 8.732 1.528
4.4455 26.806 14.488
-8.991 14.1351 7.679
11.941 24.405 6.274
11.0588 24.82 7.395
11.3479 23.5745 6.832
-3.1945 4.2008 4.18
-3.0971 5.1365 5.18
-4.2819 5.1158 4.497
-5.7984 8.2112 6.702
-5.336 8.8564 7.727
8.0856 10.8531 5.809
-3.5175 32.084 13.977
-14.7438 22.5756 5.657
-3.5145 13.327 13.387
-3.2016 12.2642 12.572
17.155 26.97 -0.124
-13.6635 23.0544 6.629
3.9186 33.033 13.616
-5.0466 11.5131 10.675
-4.091 11.7252 11.612
-12.2175 14.0537 3.696
6.7172 10.3942 7.515
5.8667 9.4789 7.497
-6.0597 19.4621 12.76
-6.5154 18.1851 12.302
-3.4836 18.1027 14.927
-12.8316 24.3 7.412
-12.0501 23.4289 7.989
-11.7107 24.662 8.381
1.497 31.887 14.567
5.0187 25.557 14.316
-17.9677 30.091 3.073
-17.9039 29.34 3.14
-4.1979 8.796 8.505
-3.4792 7.9155 8.048
7.3821 6.9754 2.775
-16.5704 27.758 4.535
-8.7622 22.8585 10.782
6.0684 16.9192 12.961
-14.6434 16.7447 2.328
9.5566 7.4517 -0.54
9.9819 8.1608 -0.515
-4.3339 12.8671 12.455
-12.5848 19.7145 6.659
-2.6393 6.0877 6.286
-7.1045 12.473 8.978
-9.73 8.1028 2.87
-10.5415 8.0567 1.509
-8.7473 19.218 10.356
6.7215 36.629 11.28
-1.8895 5.282 5.608
-0.7252 5.1192 5.419
-15.331 18.1969 2.479
-5.1444 9.6161 8.706
8.6845 6.0352 -0.509
9.6105 21.5073 8.73
10.3054 20.6353 7.746
-0.8316 0.7778 1.023
-8.3851 32.901 11.315
4.702 20.4883 14.688
5.0656 4.1889 1.898
0.7593 4.9981 5.128
-15.6927 18.911 2.495
7.9991 31.039 11.144
7.5675 32.46 11.484
-12.544 22.422 7.483
-7.6034 11.9166 8.005
10.503 9.9228 1.021
9.7439 9.0343 1.574
10.1542 8.8681 0.573
-8.4106 31.738 11.309
-9.296 31.785 10.561
-10.6596 24.901 9.293
10.0082 26.569 8.745
3.8912 25.582 14.866
2.286 16.8692 15.381
3.2279 17.5561 15.286
6.2503 13.7472 11.145
-7.6066 13.6479 9.052
-8.3935 14.6193 8.652
-15.1198 29.567 5.835
-14.2734 29.259 6.47
11.5189 18.2936 5.011
-8.7702 30.49 11.082
12.1323 23.2485 5.873
-9.5205 30.304 10.416
-10.3715 30.776 9.723
-10.0956 29.289 9.959
0.1308 23.0621 15.823
1.3693 23.5483 15.776
-7.7069 36.351 11.478
-8.1712 10.8436 6.536
-6.8635 8.8295 6.416
11.007 18.6951 6.071
15.9605 35.713 2.047
2.5932 2.9031 2.502
2.8456 4.0077 3.607
8.881 22.205 9.791
-13.8892 24.22 6.571
9.8557 32.597 8.939
-11.5843 32.449 8.5
-2.2279 1.1541 1.295
-1.6709 0.2229 0.143
-6.0035 33.847 12.742
8.606 15.463 8.043
8.6827 14.4158 7.268
1.6227 0.4087 -0.276
2.3853 0.7768 -0.321
-0.4275 4.4327 4.662
-1.8172 4.3557 4.666
11.0613 16.3616 4.437
-0.8379 0.0318 0.072
-4.9149 10.5235 9.787
-2.4989 14.0811 14.093
14.9245 35.943 3.219
-18.027 31.644 3.052
-7.0635 36.431 11.828
7.4823 30 11.809
8.7128 10.8807 4.727
-6.8912 7.8789 5.511
-4.7704 35.39 12.892
-5.6166 27.724 13.706
-6.5954 28.027 12.924
-4.25 36.506 12.786
-3.5462 36.346 13.012
-5.2879 2.1571 0.614
-6.0136 2.5691 0.677
3.1497 11.8952 11.859
15.0047 19.0934 -0.357
15.3156 19.8559 -0.344
12.2757 12.4183 -0.54
17.8095 31.077 -0.194
17.2091 30.662 1.043
-15.5928 34.948 4.49
-14.991 35.011 4.979
-11.2778 29.469 9.009
-11.3224 30.615 8.909
-12.3512 30.066 8.018
-3.1097 23.1819 15.235
-3.1699 21.8775 15.239
13.1414 28.464 5.351
-3.1032 11.2834 11.676
-4.9389 28.86 14.005
14.5312 25.771 3.382
14.6467 24.562 3.043
-3.1761 0.8668 0.191
-3.4333 1.766 1.465
-3.8983 1.2742 0.347
-0.8261 22.205 15.73
-1.4997 23.3931 15.587
-5.639 15.1331 12.26
0.6222 18.7209 15.817
3.8153 21.3832 15.068
6.2475 10.7573 8.518
-5.0015 12.5327 11.486
-12.2037 25.518 8.023
0.8766 28.368 15.431
1.8687 28.448 15.295
-0.5022 18.2686 15.799
-6.2432 4.705 2.799
-7.4211 5.147 2.366
4.9218 8.6026 7.455
-10.3905 33.403 9.429
-11.8266 31.269 8.412
5.7552 18.4482 13.531
-0.6535 36.316 13.31
8.1398 28.706 11.106
8.3352 29.798 10.824
-11.4092 13.6646 4.469
-8.3109 36.373 11.069
6.8141 17.6715 11.997
6.2598 18.2304 12.751
-10.8496 31.902 9.19
14.4163 36.064 3.815
3.4138 8.921 8.779
3.4468 9.6857 9.55
7.3816 17.2335 11.063
-17.6551 26.341 3.045
17.6836 30.261 -0.167
-9.2321 6.0129 1.284
3.5207 4.8861 4.17
4.2385 4.4564 3.023
1.6832 4.3043 4.312
1.8076 11.782 11.989
-17.857 28.575 3.122
5.4015 5.3937 2.97
-5.7314 24.048 13.542
7.0934 11.5492 8.011
-0.497 8.5199 8.887
-13.1805 13.0392 1.803
-5.2857 13.7362 11.847
-11.2149 25.909 8.895
-5.963 29.096 13.394
-15.3814 28.263 5.622
-15.7032 27.006 5.316
-9.1667 12.2958 6.366
15.5774 20.5997 -0.3
-16.557 21.0999 2.775
-0.6667 30.945 14.851
-9.6397 6.7003 1.384
-4.9974 36.523 12.592
-5.6921 36.544 12.372
-0.6046 20.7663 15.822
-1.5113 21.2179 15.641
-15.2442 32.683 5.215
10.8454 9.598 -0.406
14.0783 30.573 4.426
15.0418 30.829 3.404
-13.4492 30.296 7.078
-9.6343 34.883 10.059
-8.912 36.371 10.632
-9.423 36.303 10.167
-11.171 14.6336 5.352
13.7987 29.287 4.688
8.6103 9.9578 4.125
-16.5856 30.78 4.729
11.2676 36.351 7.246
11.7009 17.2928 4.005
-10.117 7.3687 1.405
10.9579 10.973 0.983
-14.3665 16.0177 2.215
-9.9442 36.242 9.686
6.703 21.838 12.738
-5.8239 7.2412 5.704
-4.9174 30.108 13.863
1.4635 36.368 13.097
17.3207 27.784 -0.153
-15.9796 28.906 5.144
14.6962 18.3527 -0.364
-6.7306 13.7106 10.089
-12.7904 20.8328 6.934
16.231 22.9696 -0.188
9.1013 6.7308 -0.495
-9.9835 32.34 9.908
-6.0875 30.342 13.246
-9.2863 33.544 10.471
-11.9113 26.816 8.378
11.7857 36.217 6.682
11.1379 14.5196 3.147
-4.5716 1.7305 0.474
-7.4759 14.7494 9.78
-3.9158 9.6243 9.587
10.0803 22.6716 8.274
10.4241 8.8666 -0.458
5.4593 36.552 11.948
8.5911 36.492 10.051
2.3808 2.0923 1.696
11.4235 13.8826 2.265
11.192 10.3244 -0.337
-7.9849 15.565 9.535
-2.4451 0.5102 0.181
-7.7917 4.1324 1.15
13.2222 14.6432 -0.491
5.7096 11.2319 9.756
2.9092 36.305 12.978
-2.7976 36.268 13.19
-10.4501 36.077 9.217
9.3729 11.8544 4.401
-16.2212 25.752 4.831
6.2972 6.4824 3.332
-7.3285 3.5277 0.918
7.1829 4.0953 -0.435
12.3455 36.222 6.109
15.4395 35.961 2.621
6.0861 36.569 11.633
-12.8103 12.3147 1.832
7.7022 4.705 -0.485
-12.4526 11.6013 1.742
-11.3936 35.845 8.283
-12.0214 10.8992 1.723
-14.2914 35.194 5.436
3 0 1 2
3 3 4 5
3 6 7 8
3 9 10 11
3 12 13 14
3 15 16 17
3 6 18 19
3 20 21 22
3 23 24 25
3 26 27 28
3 29 30 31
3 32 33 34
3 35 36 37
3 38 39 40
3 41 42 43
3 44 45 46
3 47 48 42
3 49 50 51
3 52 53 54
3 55 56 57
3 58 59 60
3 61 62 63
3 64 52 65
3 66 67 68
3 69 70 71
3 72 73 74
3 75 76 23
3 77 60 78
3 79 15 80
3 81 82 38
3 83 84 85
3 86 87 88
3 89 90 91
3 92 93 94
3 95 96 97
3 23 76 98
3 99 100 101
3 7 102 103
3 104 105 106
3 107 108 109
3 110 111 112
3 113 114 115
3 66 116 67
3 40 117 118
3 119 39 120
3 121 122 123
3 98 124 125
3 126 127 116
3 128 129 130
3 52 131 65
3 132 133 134
3 135 136 137
3 138 139 140
3 141 108 142
3 143 144 145
3 146 147 148
3 14 149 150
3 151 35 152
3 153 154 155
3 156 157 158
3 159 160 161
3 162 163 164
3 165 166 167
3 45 44 168
3 169 170 171
3 6 167 18
3 27 26 172
3 173 174 175
3 176 177 159
3 160 110 178
3 179 180 181
3 182 21 183
3 157 184 185
3 50 186 187
3 188 41 189
3 68 190 191
3 192 193 194
3 193 195 194
3 196 197 198
3 199 200 201
3 202 188 203
3 204 205 149
3 154 206 207
3 208 209 210
3 211 78 60
3 104 212 107
3 29 213 214
3 215 216 217
3 218 219 220
3 221 222 103
3 223 172 117
3 224 225 226
3 227 228 229
3 230 231 232
3 233 234 235
3 236 237 238
3 239 240 241
3 242 204 149
3 136 195 137
3 243 244 245
3 246 247 248
3 219 249 34
3 250 251 252
3 102 91 90
3 253 163 254
3 255 181 256
3 257 258 259
3 210 209 260
3 261 262 263
3 264 265 266
3 156 267 85
3 268 206 154
3 269 270 271
3 272 273 274
3 34 220 219
3 275 61 276
3 122 277 278
3 279 280 281
3 282 283 129
3 284 285 286
3 21 182 287
3 188 202 41
3 283 130 129
3 192 288 277
3 180 289 290
3 185 291 292
3 84 293 85
3 237 294 295
3 296 297 71
3 298 299 221
3 300 207 83
3 301 302 212
3 303 304 305
3 306 307 308
3 309 310 311
3 61 63 312
3 313 168 314
3 315 316 317
3 318 222 319
3 320 321 322
3 223 323 324
3 89 91 325
3 326 327 328
3 273 329 330
3 331 332 333
3 334 335 336
3 337 338 339
3 52 64 53
3 340 341 342
3 150 205 343
3 344 345 346
3 81 118 347
3 331 348 36
3 349 350 257
3 351 259 258
3 352 353 233
3 350 349 354
3 355 183 356
3 357 291 358
3 359 360 361
3 106 362 317
3 335 363 275
3 364 365 291
3 366 367 368
3 369 370 371
3 131 52 54
3 270 269 372
3 373 349 374
3 111 65 131
3 375 318 340
3 376 377 378
3 379 246 248
3 380 192 194
3 216 215 381
3 363 335 382
3 383 384 294
3 385 386 236
3 102 90 387
3 315 388 316
3 389 390 22
3 268 391 392
3 393 394 191
3 302 142 212
3 132 209 133
3 204 395 205
3 373 227 396
3 397 398 295
3 399 400 401
3 402 322 403
3 404 155 405
3 198 197 406
3 144 407 408
3 381 215 409
3 336 276 410
3 382 334 411
3 412 173 413
3 241 414 415
3 416 162 216
3 314 44 417
3 273 272 418
3 159 302 176
3 419 420 421
3 422 255 423
3 424 47 202
3 425 426 29
3 427 428 429
3 430 431 432
3 433 123 122
3 364 406 197
3 115 244 11
3 434 435 239
3 402 403 298
3 436 437 351
3 438 27 439
3 440 289 179
3 422 413 173
3 441 442 443
3 444 248 247
3 190 445 446
3 447 403 60
3 448 449 450
3 451 221 452
3 212 104 301
3 453 454 455
3 456 457 458
3 459 460 461
3 462 463 464
3 465 466 376
3 467 280 442
3 85 267 83
3 148 147 468
3 384 469 470
3 323 169 324
3 327 471 328
3 276 335 275
3 265 264 472
3 343 473 217
3 474 475 476
3 477 478 479
3 480 481 482
3 148 468 483
3 484 480 485
3 486 487 488
3 429 148 483
3 489 490 491
3 234 492 493
3 494 495 496
3 497 498 499
3 500 501 338
3 502 503 504
3 505 506 507
3 508 509 510
3 511 512 491
3 366 368 513
3 514 515 516
3 517 309 518
3 519 2 1
3 520 521 96
3 522 523 524
3 525 412 413
3 199 184 526
3 372 527 528
3 529 530 471
3 531 532 533
3 435 113 115
3 1 534 535
3 474 536 537
3 377 414 538
3 0 539 1
3 540 541 196
3 443 542 441
3 543 544 545
3 306 546 307
3 547 548 549
3 181 550 551
3 552 553 554
3 555 306 372
3 556 224 226
3 557 489 558
3 148 429 49
3 364 559 406
3 560 553 561
3 562 464 563
3 431 564 262
3 253 565 164
3 270 566 271
3 567 568 569
3 570 297 296
3 571 572 51
3 214 573 574
3 536 575 576
3 510 509 577
3 578 82 101
3 579 580 458
3 581 582 583
3 584 430 432
3 585 14 13
3 424 202 203
3 382 586 363
3 587 588 589
3 590 307 591
3 370 407 144
3 592 535 534
3 593 594 595
3 596 512 597
3 598 168 599
3 600 601 602
3 171 603 207
3 475 604 605
3 511 606 607
3 506 608 609
3 144 408 145
3 217 610 611
3 612 613 614
3 429 483 492
3 615 616 417
3 617 211 618
3 151 619 620
3 479 296 71
3 621 622 623
3 624 625 626
3 515 627 628
3 148 49 146
3 629 630 631
3 497 632 633
3 189 634 348
3 356 635 621
3 636 254 407
3 637 638 639
3 547 640 532
3 337 641 642
3 643 16 644
3 15 645 80
3 646 281 647
3 648 649 556
3 650 507 552
3 338 231 500
3 4 651 652
3 399 653 654
3 496 495 439
3 655 326 656
3 270 306 308
3 657 658 522
3 534 539 659
3 507 506 552
3 37 660 35
3 661 662 663
3 604 664 665
3 666 420 419
3 667 668 456
3 23 669 75
3 128 670 671
3 672 297 570
3 458 457 579
3 544 543 569
3 673 674 147
3 675 676 677
3 678 679 568
3 630 629 680
3 681 170 682
3 458 580 671
3 683 582 581
3 684 685 520
3 686 687 688
3 523 689 690
3 691 486 513
3 140 513 488
3 282 692 283
3 693 694 303
3 513 486 488
3 695 696 271
3 628 697 515
3 390 389 698
3 11 10 699
3 700 701 702
3 531 703 460
3 97 432 431
3 291 357 364
3 704 111 131
3 705 310 706
3 707 224 708
3 196 448 540
3 709 710 711
3 712 713 714
3 40 81 38
3 715 688 99
3 523 631 630
3 278 288 308
3 716 717 624
3 51 50 187
3 718 719 484
3 720 721 230
3 722 697 628
3 723 395 204
3 707 677 724
3 725 726 727
3 728 729 730
3 263 262 564
3 731 732 4
3 186 525 733
3 619 505 734
3 335 334 382
3 717 593 735
3 736 737 682
3 361 487 662
3 738 382 411
3 595 739 593
3 630 680 740
3 624 626 716
3 294 382 383
3 741 293 742
3 719 743 484
3 744 745 525
3 746 747 462
3 748 463 691
3 749 750 751
3 493 328 471
3 13 12 752
3 9 753 10
3 474 754 755
3 756 526 757
3 596 519 512
3 175 758 255
3 545 643 644
3 463 486 691
3 759 537 536
3 685 261 760
3 761 250 656
3 762 456 668
3 551 763 764
3 569 459 544
3 480 482 485
3 711 667 692
3 87 242 48
3 138 765 736
3 16 514 516
3 134 666 419
3 624 700 625
3 129 584 766
3 201 767 184
3 652 602 768
3 769 697 770
3 564 771 263
3 430 305 431
3 772 370 369
3 358 773 774
3 667 775 668
3 245 115 114
3 198 448 196
3 651 4 776
3 692 667 283
3 737 765 742
3 550 180 777
3 778 779 437
3 780 93 92
3 758 440 179
3 518 350 517
3 422 173 175
3 499 781 232
3 372 306 270
3 782 251 503
3 783 248 444
3 784 364 357
3 370 144 143
3 710 785 711
3 614 572 612
3 382 294 586
3 786 787 416
3 739 788 749
3 216 162 217
3 768 676 789
3 343 611 680
3 790 791 792
3 191 394 66
3 261 263 666
3 618 60 403
3 793 781 794
3 795 521 520
3 32 249 796
3 89 325 615
3 242 87 797
3 798 799 347
3 472 264 198
3 408 407 787
3 800 328 493
3 676 801 802
3 803 804 587
3 805 315 362
3 279 86 88
3 806 720 793
3 354 373 396
3 434 113 435
3 313 725 807
3 808 809 810
3 424 811 812
3 590 278 307
3 497 813 498
3 3 814 643
3 101 82 99
3 3 545 815
3 520 546 795
3 689 630 740
3 518 805 816
3 426 817 617
3 25 818 23
3 723 9 395
3 818 819 509
3 220 415 820
3 808 794 809
3 456 283 667
3 533 477 728
3 767 773 358
3 749 821 739
3 822 375 145
3 346 345 674
3 489 557 823
3 824 825 780
3 225 802 693
3 817 426 425
3 558 489 535
3 620 35 151
3 142 302 141
3 826 337 632
3 827 828 706
3 584 129 128
3 519 1 512
3 829 830 669
3 275 108 141
3 69 831 832
3 700 624 622
3 121 123 133
3 608 13 752
3 105 258 106
3 833 613 53
3 533 478 477
3 834 780 825
3 84 603 681
3 309 833 518
3 835 741 602
3 756 757 156
3 417 616 726
3 836 366 139
3 211 617 837
3 282 129 766
3 838 475 605
3 774 831 784
3 497 633 839
3 840 786 416
3 600 602 741
3 708 649 671
3 413 841 733
3 842 545 544
3 229 396 227
3 72 114 73
3 337 642 843
3 184 757 526
3 616 796 249
3 844 845 380
3 846 843 847
3 331 35 620
3 848 547 849
3 235 850 392
3 10 329 699
3 545 3 643
3 578 120 38
3 812 442 280
3 767 729 773
3 851 852 161
3 394 853 66
3 21 20 183
3 579 480 743
3 496 223 324
3 854 214 855
3 426 321 29
3 395 409 215
3 462 487 486
3 856 659 857
3 419 747 746
3 623 821 356
3 245 244 115
3 137 195 193
3 584 648 430
3 194 333 332
3 269 806 808
3 576 583 759
3 478 533 640
3 858 859 860
3 734 507 641
3 208 121 133
3 242 723 204
3 788 750 749
3 861 260 862
3 190 68 445
3 863 46 45
3 737 864 681
3 332 865 844
3 330 797 646
3 261 433 760
3 174 449 266
3 866 867 363
3 868 869 870
3 137 193 210
3 686 871 872
3 361 360 873
3 663 662 421
3 468 147 674
3 153 268 154
3 542 715 874
3 875 281 467
3 744 876 745
3 741 742 877
3 751 878 749
3 879 880 14
3 299 59 319
3 436 249 219
3 232 632 497
3 824 479 869
3 715 881 874
3 882 460 883
3 869 479 478
3 442 811 443
3 376 466 229
3 499 232 497
3 318 455 340
3 115 11 435
3 666 123 433
3 682 836 736
3 642 641 650
3 75 669 830
3 352 540 884
3 406 472 198
3 70 479 71
3 606 490 885
3 397 855 213
3 843 642 847
3 823 557 886
3 250 761 887
3 161 160 851
3 414 820 415
3 556 649 224
3 752 561 608
3 311 833 309
3 565 253 714
3 6 19 7
3 100 688 687
3 888 554 658
3 7 103 8
3 16 79 514
3 509 508 818
3 840 889 890
3 372 810 527
3 253 254 636
3 343 205 473
3 536 576 759
3 565 689 740
3 189 136 135
3 743 891 580
3 892 498 813
3 107 105 104
3 54 67 131
3 761 893 894
3 423 256 285
3 166 74 18
3 92 570 780
3 885 823 895
3 114 32 73
3 211 896 78
3 897 898 153
3 899 674 673
3 900 583 576
3 189 41 634
3 374 227 373
3 535 512 1
3 363 867 275
3 526 731 199
3 814 3 5
3 901 854 855
3 546 591 307
3 325 73 796
3 678 568 902
3 221 451 298
3 395 215 473
3 723 797 753
3 503 274 782
3 801 676 768
3 155 404 153
3 439 495 529
3 305 556 226
3 472 903 265
3 787 163 416
3 734 501 619
3 904 24 783
3 694 661 663
3 470 855 384
3 559 784 905
3 27 172 439
3 118 798 347
3 812 811 442
3 150 343 680
3 727 726 436
3 349 373 354
3 748 563 463
3 802 225 724
3 771 421 420
3 906 495 494
3 536 755 907
3 908 266 265
3 121 909 277
3 185 184 767
3 910 427 876
3 32 34 249
3 815 545 842
3 158 911 267
3 192 380 288
3 348 634 36
3 912 484 485
3 533 730 531
3 913 877 765
3 911 155 300
3 608 561 609
3 751 914 878
3 4 815 731
3 750 788 96
3 760 591 685
3 752 629 561
3 844 865 915
3 916 917 20
3 918 17 675
3 12 150 680
3 321 320 213
3 328 345 344
3 796 73 32
3 62 302 161
3 919 62 161
3 329 753 330
3 176 301 316
3 709 716 920
3 287 355 749
3 875 647 281
3 921 152 660
3 567 922 902
3 905 784 577
3 299 319 222
3 923 843 846
3 261 685 684
3 924 632 843
3 416 163 162
3 871 925 443
3 925 926 688
3 659 604 927
3 571 51 187
3 362 258 257
3 119 323 39
3 444 247 289
3 261 666 433
3 579 743 580
3 405 155 911
3 217 473 215
3 871 443 811
3 57 642 650
3 792 928 790
3 551 792 791
3 532 531 882
3 867 866 599
3 402 929 930
3 510 71 297
3 767 358 185
3 346 899 893
3 931 587 804
3 166 890 72
3 932 933 934
3 916 759 917
3 255 758 181
3 935 80 645
3 109 867 599
3 147 637 673
3 641 507 650
3 540 897 541
3 906 206 392
3 677 676 724
3 387 936 929
3 413 422 937
3 589 803 587
3 372 269 810
3 924 843 923
3 770 697 722
3 836 367 366
3 429 492 427
3 632 924 633
3 346 761 344
3 474 938 475
3 493 492 800
3 408 165 145
3 666 263 420
3 318 8 222
3 532 548 547
3 483 800 492
3 48 242 149
3 441 401 400
3 262 684 95
3 154 300 155
3 884 745 352
3 811 203 872
3 210 909 208
3 939 453 455
3 805 940 315
3 8 318 375
3 586 294 237
3 232 826 632
3 871 811 872
3 941 567 769
3 646 279 281
3 753 9 723
3 156 757 157
3 393 191 942
3 747 662 487
3 200 461 703
3 587 558 592
3 690 689 713
3 698 858 390
3 700 702 625
3 915 695 845
3 762 943 457
3 934 944 932
3 634 43 37
3 240 418 945
3 153 898 268
3 199 731 946
3 121 277 122
3 562 260 209
3 515 514 718
3 930 929 238
3 18 167 166
3 435 11 699
3 893 899 466
3 418 699 329
3 673 637 396
3 64 65 177
3 761 894 887
3 228 414 377
3 86 279 646
3 5 789 675
3 419 421 662
3 15 918 677
3 232 781 230
3 486 463 462
3 397 295 384
3 620 619 947
3 691 513 368
3 543 769 569
3 321 426 322
3 365 196 404
3 277 909 192
3 186 910 744
3 941 922 567
3 600 913 360
3 828 49 51
3 696 806 269
3 902 568 567
3 657 522 948
3 475 938 588
3 423 284 937
3 503 272 274
3 239 435 699
3 62 61 141
3 69 577 831
3 469 383 949
3 610 740 611
3 105 351 258
3 228 374 778
3 530 235 234
3 779 778 374
3 899 346 674
3 936 236 238
3 538 378 377
3 464 132 746
3 583 917 759
3 237 295 398
3 773 832 774
3 807 725 727
3 869 868 824
3 631 522 560
3 231 230 500
3 152 921 505
3 104 106 301
3 950 759 916
3 160 951 851
3 600 360 952
3 594 953 595
3 61 312 954
3 318 319 455
3 738 949 383
3 45 236 863
3 47 88 87
3 724 225 707
3 287 749 878
3 517 310 309
3 588 604 475
3 550 955 763
3 565 610 164
3 766 584 432
3 586 237 386
3 794 956 809
3 313 105 107
3 53 64 940
3 858 527 810
3 323 119 169
3 168 313 599
3 931 557 558
3 217 611 343
3 861 862 686
3 282 953 594
3 206 171 207
3 819 818 25
3 402 298 451
3 55 554 888
3 434 239 241
3 501 500 957
3 694 663 303
3 958 499 498
3 772 636 370
3 325 74 73
3 163 787 254
3 708 645 707
3 225 224 707
3 564 305 304
3 739 623 735
3 706 639 638
3 352 898 897
3 103 222 8
3 940 518 833
3 387 90 863
3 226 303 305
3 832 728 70
3 83 207 603
3 291 365 405
3 591 546 520
3 872 203 188
3 121 208 909
3 641 339 734
3 133 209 208
3 705 51 572
3 855 397 384
3 522 631 523
3 950 916 803
3 732 731 526
3 874 81 347
3 751 521 795
3 33 434 415
3 87 48 47
3 836 120 367
3 385 866 386
3 438 439 529
3 760 433 590
3 675 17 814
3 807 727 351
3 317 301 106
3 287 878 959
3 562 563 687
3 636 714 253
3 450 449 174
3 904 903 819
3 603 170 681
3 24 904 25
3 97 431 95
3 160 178 951
3 110 177 65
3 365 197 196
3 867 108 275
3 688 926 686
3 399 654 400
3 716 626 920
3 21 287 389
3 648 584 128
3 283 456 670
3 110 160 177
3 401 874 347
3 214 854 573
3 866 363 386
3 32 114 113
3 745 876 353
3 572 446 612
3 418 240 239
3 660 152 35
3 574 29 214
3 106 258 362
3 116 131 67
3 376 229 377
3 764 792 551
3 614 613 311
3 437 259 351
3 330 646 647
3 717 594 593
3 391 233 235
3 39 323 223
3 663 421 304
3 412 174 173
3 132 464 562
3 546 555 795
3 588 938 589
3 109 599 313
3 814 5 675
3 276 954 410
3 552 554 57
3 600 952 601
3 251 782 654
3 528 527 698
3 873 488 487
3 319 59 960
3 175 174 266
3 57 650 552
3 109 108 867
3 663 304 303
3 613 961 53
3 501 957 947
3 284 423 285
3 848 962 640
3 666 134 123
3 224 649 708
3 403 447 298
3 733 525 413
3 91 19 74
3 140 873 138
3 963 359 661
3 416 216 840
3 378 945 502
3 741 877 600
3 402 320 322
3 964 776 756
3 623 739 821
3 348 331 333
3 384 383 469
3 220 34 33
3 37 36 634
3 214 213 855
3 769 516 697
3 243 381 244
3 620 947 865
3 448 264 449
3 718 79 719
3 437 436 965
3 966 792 764
3 787 786 165
3 721 695 957
3 712 714 967
3 107 109 313
3 87 86 797
3 748 100 563
3 504 894 465
3 593 739 735
3 637 354 396
3 883 459 568
3 745 884 450
3 959 698 389
3 143 342 968
3 534 927 592
3 218 820 778
3 370 636 407
3 964 756 156
3 23 969 669
3 952 359 963
3 475 838 476
3 916 20 804
3 665 605 604
3 417 726 725
3 683 701 582
3 970 54 961
3 745 353 352
3 325 796 616
3 228 820 414
3 466 899 673
3 406 559 472
3 942 971 393
3 689 565 714
3 956 895 809
3 139 366 513
3 972 694 693
3 671 935 708
3 177 388 64
3 97 96 788
3 959 528 698
3 383 382 738
3 930 238 398
3 677 645 15
3 725 314 417
3 137 861 135
3 392 850 906
3 74 19 18
3 942 191 190
3 799 798 26
3 919 161 852
3 42 202 47
3 699 418 239
3 973 824 868
3 679 974 883
3 120 836 119
3 116 127 975
3 659 539 857
3 531 730 703
3 20 917 183
3 971 942 790
3 896 211 837
3 610 565 740
3 566 695 271
3 194 332 844
3 654 653 251
3 108 107 142
3 876 427 976
3 776 835 651
3 350 354 639
3 265 904 908
3 252 251 653
3 361 661 359
3 141 61 275
3 913 600 877
3 249 726 616
3 821 355 356
3 623 356 621
3 958 498 932
3 910 186 50
3 977 523 690
3 642 57 978
3 606 979 607
3 122 590 433
3 374 228 227
3 279 88 812
3 530 850 235
3 200 946 461
3 86 646 797
3 791 256 551
3 140 139 513
3 140 488 873
3 421 771 304
3 548 883 974
3 315 940 388
3 957 500 721
3 805 362 816
3 390 860 22
3 750 96 521
3 397 930 398
3 543 644 516
3 980 841 284
3 783 908 904
3 542 925 715
3 96 95 684
3 711 785 667
3 556 305 430
3 17 918 15
3 3 815 4
3 506 553 552
3 446 572 980
3 172 496 439
3 802 963 972
3 423 255 256
3 844 915 845
3 213 320 397
3 117 40 223
3 816 362 257
3 594 717 692
3 594 692 282
3 194 195 333
3 953 97 788
3 404 405 365
3 554 553 560
3 492 234 976
3 554 55 57
3 810 809 858
3 512 511 597
3 590 591 760
3 861 210 260
3 978 847 642
3 640 533 532
3 728 832 729
3 781 793 230
3 125 24 23
3 167 822 145
3 114 889 245
3 479 70 477
3 981 582 621
3 491 535 489
3 440 758 982
3 402 451 929
3 669 92 829
3 427 492 976
3 190 284 286
3 415 434 241
3 28 799 26
3 913 765 138
3 942 190 286
3 45 598 385
3 358 291 185
3 795 914 751
3 68 970 445
3 273 647 274
3 786 890 166
3 935 671 580
3 806 696 720
3 696 695 721
3 94 829 92
3 25 904 819
3 171 906 494
3 276 61 954
3 495 530 529
3 66 126 116
3 223 40 39
3 205 150 149
3 345 483 468
3 936 863 236
3 480 484 743
3 44 314 168
3 154 207 300
3 64 388 940
3 368 748 691
3 91 102 7
3 549 548 983
3 412 450 174
3 347 399 401
3 872 135 861
3 201 184 199
3 903 472 559
3 784 831 577
3 460 459 883
3 564 431 305
3 63 62 919
3 958 932 885
3 474 476 754
3 827 146 828
3 957 915 947
3 344 326 328
3 480 457 481
3 247 246 984
3 297 672 508
3 612 961 613
3 123 134 133
3 536 474 755
3 8 822 6
3 234 233 976
3 859 858 809
3 56 978 57
3 74 166 72
3 293 741 835
3 58 985 59
3 609 561 553
3 132 562 209
3 561 629 631
3 629 752 680
3 465 378 504
3 316 388 177
3 892 933 498
3 53 940 833
3 744 910 876
3 28 27 655
3 230 721 500
3 759 950 537
3 886 557 860
3 347 799 399
3 461 460 703
3 670 130 283
3 732 776 4
3 238 929 936
3 400 875 467
3 566 308 288
3 598 599 866
3 587 931 558
3 375 143 145
3 248 125 124
3 864 293 84
3 59 447 60
3 5 4 652
3 982 758 175
3 807 351 105
3 959 914 528
3 315 317 362
3 85 964 156
3 749 355 821
3 79 718 514
3 706 638 827
3 614 311 310
3 962 869 640
3 958 794 781
3 825 824 973
3 489 823 490
3 617 817 986
3 351 727 436
3 945 272 502
3 81 874 881
3 83 603 84
3 660 37 43
3 256 181 551
3 471 530 493
3 863 90 46
3 228 377 229
3 824 780 296
3 790 928 971
3 921 585 13
3 389 22 21
3 72 889 114
3 965 219 218
3 861 686 872
3 687 686 862
3 685 591 520
3 113 33 32
3 409 395 9
3 328 800 345
3 387 452 102
3 17 16 643
3 391 268 898
3 171 206 906
3 292 405 911
3 746 462 464
3 818 508 969
3 598 866 385
3 761 656 326
3 233 898 352
3 523 977 524
3 101 100 748
3 213 29 321
3 438 326 655
3 517 350 639
3 340 342 143
3 162 164 610
3 648 556 430
3 329 10 753
3 795 555 914
3 879 585 43
3 79 891 719
3 112 178 110
3 252 799 28
3 719 891 743
3 310 517 706
3 711 716 709
3 608 921 13
3 297 508 510
3 490 511 491
3 859 895 886
3 948 522 524
3 210 861 137
3 165 167 145
3 649 648 128
3 478 640 869
3 505 507 734
3 925 871 926
3 169 119 170
3 103 452 221
3 182 355 287
3 927 534 659
3 547 549 849
3 946 842 461
3 151 152 505
3 568 679 883
3 636 772 987
3 31 425 29
3 525 186 744
3 320 402 930
3 431 262 95
3 292 911 158
3 746 134 419
3 794 958 956
3 980 284 446
3 689 523 630
3 879 43 42
3 871 686 926
3 378 465 376
3 968 370 143
3 467 281 280
3 374 349 779
3 965 218 778
3 415 220 33
3 101 748 368
3 770 941 769
3 529 471 327
3 120 578 367
3 484 988 718
3 982 175 266
3 251 504 503
3 17 643 814
3 677 707 645
3 247 984 989
3 503 502 272
3 910 428 427
3 881 99 82
3 859 809 895
3 960 939 319
3 560 561 631
3 136 348 333
3 102 452 103
3 438 655 27
3 550 763 551
3 338 501 339
3 905 577 509
3 147 827 638
3 697 516 515
3 778 820 228
3 19 91 7
3 835 602 651
3 529 327 438
3 908 444 440
3 85 293 964
3 563 464 463
3 611 740 680
3 908 783 444
3 11 409 9
3 975 704 131
3 969 508 672
3 682 119 836
3 990 718 988
3 201 729 767
3 496 172 223
3 390 858 860
3 82 578 38
3 128 130 670
3 59 985 960
3 618 322 617
3 267 156 158
3 408 787 165
3 811 424 203
3 157 757 184
3 927 604 588
3 734 339 501
3 698 527 858
3 624 717 622
3 337 826 338
3 693 303 226
3 588 587 592
3 269 271 696
3 731 842 946
3 59 299 447
3 316 301 317
3 538 414 241
3 364 197 365
3 372 528 555
3 660 585 921
3 989 290 289
3 68 67 970
3 864 742 293
3 451 387 929
3 261 684 262
3 257 259 779
3 179 289 180
3 622 717 735
3 797 723 242
3 956 958 885
3 602 652 651
3 572 614 705
3 375 822 8
3 682 170 119
3 595 953 788
3 349 257 779
3 716 711 717
3 159 177 160
3 49 429 428
3 294 384 295
3 392 206 268
3 117 798 118
3 459 461 544
3 580 891 935
3 522 554 560
3 380 194 844
3 932 606 885
3 14 150 12
3 221 299 222
3 302 62 141
3 937 422 423
3 92 672 570
3 927 588 592
3 887 894 504
3 311 613 833
3 260 562 687
3 729 832 773
3 639 354 637
3 124 379 248
3 962 870 869
3 835 964 293
3 688 100 99
3 46 89 615
3 810 269 808
3 980 571 841
3 252 656 250
3 687 862 260
3 443 925 542
3 273 418 329
3 806 793 794
3 850 495 906
3 159 161 302
3 917 981 635
3 890 786 840
3 79 80 891
3 28 656 252
3 583 582 981
3 502 504 378
3 220 820 218
3 806 794 808
3 441 400 467
3 571 980 572
3 151 505 619
3 346 893 761
3 903 904 265
3 91 74 325
3 672 669 969
3 400 654 875
3 607 991 511
3 495 850 530
3 517 639 706
3 828 705 706
3 853 126 66
3 494 324 169
3 190 446 284
3 43 634 41
3 781 499 958
3 157 185 292
3 455 319 939
3 361 873 487
3 654 782 875
3 192 909 193
3 826 232 231
3 946 200 199
3 751 750 521
3 497 839 813
3 14 880 149
3 157 292 158
3 541 153 404
3 49 428 50
3 147 638 637
3 289 247 989
3 804 22 931
3 424 88 47
3 278 590 122
3 986 837 617
3 582 701 700
3 577 69 510
3 434 33 113
3 53 961 54
3 563 100 687
3 736 139 138
3 913 873 360
3 598 45 168
3 568 459 569
3 470 901 855
3 774 784 357
3 928 792 966
3 819 903 559
3 454 340 455
3 255 422 175
3 138 873 913
3 705 828 51
3 670 458 671
3 282 766 953
3 933 932 498
3 280 279 812
3 992 718 990
3 512 535 491
3 350 816 257
3 823 886 895
3 22 804 20
3 287 959 389
3 299 298 447
3 739 595 788
3 107 212 142
3 807 105 313
3 761 326 344
3 353 876 976
3 186 733 187
3 506 921 608
3 395 473 205
3 798 117 26
3 550 777 955
3 938 474 537
3 169 171 494
3 538 240 945
3 325 616 615
3 16 15 79
3 618 211 60
3 914 959 878
3 189 348 136
3 860 931 22
3 308 566 270
3 655 656 28
3 680 752 12
3 931 860 557
3 259 437 779
3 635 356 183
3 887 251 250
3 139 736 836
3 540 448 884
3 586 386 363
3 589 950 803
3 938 537 589
3 273 330 647
3 49 828 146
3 16 516 644
3 36 35 331
3 675 677 918
3 937 284 841
3 381 409 244
3 708 935 645
3 418 272 945
3 310 705 614
3 818 969 23
3 947 915 865
3 545 644 543
3 266 449 264
3 398 238 237
3 961 445 970
3 897 153 541
3 801 768 952
3 737 681 682
3 128 671 649
3 441 467 442
3 345 800 483
3 80 935 891
3 601 768 602
3 183 355 182
3 338 826 231
3 621 635 981
3 380 845 566
3 387 863 936
3 603 171 170
3 438 327 326
3 952 360 359
3 622 621 700
3 768 601 952
3 735 623 622
3 589 537 950
3 879 14 585
3 412 745 450
3 879 42 48
3 676 802 724
3 97 953 432
3 413 937 841
3 956 885 895
3 110 65 111
3 352 897 540
3 92 669 672
3 802 801 963
3 46 615 44
3 558 535 592
3 364 784 559
3 730 533 728
3 747 487 462
3 765 877 742
3 407 254 787
3 812 88 424
3 539 0 993
3 134 746 132
3 974 983 548
3 457 456 762
3 50 428 910
3 243 216 381
3 345 468 674
3 350 518 816
3 730 200 703
3 915 957 695
3 54 970 67
3 944 979 606
3 466 465 893
3 460 882 531
3 426 617 322
3 982 908 440
3 243 840 216
3 444 289 440
3 944 606 932
3 243 889 840
3 386 237 236
3 236 45 385
3 747 419 662
3 912 988 484
3 143 375 340
3 526 756 732
3 480 579 457
3 972 661 694
3 249 436 726
3 302 301 176
3 135 188 189
3 125 783 24
3 875 274 647
3 539 993 857
3 477 70 728
3 403 322 618
3 276 336 335
3 815 842 731
3 673 396 229
3 525 745 412
3 659 856 604
3 361 662 661
3 304 771 564
3 789 676 675
3 542 401 441
3 620 865 332
3 882 548 532
3 890 889 72
3 900 581 583
3 165 786 166
3 188 135 872
3 756 776 732
3 528 914 555
3 60 77 58
3 790 286 285
3 417 44 615
3 652 768 789
3 177 176 316
3 582 700 621
3 225 693 226
3 789 5 652
3 802 972 693
3 505 921 506
3 466 673 229
3 555 546 306
3 982 266 908
3 684 520 96
3 771 420 263
3 277 288 278
3 566 845 695
3 945 378 538
3 976 233 353
3 766 432 953
3 660 43 585
3 409 11 244
3 880 48 149
3 370 968 371
3 905 819 559
3 911 300 267
3 905 509 819
3 827 147 146
3 835 776 964
3 793 720 230
3 331 620 332
3 943 481 457
3 341 340 454
3 823 885 490
3 401 542 874
3 714 713 689
3 445 961 612
3 538 241 240
3 99 881 715
3 101 368 578
3 721 720 696
3 965 436 219
3 785 775 667
3 405 292 291
3 681 864 84
3 46 90 89
3 769 543 516
3 530 234 493
3 972 963 661
3 834 93 780
3 300 83 267
3 737 736 765
3 164 163 253
3 39 38 120
3 975 131 116
3 541 404 196
3 118 81 40
3 824 296 479
3 494 496 324
3 193 909 210
3 290 777 180
3 917 635 183
3 822 167 6
3 387 451 452
3 907 575 536
3 967 636 987
3 285 256 791
3 570 296 780
3 501 947 619
3 799 653 399
3 992 627 515
3 191 66 68
3 898 233 391
3 991 597 511
3 952 963 801
3 125 23 98
3 339 641 337
3 831 774 832
3 465 894 893
3 887 504 251
3 965 778 437
3 733 841 571
3 367 578 368
3 288 380 566
3 571 187 733
3 930 397 320
3 42 41 202
3 799 252 653
3 550 181 180
3 69 71 510
3 860 859 886
3 606 511 490
3 264 448 198
3 456 458 670
3 692 717 711
3 69 832 70
3 307 278 308
3 574 30 29
3 506 609 553
3 515 718 992
3 790 942 286
3 243 245 889
3 461 842 544
3 548 882 883
3 884 448 450
3 200 730 201
3 848 640 547
3 48 880 879
3 583 981 917
3 725 313 314
3 117 172 26
3 916 804 803
3 162 610 217
3 337 843 632
3 967 714 636
3 664 604 856
3 805 518 940
3 729 201 730
3 758 179 181
3 774 357 358
3 925 688 715
3 82 81 881
3 753 797 330
3 554 522 658
3 391 235 392
3 285 791 790
3 782 274 875
3 539 534 1
3 446 445 612
3 333 195 136
3 569 769 567
3 864 737 742
3 248 783 125
