ply
format ascii 1.0
element vertex 994
property float x
property float y
property float z
element face 1828
property list uchar uint vertex_indices
end_header
113.056 183.366 40.8214
111.862 182.786 40.1367
113.181 182.888 40.1831
85.9258 182.916 32.6028
85.8573 181.836 31.2901
86.9959 182.007 32.4146
108.475 181.072 12.6828
107.988 181.963 11.8149
109.624 181.691 12.1372
103.689 175.744 18.1869
102.519 175.952 17.6873
103.298 176.704 16.871
107.81 174.868 22.1021
107.64 174.615 23.5332
106.5 174.477 22.5825
88.6477 183.871 35.2354
87.0994 184.642 35.0434
87.554 183.571 34.2954
107.449 180.429 13.253
107.109 181.265 12.453
104.976 182.997 40.3901
104.454 182.278 39.3951
105.94 182.027 39.212
78.2339 188.395 20.6014
79.4346 187.675 19.8224
79.4107 187.008 20.609
92.5636 174.561 21.165
91.7005 175.236 20.5067
93.0634 174.769 19.9701
110.89 188.802 5.53204
110.661 190.083 4.60167
112.545 189.482 4.98407
103.077 179.867 13.8293
101.71 179.271 14.4417
101.834 180.213 13.5835
106.032 174.628 27.0839
104.773 174.444 27.0173
105.306 174.313 25.9756
92.5312 174.221 25.058
91.2732 174.964 24.6194
92.2495 174.387 23.7945
103.26 173.996 25.176
103.798 173.978 23.8448
104.896 174.124 24.8107
103.481 183.681 10.3457
104.195 184.607 9.44721
104.783 183.505 10.3948
102.721 173.97 23.0353
104.091 174.184 22.3273
90.0566 181.62 15.4626
88.852 182.256 15.6037
89.6494 183.122 14.6735
92.6322 187.698 10.3971
92.5609 186.448 11.2046
91.605 187.554 10.9616
113.321 176.194 25.8747
113.317 176.207 26.6871
112.133 175.874 26.5657
113.195 184.181 9.89654
112.028 183.775 10.2411
111.899 184.917 9.14911
99.5377 188.721 6.79503
98.191 188.65 7.34646
98.3771 189.935 6.74418
93.7031 187.089 10.2795
93.3575 188.481 9.614
89.3891 189.076 11.1013
90.5913 188.336 10.9544
89.282 187.932 11.7938
79.5766 185.525 25.1529
79.2863 185.759 26.4513
78.5957 186.437 25.4232
105.762 179.529 14.0895
104.619 180.203 13.4744
106.069 180.623 13.0531
77.1524 189.784 21.0081
77.5986 189.799 20.2447
113.18 184.767 9.33899
113.184 185.359 8.78758
88.3738 185.053 36.1798
89.5458 184.241 36.0718
93.7763 173.888 24.0942
93.8308 173.859 25.6191
86.4539 178.939 25.6609
87.0381 178.385 26.7448
86.0613 179.347 27.1806
101.72 174.314 21.1266
102.838 174.249 21.6319
101.588 173.96 22.3844
105.262 182.469 11.3275
106.138 183.227 10.6034
106.335 181.955 11.7975
76.6397 188.524 23.4166
75.8818 189.394 24.234
75.9948 189.559 23.3751
97.8513 180.526 36.2147
99.1771 180.755 36.701
97.8233 181.347 37.2446
78.0419 189.793 19.4788
95.2903 173.839 26.1797
95.7626 174.18 27.4161
94.1941 174.014 26.9902
107.338 182.859 10.9422
108.869 182.663 11.1786
98.4346 185.294 9.5682
99.1491 184.359 10.2597
97.6145 184.737 10.2105
99.6297 185.548 9.15835
100.24 186.711 8.07058
100.78 185.782 8.8191
94.1863 188.956 8.97292
92.8426 190.087 9.02457
93.64 190.01 8.69921
102.805 178.687 14.9432
104.273 179.033 14.5837
103.577 177.839 15.6916
90.6706 189.209 10.4399
92.1543 174.52 22.4657
93.2863 174.065 23.0493
90.0802 175.814 25.5093
91.3823 174.879 25.8533
99.7795 176.572 31.4196
100.122 177.321 32.4383
98.6248 177.219 32.0919
78.4692 189.907 18.7125
78.9576 188.665 19.3025
89.6508 190.198 10.3939
90.4311 190.18 10.0054
93.945 183.419 37.6036
95.2729 183.469 38.3479
94.5016 184.103 38.5509
91.9484 188.883 10.0348
97.2455 176.08 30.4174
98.412 176.402 31.0005
97.2275 177.05 31.6599
101.173 174.112 27.0714
102.325 174.387 27.8364
101.064 174.545 28.5078
90.4827 176.691 29.2907
90.9477 175.715 28.4231
91.5851 176.283 29.4059
99.2587 187.666 7.52982
99.049 186.698 8.29056
111.993 179.88 14.0071
111.311 179.198 14.696
110.276 179.824 13.9484
91.2949 181.157 15.2132
92.5568 180.307 15.2058
90.9312 180.398 15.8703
105.431 174.61 21.295
107.029 174.964 21.1672
107.153 174.97 27.5804
107.222 174.72 26.3425
85.3849 180.29 22.0277
86.1045 179.458 23.198
85.0292 180.438 23.4727
84.9433 180.414 27.4196
83.7946 181.511 26.8757
84.5012 180.762 26.1446
96.2725 188.054 8.52698
95.4448 188.942 8.41345
96.8985 188.875 7.77325
108.488 176.828 17.5283
109.581 177.415 16.8306
109.861 176.915 17.9004
108.929 179.153 14.5025
107.354 179.579 14.0567
108.721 180.053 13.6578
102.576 184.601 9.64647
89.2245 176.495 24.2557
88.719 176.868 25.326
88.0751 177.518 23.9082
91.2852 175.219 21.7541
84.7892 184.587 16.5649
84.0264 184.357 17.6067
83.747 185.549 16.7897
96.457 187.144 9.00159
94.9334 187.727 9.33702
94.4151 190.047 8.32091
82.4409 187.785 16.1152
82.266 188.778 15.4518
83.4286 187.712 15.1686
103.37 182.479 39.4996
103.488 183.165 40.3937
83.0519 182.418 27.941
82.9298 182.327 26.2184
87.5169 182.669 16.0378
88.3604 183.226 15.2175
101.714 173.961 25.7359
102.647 174.144 26.528
88.2072 187.319 12.6701
88.2771 188.761 11.7972
102.182 176.058 30.8817
101.522 175.27 29.7792
103.175 175.453 29.9782
102.334 174.855 29.0292
83.6162 182.151 21.2383
82.8033 182.827 21.9076
82.7928 183.238 20.5743
83.1956 183.088 29.389
82.3219 184.207 29.781
82.1058 183.634 28.4824
102.319 173.879 24.3877
100.891 173.803 24.9049
104.839 174.955 20.076
106.092 175.13 20.1023
87.1989 178.449 22.9118
86.877 178.609 24.2579
99.5077 175.793 30.3832
98.4664 175.447 29.8641
99.9895 175 29.3499
112.084 185.854 8.27592
98.3014 186.256 8.82605
109.13 188.12 5.99608
109.298 189.005 5.22992
106.191 176.179 18.003
107.124 176.883 17.0211
107.679 176.192 18.5035
99.6291 180.481 13.5771
100.826 180.908 13.0664
100.574 179.888 13.9858
109.437 183.603 10.3049
110.288 182.64 11.2576
91.0657 175.161 23.1546
92.4861 182.111 35.578
91.8167 181.455 34.5956
93.2858 181.081 34.9986
96.4086 180.081 14.3128
97.5936 179.746 14.4666
95.9449 179.268 15.0842
109.098 177.237 32.477
109.779 176.763 31.5905
110.782 177.279 32.2821
86.8267 179.64 19.2854
88.084 178.699 18.6785
87.6605 178.469 19.9518
105.2 185.575 8.50783
105.378 186.808 7.3976
106.511 185.987 8.03631
100.889 177.332 16.2642
99.6283 177.235 16.4185
99.8725 178.137 15.6011
103.866 174.575 20.8581
105.89 177.464 16.075
104.548 177.058 16.4234
104.736 178.028 15.5038
79.5114 189.888 17.2871
80.457 188.923 17.1612
79.6467 188.776 18.2124
102.121 181.134 12.7351
94.3485 175.584 18.5081
95.8264 175.161 18.8148
94.3047 174.781 19.4183
111.048 177.313 17.5981
110.721 177.802 16.5278
84.2132 186.479 15.5332
84.6629 187.362 14.5582
96.5407 182.938 11.8865
97.8311 183.676 11.0047
97.92 182.737 11.8088
98.6324 174.669 28.8092
98.2768 178.886 34.1719
97.398 179.757 35.1643
97.0288 178.946 34.0619
82.6632 184.163 19.4644
81.7146 185.375 19.3791
82.7772 185.173 18.2458
85.4429 179.882 25.9994
86.4407 179.331 21.8782
105.904 178.448 34.2853
104.393 178.156 33.8438
105.359 177.618 33.1258
98.7372 175.777 17.7529
99.8983 175.353 18.3674
98.487 175.041 18.8929
100.895 187.713 7.10252
100.834 188.827 6.41268
101.222 176.689 31.7045
101.634 177.481 32.7982
100.54 174.101 21.5704
99.4297 173.942 21.982
99.4008 174.322 20.7624
96.3339 183.633 39.0662
95.0842 184.682 39.3913
87.2067 186.256 13.8585
86.0806 187.234 13.8095
87.058 187.507 13.1088
103.077 181.788 38.5734
102.696 176.919 32.0814
81.4174 188.637 16.4686
81.4897 189.984 15.5279
82.8573 182.439 24.4198
83.7128 181.576 25.3373
86.9176 178.817 28.3791
105.069 187.985 6.41932
106.277 187.665 6.54448
77.6341 187.399 25.5221
78.1487 187.011 24.2156
109.743 184.576 9.38791
110.713 183.562 10.3937
85.7768 179.632 24.5643
97.2498 186.124 9.32361
97.709 187.469 8.24384
93.8187 180.103 34.3351
94.8367 179.486 34.2182
94.8571 180.613 35.3324
103.201 178.662 34.4912
101.904 178.316 33.9291
103.071 177.758 33.2563
93.0464 184.137 12.4886
92.0347 183.658 13.253
92.0373 184.688 12.58
99.1926 189.976 6.50675
100.887 184.638 9.80722
102.111 183.892 10.3178
95.4082 185.453 10.5698
95.8452 186.467 9.70709
96.5445 185.355 10.1298
111.078 181.752 12.1329
111.814 182.754 11.2113
109.007 186.984 7.06295
110.184 187.68 6.46893
110.318 186.621 7.46469
90.3194 175.639 24.2938
89.9475 175.985 23.2584
104.808 181.44 12.3087
91.9801 176.312 18.324
90.725 176.538 18.7282
90.8314 177.428 17.8437
101.222 175.664 17.9644
101.095 174.965 19.1703
104.895 174.77 28.1149
104.603 175.141 29.2914
103.527 174.806 28.6618
102.474 189.974 5.72481
102.094 188.615 6.35243
101.648 190.01 5.87476
111.118 176.274 29.6739
109.706 176.258 30.3982
109.718 175.904 29.2936
112.213 180.854 13.0065
113.516 180.71 13.244
113.461 180.156 13.8299
107.531 175.49 19.9838
92.1724 177.231 17.511
91.6135 178.377 16.8842
92.9796 177.808 16.7876
94.582 173.916 22.5052
103.619 174.418 27.4203
96.0653 181.917 12.8076
94.8642 182.747 12.6116
99.2356 183.047 11.3848
85.6335 180.914 19.31
86.4674 180.717 18.4227
94.7944 181.468 13.4824
102.236 182.535 39.4119
101.926 183.383 40.4603
81.8923 183.383 24.2292
82.1156 183.069 25.5596
91.4594 178.76 31.804
90.771 178.27 30.9679
92.391 177.88 31.4241
96.406 184.235 10.9742
102.643 187.492 7.12733
82.0894 183.329 22.9793
83.2448 182.245 22.9255
91.7752 175.122 27.9029
91.8414 174.713 26.9352
93.0745 174.534 27.7813
113.54 178.752 15.8049
112.406 178.798 15.3795
113.539 179.178 15.1156
104.611 179.078 35.1251
95.8398 180.948 13.6259
97.0732 180.902 13.5194
110.886 180.765 13.0554
96.3299 178.253 15.9274
97.3771 178.64 15.4578
97.2028 177.396 16.5636
78.9432 189.922 17.9649
103.544 176.285 31.2617
105.751 176.721 16.997
103.53 188.655 6.1224
104.966 188.929 5.7675
106.414 188.655 5.71137
104.042 185.691 8.52554
104.05 186.617 7.7241
107.095 184.103 9.7669
94.7219 186.528 10.1803
104.65 181.479 38.3865
105.934 181.133 38.0047
86.8484 179.136 20.5816
87.4302 178.436 21.5005
87.3662 190.056 11.672
88.1261 190.066 11.2349
105.077 175.554 18.8598
95.0618 180.215 14.3924
107.717 187.657 6.41636
106.816 186.875 7.19713
95.5271 174.083 21.3128
96.9833 174.059 21.3895
96.0814 173.768 22.5452
109.104 185.723 8.26998
110.415 185.389 8.63901
84.246 181.296 22.5548
83.9426 181.439 23.9378
81.9887 183.664 21.6243
111.145 178.38 15.7209
110.14 178.882 14.8939
104.692 176.225 17.5617
100.832 189.965 6.08499
103.301 189.965 5.58227
85.2493 183.474 17.1469
85.9681 184.333 15.8244
98.7234 178.865 15.0921
100.205 179.027 14.7788
108.279 177.544 16.2773
102.7 182.875 11.1386
100.129 176.307 17.2257
95.8309 177.587 32.1384
96.3478 178.256 33.0805
95.0141 178.399 33.0222
85.0029 185.462 15.6777
85.5859 186.388 14.6623
101.264 173.793 23.6709
112.783 188.346 6.11747
111.409 187.729 6.51038
88.3609 180.423 17.0855
89.0327 181.205 16.1947
89.6829 180.319 16.4836
95.2782 181.475 36.4192
96.4791 180.71 36.1225
96.4964 181.731 37.2326
98.9824 177.974 33.1084
101.341 178.313 15.3383
102.317 177.552 16.0147
100.463 181.916 12.229
98.8517 181.993 12.3519
91.0411 175.952 19.62
90.4853 175.996 20.878
81.9029 187.286 17.1626
97.5112 173.703 22.7268
98.8828 173.703 23.0376
98.2118 173.63 24.0658
80.8785 187.849 17.7567
89.5733 186.74 12.3815
88.7806 185.987 13.2225
110.95 184.439 9.56684
83.7203 182.846 19.6324
83.535 183.906 18.6675
84.5639 183.083 18.2762
108.506 184.554 9.36332
108.189 183.57 10.2931
113.521 181.87 12.117
113.53 181.287 12.6768
112.308 181.834 12.1049
93.7773 185.712 39.6091
92.3957 186.183 39.2913
92.6292 185.08 38.4684
82.3963 185.93 32.4327
81.6272 185.889 31.2969
82.7361 184.826 31.3416
94.7757 176.324 30.3686
94.8959 175.432 29.2512
96.0637 175.734 29.8212
95.7578 177.436 16.7061
95.0603 178.483 15.8716
98.2774 174.014 21.6241
91.7041 179.509 16.1086
105.763 189.957 5.15358
106.576 190.035 5.00828
89.7557 177.215 18.7858
81.8286 184.352 20.5104
106.525 175.67 19.07
107.509 185.35 43.6081
109.174 185.196 43.5991
108.29 186.323 44.3929
79.1962 186.14 27.5563
78.6533 186.972 28.1124
78.1754 186.93 26.7785
90.8618 186.48 38.7343
91.6148 187.237 39.7411
90.8181 187.369 39.4876
90.4798 179.369 16.7431
89.4229 186.566 38.0506
90.0505 187.487 39.1454
93.6692 175.993 29.7564
93.3636 176.988 30.904
92.5888 176.433 30.0207
109.871 181.603 38.5847
110.861 180.743 37.3257
111.001 181.56 38.4684
89.034 179.294 17.4959
89.2738 178.079 18.223
89.0344 176.791 22.8196
89.2418 176.877 21.2481
90.1421 176.01 22.1146
112.224 177.508 32.4701
112.209 178.374 33.8987
111.162 177.988 33.426
108.555 176.436 31.2242
108.379 175.833 29.8109
97.5526 176.37 17.333
97.258 175.506 18.2114
96.2731 176.335 17.5556
108.381 175.071 26.8932
109.319 175.097 25.6616
109.795 175.36 27.0457
78.4903 186.853 22.8795
79.3903 186 22.5786
79.0478 186.156 24.0112
112.048 181.035 37.6798
111.933 181.969 38.9972
92.4876 175.52 28.8825
87.1308 185.635 36.0253
86.4672 186.59 36.4729
85.7543 185.707 35.2127
93.4368 183.14 12.9624
94.1351 184.159 11.9869
113.182 182.405 39.5367
100.306 179.793 35.63
100.466 180.513 36.573
112.411 175.757 23.0354
112.113 176.14 21.3367
113.28 176.534 21.8357
86.2826 183.107 16.5396
84.04 182.105 29.2035
105.31 179.814 36.1712
104.054 180 36.3674
89.8411 176.667 19.9434
88.7828 177.602 19.6627
80.7442 185.874 29.9054
79.7641 186.89 29.954
79.8061 186.187 28.7908
110.828 183.347 40.9768
110.524 182.437 39.7243
105.782 185.433 43.3942
106.688 184.726 42.8699
98.4574 177.871 16.0002
111.894 183.614 41.2569
84.4467 181.688 20.1071
84.4964 181.212 21.4028
96.7294 173.614 23.8283
84.5365 185.318 34.0122
83.6354 184.97 32.7046
84.9357 184.086 33.0341
101.828 179.194 35.0721
79.0132 187.756 30.3478
79.9372 187.545 31.3362
78.9077 188.653 31.3563
83.0959 188.906 14.6326
84.1142 188.659 14.0871
110.856 175.455 25.9777
110.715 175.366 24.779
112.124 175.705 24.9091
103.088 179.494 35.616
93.8936 181.685 35.9003
108.573 181.579 38.6104
109.028 182.402 39.7483
81.1184 184.489 21.8885
111.372 175.541 23.7089
110.079 175.29 23.3391
97.2676 175.07 29.2448
96.0276 174.782 28.6563
96.0518 179.826 34.9748
110.77 176.678 18.8696
104.235 177.169 32.474
83.0039 186.981 34.3161
82.0004 187.028 33.312
83.2738 186.007 33.6278
77.3002 187.823 24.2665
88.4659 184.141 14.5724
89.595 184.571 13.7557
109.034 190.113 4.70523
109.85 190.006 4.70157
105.055 186.376 43.9307
104.247 186.373 43.7701
79.9656 185.29 23.7221
92.7842 174.161 26.4052
91.5719 185.644 38.4033
91.3911 184.786 37.5405
102.626 186.358 43.4582
101.886 185.277 42.6967
103.543 185.216 42.8598
95.2519 182.511 37.4165
106.436 174.332 24.1749
104.033 187.549 6.90951
108.13 183.165 40.8429
109.197 184.17 42.233
107.689 183.997 41.9916
100.561 178.043 33.4231
100.723 178.887 34.5305
109.567 183.25 40.9181
98.561 183.415 39.8983
97.4502 183.572 39.5734
98.5062 182.645 38.9683
113.179 181.93 38.8843
113.194 181.462 38.2277
103.11 185.335 8.94623
101.877 185.542 8.90588
89.2338 178.753 30.6165
88.9389 179.623 31.3188
87.8862 179.826 30.8083
87.553 177.913 25.3345
110.83 185.097 43.3035
109.91 186.203 44.4479
112.043 180.125 36.3961
113.274 180.536 36.9176
108.763 174.9 24.1312
109.716 175.136 24.5282
109.212 176.377 18.7345
108.652 175.866 19.6851
90.2081 185.648 12.7787
91.6265 185.615 12.1579
90.914 184.617 13.1292
104.042 182.57 11.2846
103.222 181.809 12.0272
111.765 186.846 7.34265
111.132 185.94 8.14551
107.737 175.345 28.529
106.162 175.084 28.5687
101.325 184.292 41.6059
99.7435 184.424 41.3656
100.573 183.56 40.5137
98.9918 185.317 41.8761
99.3985 186.508 42.7195
98.6001 186.5 42.4828
86.3531 187.704 37.0528
85.599 187.797 36.6572
109.86 175.436 21.9545
110.643 175.869 20.9784
111.156 175.673 22.3349
112.088 176.883 31.0651
113.538 177.259 31.4044
104.003 174.189 26.0563
102.725 183.868 41.2005
112.228 177.901 16.8718
93.8604 180.706 14.3722
92.9637 181.413 14.2946
93.7079 182.071 13.5344
78.6282 187.58 29.1312
110.506 175.818 28.3418
111.98 176.13 28.2382
86.3007 183.838 33.7618
85.7245 184.745 34.271
90.2126 183.336 35.5725
100.795 174.522 20.2982
99.5912 174.749 19.5804
94.2619 182.402 36.792
93.0607 182.846 36.5904
111.093 175.714 27.2577
86.6792 180.638 30.7446
87.3746 180.989 31.6556
95.2857 174.501 20.0386
96.5135 174.458 20.1815
92.1351 175.445 19.3185
93.1817 175.556 18.7163
113.375 176.408 23.4514
113.335 176.317 24.2561
111.497 184.316 42.2331
106.347 174.415 25.4836
92.6438 178.807 32.4654
93.9363 177.903 32.1137
93.9262 178.927 33.2337
112.557 185.72 44.0363
110.712 186.269 44.5684
97.5162 177.97 32.8822
95.1725 185.781 40.3858
93.9504 186.97 40.6822
77.1825 188.601 21.9206
93.6182 184.576 38.5328
92.5086 183.967 37.3775
77.591 187.738 23.0157
94.1302 179.512 15.1831
92.795 179.044 15.9713
88.258 182.324 33.522
89.4728 181.414 33.3254
89.584 182.57 34.5025
81.3766 188.149 33.7153
80.7114 188.21 33.164
108.81 175.431 21.0311
88.153 177.348 26.482
89.3162 176.348 26.6102
101.812 186.423 43.326
98.7575 179.864 35.497
99.462 179.255 34.8193
98.5905 174.004 26.7886
97.2719 174.289 27.8956
96.806 173.929 26.4787
111.771 176.505 19.9021
113.339 176.831 20.2418
93.7056 175.191 28.7263
96.462 184.669 40.1018
92.4468 180.573 34.0724
93.0651 179.611 33.4707
105.998 176.823 32.0473
106.6 177.605 33.1104
85.2079 186.764 35.7912
105.037 180.599 37.2321
101.695 176.576 16.9381
100.401 185.275 42.359
101.009 186.419 43.1204
100.205 186.454 42.9184
81.7211 185.107 30.2642
92.0388 190.138 9.34575
90.8201 183.507 13.8953
92.2515 182.61 13.838
91.0606 182.442 35.1551
91.7335 183.148 36.1925
97.0079 186.739 42.0408
96.2285 186.824 41.745
96.5727 185.679 41.0371
113.402 177.374 18.7183
113.325 177.07 19.4657
112.149 177.188 18.4424
96.1033 173.709 25.086
97.7763 185.617 41.575
98.0245 184.539 40.7737
87.9529 186.444 37.1522
89.0497 185.726 37.1473
107.878 177.528 32.9669
107.513 176.88 32.0877
84.86 187.859 36.2267
103.682 175.089 19.4514
90.5149 181.723 34.1752
101.371 183.365 10.8618
101.775 182.213 11.8158
100.51 182.787 11.465
80.1619 185.222 27.6567
81.1294 184.226 27.5578
81.1042 184.918 28.8783
84.344 182.745 30.6238
85.0255 181.731 30.1017
87.1836 183.793 15.4753
109.016 175.498 28.2651
99.3381 183.708 40.4576
89.7727 176.171 28.002
88.664 176.975 27.7288
104.125 189.971 5.43668
99.8165 182.716 39.3116
110.038 176.047 19.9167
87.8446 178.833 29.7498
88.0906 177.914 28.7296
90.3515 185.677 37.797
86.7283 182.072 16.9596
85.7841 182.048 17.8873
96.0329 176.66 30.9767
94.7438 177.136 31.3903
94.6425 174.581 28.1241
101.117 181.91 38.4565
100.203 181.322 37.5702
101.444 180.921 37.2341
108.849 175.043 22.6813
102.42 175.243 18.8048
107.48 186.305 44.2779
106.677 186.245 44.1319
84.9655 180.961 28.8575
84.074 181.414 28.0598
83.1156 186.754 16.3341
104.955 184.843 42.6401
99.5652 178.549 33.9309
93.5222 176.594 17.7124
93.1811 187.056 40.3473
83.6457 190.094 13.9952
84.3733 190.09 13.4967
89.271 177.082 28.9458
96.3046 182.692 38.1372
82.1171 183.13 27.1103
88.8159 180.473 32.0623
84.2065 186.523 34.896
84.1575 187.883 35.7323
95.82 178.986 33.9376
113.618 178.388 16.5236
81.2913 183.802 26.3408
81.1633 183.991 25.0746
94.7121 186.906 41.033
85.8411 180.766 29.8871
82.1847 190.042 14.9846
98.3399 180.844 13.4166
97.446 181.852 12.6377
76.6683 188.371 25.064
109.918 178.025 33.5353
97.1827 174.848 19.2488
80.2312 187.563 18.8583
81.0372 184.285 23.4905
95.4615 186.892 41.4138
108.071 178.476 15.1322
109.492 178.171 15.6639
99.1651 181.841 38.0774
88.2227 181.429 32.6388
86.192 188.585 12.8712
85.2493 188.013 13.719
85.1026 189.02 13.2907
108.724 178.02 33.6058
108.821 178.753 34.6273
101.678 180.004 36.098
103.554 180.848 12.9004
102.408 174.698 20.1325
93.4285 174.165 21.897
94.1341 174.259 20.874
90.2354 178.464 17.448
90.0311 180.385 32.6293
91.0145 180.763 33.508
106.822 183.498 41.2569
106.471 182.847 40.3464
95.018 184.662 11.261
107.434 178.242 33.9805
100.175 183.783 10.6368
107.29 178.89 34.8911
107.84 179.575 35.835
106.243 179.337 35.5216
99.7528 173.704 24.3221
100.259 173.772 22.9474
113.486 177.877 32.8974
87.071 182.877 33.3215
84.9784 183.016 31.8289
95.4278 183.601 11.7894
112.831 187.739 6.65403
78.8801 186.915 21.5434
80.0238 185.818 21.2821
99.0376 179.774 14.2645
101.043 182.772 39.552
109.661 180.708 13.0743
109.672 180.779 37.4345
77.0435 188.084 26.5577
76.0995 189.242 25.9675
110.871 176.664 30.9716
91.9939 181.6 14.6114
90.9127 182.379 14.5888
76.3186 189.669 22.561
76.7093 189.724 21.7708
80.4241 184.739 24.7468
80.3321 184.733 26.2266
93.0068 185.23 11.7912
75.9092 189.313 25.1111
86.8095 179.703 29.6587
90.5646 175.467 26.9686
113.057 186.55 7.70543
109.102 186.313 44.4683
113.533 177.545 32.1603
107.013 177.799 15.7436
87.2067 184.877 14.7551
83.9813 183.925 31.7643
112.425 176.535 29.6167
104.531 175.714 30.4786
104.848 176.466 31.5292
113.548 176.651 29.0569
113.402 176.459 28.284
78.0427 188.781 29.8469
78.4598 188.733 30.6124
88.3099 177.712 20.91
95.9684 190.091 7.58592
96.7574 190.09 7.25293
88.8787 190.176 10.8024
108.215 190.086 4.79268
107.808 188.834 5.403
112.783 184.823 42.7129
112.834 184.33 42.0743
106.496 180.28 36.8354
107.684 180.376 36.9611
107.166 181.258 38.1969
99.833 174.254 27.7792
98.5231 174.246 27.8269
105.591 184.327 9.59907
87.6492 177.865 27.6242
105.692 175.442 29.754
102.814 186.352 8.09448
101.577 186.693 7.92892
76.7418 189.183 27.6006
77.6528 187.909 27.9122
77.1556 189.038 28.3602
98.8551 173.785 25.3345
100.07 173.92 26.0857
91.6124 177.242 30.3969
95.2975 173.716 23.7372
98.0777 174.47 20.2501
87.1084 181.058 17.5026
88.9036 178.03 29.6986
102.349 181.28 37.8204
105.196 174.15 23.4785
105.304 174.298 22.3532
94.8312 173.734 24.9124
80.6555 186.619 30.9761
81.1142 187.048 32.2239
84.8678 182.058 18.9714
110.613 179.859 36.0948
108.446 180.873 37.6236
95.0971 176.012 18.0106
113.339 176.247 25.0659
105.705 178.482 15.0589
106.82 178.78 14.794
89.9545 184.904 36.8919
113.531 178.267 33.6031
94.2942 177.569 16.7496
94.8886 176.799 17.3582
109.047 180.098 36.5075
113.181 185.957 8.24269
85.1982 180.739 20.6054
86.0141 179.979 20.5617
93.8475 178.518 16.0301
103.438 186.364 43.6127
107.397 190.052 4.90167
82.0584 188.119 34.2467
80.9399 185.271 20.5729
80.5114 186.42 19.7839
80.3118 185.103 22.5036
88.1977 177.582 22.3102
105.864 186.269 44.0212
81.4824 186.506 18.4402
100.744 175.875 30.576
87.9188 181.591 16.5449
84.7374 180.598 24.8438
89.3005 187.569 38.7558
90.1311 177.661 30.053
102.741 180.399 36.7446
105.94 176.018 30.8433
105.417 183.72 41.3752
104.08 184.046 41.6007
88.5842 183.035 34.4033
97.5627 190.044 6.97
97.7991 186.633 42.2876
107.814 174.701 25.1662
82.7633 188.014 34.734
113.569 176.831 29.8478
113.616 177.037 30.6288
97.3736 173.703 25.0482
97.8433 173.871 26.053
110.344 184.101 42.046
85.8501 190.011 12.542
107.677 185.295 8.64538
107.917 186.397 7.60987
107.524 182.211 39.5195
112.082 179.243 35.1593
113.556 178.688 34.2935
113.537 179.142 34.9604
90.972 184.022 36.6177
106.421 185.012 8.9326
86.2355 185.457 14.9108
108.168 184.624 42.9276
113.406 182.447 11.5624
93.9955 185.671 11.0621
83.4524 187.992 35.2515
87.2992 188.641 12.3323
92.4011 187.166 40.0453
113.52 179.615 35.6158
98.6244 176.798 16.8771
83.3173 183.736 30.6081
106.974 175.587 29.7377
113.347 176.476 22.6419
104.942 190.015 5.27547
106.17 184.204 42.1145
95.1859 190.091 7.94066
90.082 179.372 31.6849
97.4788 182.408 38.3589
100.013 189.965 6.29447
82.9104 190.038 14.4807
109.435 179.389 35.4922
107.23 176.162 30.9892
110.627 178.837 34.661
103.703 180.916 37.5354
113.275 183.022 11.0095
91.0604 186.523 11.8412
77.6067 188.915 29.1007
91.1563 179.651 32.5081
85.8667 179.903 28.559
99.5565 181.308 12.8655
85.0959 190.046 12.9942
113.548 177.71 17.9941
113.52 179.644 14.4545
78.0384 187.705 21.7833
90.3833 187.398 11.6112
86.6227 189.952 12.1267
91.9856 179.865 33.1476
76.3892 189.202 26.7968
80.0897 188.267 32.5613
91.2368 190.135 9.67878
87.6247 179.831 18.059
113.312 176.654 21.0327
113.32 176.3 27.492
113.404 180.077 36.2664
88.2384 185.23 13.9774
102.75 184.56 42.0901
82.5826 186.182 17.4662
79.4538 188.5 32.0167
80.1307 189.921 16.6556
113.314 183.607 10.4526
113.067 187.161 7.17285
113.569 178.036 17.2529
88.5645 187.541 38.329
80.7907 189.987 16.07
87.8232 187.633 37.9194
113.313 181.004 37.5736
87.0969 187.653 37.4707
113.069 183.863 41.4576
3 0 1 2
3 3 4 5
3 6 7 8
3 9 10 11
3 12 13 14
3 15 16 17
3 6 18 19
3 20 21 22
3 23 24 25
3 26 27 28
3 29 30 31
3 32 33 34
3 35 36 37
3 38 39 40
3 41 42 43
3 44 45 46
3 47 48 42
3 49 50 51
3 52 53 54
3 55 56 57
3 58 59 60
3 61 62 63
3 64 52 65
3 66 67 68
3 69 70 71
3 72 73 74
3 75 76 23
3 77 60 78
3 79 15 80
3 81 82 38
3 83 84 85
3 86 87 88
3 89 90 91
3 92 93 94
3 95 96 97
3 23 76 98
3 99 100 101
3 7 102 103
3 104 105 106
3 107 108 109
3 110 111 112
3 113 114 115
3 66 116 67
3 40 117 118
3 119 39 120
3 121 122 123
3 98 124 125
3 126 127 116
3 128 129 130
3 52 131 65
3 132 133 134
3 135 136 137
3 138 139 140
3 141 108 142
3 143 144 145
3 146 147 148
3 14 149 150
3 151 35 152
3 153 154 155
3 156 157 158
3 159 160 161
3 162 163 164
3 165 166 167
3 45 44 168
3 169 170 171
3 6 167 18
3 27 26 172
3 173 174 175
3 176 177 159
3 160 110 178
3 179 180 181
3 182 21 183
3 157 184 185
3 50 186 187
3 188 41 189
3 68 190 191
3 192 193 194
3 193 195 194
3 196 197 198
3 199 200 201
3 202 188 203
3 204 205 149
3 154 206 207
3 208 209 210
3 211 78 60
3 104 212 107
3 29 213 214
3 215 216 217
3 218 219 220
3 221 222 103
3 223 172 117
3 224 225 226
3 227 228 229
3 230 231 232
3 233 234 235
3 236 237 238
3 239 240 241
3 242 204 149
3 136 195 137
3 243 244 245
3 246 247 248
3 219 249 34
3 250 251 252
3 102 91 90
3 253 163 254
3 255 181 256
3 257 258 259
3 210 209 260
3 261 262 263
3 264 265 266
3 156 267 85
3 268 206 154
3 269 270 271
3 272 273 274
3 34 220 219
3 275 61 276
3 122 277 278
3 279 280 281
3 282 283 129
3 284 285 286
3 21 182 287
3 188 202 41
3 283 130 129
3 192 288 277
3 180 289 290
3 185 291 292
3 84 293 85
3 237 294 295
3 296 297 71
3 298 299 221
3 300 207 83
3 301 302 212
3 303 304 305
3 306 307 308
3 309 310 311
3 61 63 312
3 313 168 314
3 315 316 317
3 318 222 319
3 320 321 322
3 223 323 324
3 89 91 325
3 326 327 328
3 273 329 330
3 331 332 333
3 334 335 336
3 337 338 339
3 52 64 53
3 340 341 342
3 150 205 343
3 344 345 346
3 81 118 347
3 331 348 36
3 349 350 257
3 351 259 258
3 352 353 233
3 350 349 354
3 355 183 356
3 357 291 358
3 359 360 361
3 106 362 317
3 335 363 275
3 364 365 291
3 366 367 368
3 369 370 371
3 131 52 54
3 270 269 372
3 373 349 374
3 111 65 131
3 375 318 340
3 376 377 378
3 379 246 248
3 380 192 194
3 216 215 381
3 363 335 382
3 383 384 294
3 385 386 236
3 102 90 387
3 315 388 316
3 389 390 22
3 268 391 392
3 393 394 191
3 302 142 212
3 132 209 133
3 204 395 205
3 373 227 396
3 397 398 295
3 399 400 401
3 402 322 403
3 404 155 405
3 198 197 406
3 144 407 408
3 381 215 409
3 336 276 410
3 382 334 411
3 412 173 413
3 241 414 415
3 416 162 216
3 314 44 417
3 273 272 418
3 159 302 176
3 419 420 421
3 422 255 423
3 424 47 202
3 425 426 29
3 427 428 429
3 430 431 432
3 433 123 122
3 364 406 197
3 115 244 11
3 434 435 239
3 402 403 298
3 436 437 351
3 438 27 439
3 440 289 179
3 422 413 173
3 441 442 443
3 444 248 247
3 190 445 446
3 447 403 60
3 448 449 450
3 451 221 452
3 212 104 301
3 453 454 455
3 456 457 458
3 459 460 461
3 462 463 464
3 465 466 376
3 467 280 442
3 85 267 83
3 148 147 468
3 384 469 470
3 323 169 324
3 327 471 328
3 276 335 275
3 265 264 472
3 343 473 217
3 474 475 476
3 477 478 479
3 480 481 482
3 148 468 483
3 484 480 485
3 486 487 488
3 429 148 483
3 489 490 491
3 234 492 493
3 494 495 496
3 497 498 499
3 500 501 338
3 502 503 504
3 505 506 507
3 508 509 510
3 511 512 491
3 366 368 513
3 514 515 516
3 517 309 518
3 519 2 1
3 520 521 96
3 522 523 524
3 525 412 413
3 199 184 526
3 372 527 528
3 529 530 471
3 531 532 533
3 435 113 115
3 1 534 535
3 474 536 537
3 377 414 538
3 0 539 1
3 540 541 196
3 443 542 441
3 543 544 545
3 306 546 307
3 547 548 549
3 181 550 551
3 552 553 554
3 555 306 372
3 556 224 226
3 557 489 558
3 148 429 49
3 364 559 406
3 560 553 561
3 562 464 563
3 431 564 262
3 253 565 164
3 270 566 271
3 567 568 569
3 570 297 296
3 571 572 51
3 214 573 574
3 536 575 576
3 510 509 577
3 578 82 101
3 579 580 458
3 581 582 583
3 584 430 432
3 585 14 13
3 424 202 203
3 382 586 363
3 587 588 589
3 590 307 591
3 370 407 144
3 592 535 534
3 593 594 595
3 596 512 597
3 598 168 599
3 600 601 602
3 171 603 207
3 475 604 605
3 511 606 607
3 506 608 609
3 144 408 145
3 217 610 611
3 612 613 614
3 429 483 492
3 615 616 417
3 617 211 618
3 151 619 620
3 479 296 71
3 621 622 623
3 624 625 626
3 515 627 628
3 148 49 146
3 629 630 631
3 497 632 633
3 189 634 348
3 356 635 621
3 636 254 407
3 637 638 639
3 547 640 532
3 337 641 642
3 643 16 644
3 15 645 80
3 646 281 647
3 648 649 556
3 650 507 552
3 338 231 500
3 4 651 652
3 399 653 654
3 496 495 439
3 655 326 656
3 270 306 308
3 657 658 522
3 534 539 659
3 507 506 552
3 37 660 35
3 661 662 663
3 604 664 665
3 666 420 419
3 667 668 456
3 23 669 75
3 128 670 671
3 672 297 570
3 458 457 579
3 544 543 569
3 673 674 147
3 675 676 677
3 678 679 568
3 630 629 680
3 681 170 682
3 458 580 671
3 683 582 581
3 684 685 520
3 686 687 688
3 523 689 690
3 691 486 513
3 140 513 488
3 282 692 283
3 693 694 303
3 513 486 488
3 695 696 271
3 628 697 515
3 390 389 698
3 11 10 699
3 700 701 702
3 531 703 460
3 97 432 431
3 291 357 364
3 704 111 131
3 705 310 706
3 707 224 708
3 196 448 540
3 709 710 711
3 712 713 714
3 40 81 38
3 715 688 99
3 523 631 630
3 278 288 308
3 716 717 624
3 51 50 187
3 718 719 484
3 720 721 230
3 722 697 628
3 723 395 204
3 707 677 724
3 725 726 727
3 728 729 730
3 263 262 564
3 731 732 4
3 186 525 733
3 619 505 734
3 335 334 382
3 717 593 735
3 736 737 682
3 361 487 662
3 738 382 411
3 595 739 593
3 630 680 740
3 624 626 716
3 294 382 383
3 741 293 742
3 719 743 484
3 744 745 525
3 746 747 462
3 748 463 691
3 749 750 751
3 493 328 471
3 13 12 752
3 9 753 10
3 474 754 755
3 756 526 757
3 596 519 512
3 175 758 255
3 545 643 644
3 463 486 691
3 759 537 536
3 685 261 760
3 761 250 656
3 762 456 668
3 551 763 764
3 569 459 544
3 480 482 485
3 711 667 692
3 87 242 48
3 138 765 736
3 16 514 516
3 134 666 419
3 624 700 625
3 129 584 766
3 201 767 184
3 652 602 768
3 769 697 770
3 564 771 263
3 430 305 431
3 772 370 369
3 358 773 774
3 667 775 668
3 245 115 114
3 198 448 196
3 651 4 776
3 692 667 283
3 737 765 742
3 550 180 777
3 778 779 437
3 780 93 92
3 758 440 179
3 518 350 517
3 422 173 175
3 499 781 232
3 372 306 270
3 782 251 503
3 783 248 444
3 784 364 357
3 370 144 143
3 710 785 711
3 614 572 612
3 382 294 586
3 786 787 416
3 739 788 749
3 216 162 217
3 768 676 789
3 343 611 680
3 790 791 792
3 191 394 66
3 261 263 666
3 618 60 403
3 793 781 794
3 795 521 520
3 32 249 796
3 89 325 615
3 242 87 797
3 798 799 347
3 472 264 198
3 408 407 787
3 800 328 493
3 676 801 802
3 803 804 587
3 805 315 362
3 279 86 88
3 806 720 793
3 354 373 396
3 434 113 435
3 313 725 807
3 808 809 810
3 424 811 812
3 590 278 307
3 497 813 498
3 3 814 643
3 101 82 99
3 3 545 815
3 520 546 795
3 689 630 740
3 518 805 816
3 426 817 617
3 25 818 23
3 723 9 395
3 818 819 509
3 220 415 820
3 808 794 809
3 456 283 667
3 533 477 728
3 767 773 358
3 749 821 739
3 822 375 145
3 346 345 674
3 489 557 823
3 824 825 780
3 225 802 693
3 817 426 425
3 558 489 535
3 620 35 151
3 142 302 141
3 826 337 632
3 827 828 706
3 584 129 128
3 519 1 512
3 829 830 669
3 275 108 141
3 69 831 832
3 700 624 622
3 121 123 133
3 608 13 752
3 105 258 106
3 833 613 53
3 533 478 477
3 834 780 825
3 84 603 681
3 309 833 518
3 835 741 602
3 756 757 156
3 417 616 726
3 836 366 139
3 211 617 837
3 282 129 766
3 838 475 605
3 774 831 784
3 497 633 839
3 840 786 416
3 600 602 741
3 708 649 671
3 413 841 733
3 842 545 544
3 229 396 227
3 72 114 73
3 337 642 843
3 184 757 526
3 616 796 249
3 844 845 380
3 846 843 847
3 331 35 620
3 848 547 849
3 235 850 392
3 10 329 699
3 545 3 643
3 578 120 38
3 812 442 280
3 767 729 773
3 851 852 161
3 394 853 66
3 21 20 183
3 579 480 743
3 496 223 324
3 854 214 855
3 426 321 29
3 395 409 215
3 462 487 486
3 856 659 857
3 419 747 746
3 623 821 356
3 245 244 115
3 137 195 193
3 584 648 430
3 194 333 332
3 269 806 808
3 576 583 759
3 478 533 640
3 858 859 860
3 734 507 641
3 208 121 133
3 242 723 204
3 788 750 749
3 861 260 862
3 190 68 445
3 863 46 45
3 737 864 681
3 332 865 844
3 330 797 646
3 261 433 760
3 174 449 266
3 866 867 363
3 868 869 870
3 137 193 210
3 686 871 872
3 361 360 873
3 663 662 421
3 468 147 674
3 153 268 154
3 542 715 874
3 875 281 467
3 744 876 745
3 741 742 877
3 751 878 749
3 879 880 14
3 299 59 319
3 436 249 219
3 232 632 497
3 824 479 869
3 715 881 874
3 882 460 883
3 869 479 478
3 442 811 443
3 376 466 229
3 499 232 497
3 318 455 340
3 115 11 435
3 666 123 433
3 682 836 736
3 642 641 650
3 75 669 830
3 352 540 884
3 406 472 198
3 70 479 71
3 606 490 885
3 397 855 213
3 843 642 847
3 823 557 886
3 250 761 887
3 161 160 851
3 414 820 415
3 556 649 224
3 752 561 608
3 311 833 309
3 565 253 714
3 6 19 7
3 100 688 687
3 888 554 658
3 7 103 8
3 16 79 514
3 509 508 818
3 840 889 890
3 372 810 527
3 253 254 636
3 343 205 473
3 536 576 759
3 565 689 740
3 189 136 135
3 743 891 580
3 892 498 813
3 107 105 104
3 54 67 131
3 761 893 894
3 423 256 285
3 166 74 18
3 92 570 780
3 885 823 895
3 114 32 73
3 211 896 78
3 897 898 153
3 899 674 673
3 900 583 576
3 189 41 634
3 374 227 373
3 535 512 1
3 363 867 275
3 526 731 199
3 814 3 5
3 901 854 855
3 546 591 307
3 325 73 796
3 678 568 902
3 221 451 298
3 395 215 473
3 723 797 753
3 503 274 782
3 801 676 768
3 155 404 153
3 439 495 529
3 305 556 226
3 472 903 265
3 787 163 416
3 734 501 619
3 904 24 783
3 694 661 663
3 470 855 384
3 559 784 905
3 27 172 439
3 118 798 347
3 812 811 442
3 150 343 680
3 727 726 436
3 349 373 354
3 748 563 463
3 802 225 724
3 771 421 420
3 906 495 494
3 536 755 907
3 908 266 265
3 121 909 277
3 185 184 767
3 910 427 876
3 32 34 249
3 815 545 842
3 158 911 267
3 192 380 288
3 348 634 36
3 912 484 485
3 533 730 531
3 913 877 765
3 911 155 300
3 608 561 609
3 751 914 878
3 4 815 731
3 750 788 96
3 760 591 685
3 752 629 561
3 844 865 915
3 916 917 20
3 918 17 675
3 12 150 680
3 321 320 213
3 328 345 344
3 796 73 32
3 62 302 161
3 919 62 161
3 329 753 330
3 176 301 316
3 709 716 920
3 287 355 749
3 875 647 281
3 921 152 660
3 567 922 902
3 905 784 577
3 299 319 222
3 923 843 846
3 261 685 684
3 924 632 843
3 416 163 162
3 871 925 443
3 925 926 688
3 659 604 927
3 571 51 187
3 362 258 257
3 119 323 39
3 444 247 289
3 261 666 433
3 579 743 580
3 405 155 911
3 217 473 215
3 871 443 811
3 57 642 650
3 792 928 790
3 551 792 791
3 532 531 882
3 867 866 599
3 402 929 930
3 510 71 297
3 767 358 185
3 346 899 893
3 931 587 804
3 166 890 72
3 932 933 934
3 916 759 917
3 255 758 181
3 935 80 645
3 109 867 599
3 147 637 673
3 641 507 650
3 540 897 541
3 906 206 392
3 677 676 724
3 387 936 929
3 413 422 937
3 589 803 587
3 372 269 810
3 924 843 923
3 770 697 722
3 836 367 366
3 429 492 427
3 632 924 633
3 346 761 344
3 474 938 475
3 493 492 800
3 408 165 145
3 666 263 420
3 318 8 222
3 532 548 547
3 483 800 492
3 48 242 149
3 441 401 400
3 262 684 95
3 154 300 155
3 884 745 352
3 811 203 872
3 210 909 208
3 939 453 455
3 805 940 315
3 8 318 375
3 586 294 237
3 232 826 632
3 871 811 872
3 941 567 769
3 646 279 281
3 753 9 723
3 156 757 157
3 393 191 942
3 747 662 487
3 200 461 703
3 587 558 592
3 690 689 713
3 698 858 390
3 700 702 625
3 915 695 845
3 762 943 457
3 934 944 932
3 634 43 37
3 240 418 945
3 153 898 268
3 199 731 946
3 121 277 122
3 562 260 209
3 515 514 718
3 930 929 238
3 18 167 166
3 435 11 699
3 893 899 466
3 418 699 329
3 673 637 396
3 64 65 177
3 761 894 887
3 228 414 377
3 86 279 646
3 5 789 675
3 419 421 662
3 15 918 677
3 232 781 230
3 486 463 462
3 397 295 384
3 620 619 947
3 691 513 368
3 543 769 569
3 321 426 322
3 365 196 404
3 277 909 192
3 186 910 744
3 941 922 567
3 600 913 360
3 828 49 51
3 696 806 269
3 902 568 567
3 657 522 948
3 475 938 588
3 423 284 937
3 503 272 274
3 239 435 699
3 62 61 141
3 69 577 831
3 469 383 949
3 610 740 611
3 105 351 258
3 228 374 778
3 530 235 234
3 779 778 374
3 899 346 674
3 936 236 238
3 538 378 377
3 464 132 746
3 583 917 759
3 237 295 398
3 773 832 774
3 807 725 727
3 869 868 824
3 631 522 560
3 231 230 500
3 152 921 505
3 104 106 301
3 950 759 916
3 160 951 851
3 600 360 952
3 594 953 595
3 61 312 954
3 318 319 455
3 738 949 383
3 45 236 863
3 47 88 87
3 724 225 707
3 287 749 878
3 517 310 309
3 588 604 475
3 550 955 763
3 565 610 164
3 766 584 432
3 586 237 386
3 794 956 809
3 313 105 107
3 53 64 940
3 858 527 810
3 323 119 169
3 168 313 599
3 931 557 558
3 217 611 343
3 861 862 686
3 282 953 594
3 206 171 207
3 819 818 25
3 402 298 451
3 55 554 888
3 434 239 241
3 501 500 957
3 694 663 303
3 958 499 498
3 772 636 370
3 325 74 73
3 163 787 254
3 708 645 707
3 225 224 707
3 564 305 304
3 739 623 735
3 706 639 638
3 352 898 897
3 103 222 8
3 940 518 833
3 387 90 863
3 226 303 305
3 832 728 70
3 83 207 603
3 291 365 405
3 591 546 520
3 872 203 188
3 121 208 909
3 641 339 734
3 133 209 208
3 705 51 572
3 855 397 384
3 522 631 523
3 950 916 803
3 732 731 526
3 874 81 347
3 751 521 795
3 33 434 415
3 87 48 47
3 836 120 367
3 385 866 386
3 438 439 529
3 760 433 590
3 675 17 814
3 807 727 351
3 317 301 106
3 287 878 959
3 562 563 687
3 636 714 253
3 450 449 174
3 904 903 819
3 603 170 681
3 24 904 25
3 97 431 95
3 160 178 951
3 110 177 65
3 365 197 196
3 867 108 275
3 688 926 686
3 399 654 400
3 716 626 920
3 21 287 389
3 648 584 128
3 283 456 670
3 110 160 177
3 401 874 347
3 214 854 573
3 866 363 386
3 32 114 113
3 745 876 353
3 572 446 612
3 418 240 239
3 660 152 35
3 574 29 214
3 106 258 362
3 116 131 67
3 376 229 377
3 764 792 551
3 614 613 311
3 437 259 351
3 330 646 647
3 717 594 593
3 391 233 235
3 39 323 223
3 663 421 304
3 412 174 173
3 132 464 562
3 546 555 795
3 588 938 589
3 109 599 313
3 814 5 675
3 276 954 410
3 552 554 57
3 600 952 601
3 251 782 654
3 528 527 698
3 873 488 487
3 319 59 960
3 175 174 266
3 57 650 552
3 109 108 867
3 663 304 303
3 613 961 53
3 501 957 947
3 284 423 285
3 848 962 640
3 666 134 123
3 224 649 708
3 403 447 298
3 733 525 413
3 91 19 74
3 140 873 138
3 963 359 661
3 416 216 840
3 378 945 502
3 741 877 600
3 402 320 322
3 964 776 756
3 623 739 821
3 348 331 333
3 384 383 469
3 220 34 33
3 37 36 634
3 214 213 855
3 769 516 697
3 243 381 244
3 620 947 865
3 448 264 449
3 718 79 719
3 437 436 965
3 966 792 764
3 787 786 165
3 721 695 957
3 712 714 967
3 107 109 313
3 87 86 797
3 748 100 563
3 504 894 465
3 593 739 735
3 637 354 396
3 883 459 568
3 745 884 450
3 959 698 389
3 143 342 968
3 534 927 592
3 218 820 778
3 370 636 407
3 964 756 156
3 23 969 669
3 952 359 963
3 475 838 476
3 916 20 804
3 665 605 604
3 417 726 725
3 683 701 582
3 970 54 961
3 745 353 352
3 325 796 616
3 228 820 414
3 466 899 673
3 406 559 472
3 942 971 393
3 689 565 714
3 956 895 809
3 139 366 513
3 972 694 693
3 671 935 708
3 177 388 64
3 97 96 788
3 959 528 698
3 383 382 738
3 930 238 398
3 677 645 15
3 725 314 417
3 137 861 135
3 392 850 906
3 74 19 18
3 942 191 190
3 799 798 26
3 919 161 852
3 42 202 47
3 699 418 239
3 973 824 868
3 679 974 883
3 120 836 119
3 116 127 975
3 659 539 857
3 531 730 703
3 20 917 183
3 971 942 790
3 896 211 837
3 610 565 740
3 566 695 271
3 194 332 844
3 654 653 251
3 108 107 142
3 876 427 976
3 776 835 651
3 350 354 639
3 265 904 908
3 252 251 653
3 361 661 359
3 141 61 275
3 913 600 877
3 249 726 616
3 821 355 356
3 623 356 621
3 958 498 932
3 910 186 50
3 977 523 690
3 642 57 978
3 606 979 607
3 122 590 433
3 374 228 227
3 279 88 812
3 530 850 235
3 200 946 461
3 86 646 797
3 791 256 551
3 140 139 513
3 140 488 873
3 421 771 304
3 548 883 974
3 315 940 388
3 957 500 721
3 805 362 816
3 390 860 22
3 750 96 521
3 397 930 398
3 543 644 516
3 980 841 284
3 783 908 904
3 542 925 715
3 96 95 684
3 711 785 667
3 556 305 430
3 17 918 15
3 3 815 4
3 506 553 552
3 446 572 980
3 172 496 439
3 802 963 972
3 423 255 256
3 844 915 845
3 213 320 397
3 117 40 223
3 816 362 257
3 594 717 692
3 594 692 282
3 194 195 333
3 953 97 788
3 404 405 365
3 554 553 560
3 492 234 976
3 554 55 57
3 810 809 858
3 512 511 597
3 590 591 760
3 861 210 260
3 978 847 642
3 640 533 532
3 728 832 729
3 781 793 230
3 125 24 23
3 167 822 145
3 114 889 245
3 479 70 477
3 981 582 621
3 491 535 489
3 440 758 982
3 402 451 929
3 669 92 829
3 427 492 976
3 190 284 286
3 415 434 241
3 28 799 26
3 913 765 138
3 942 190 286
3 45 598 385
3 358 291 185
3 795 914 751
3 68 970 445
3 273 647 274
3 786 890 166
3 935 671 580
3 806 696 720
3 696 695 721
3 94 829 92
3 25 904 819
3 171 906 494
3 276 61 954
3 495 530 529
3 66 126 116
3 223 40 39
3 205 150 149
3 345 483 468
3 936 863 236
3 480 484 743
3 44 314 168
3 154 207 300
3 64 388 940
3 368 748 691
3 91 102 7
3 549 548 983
3 412 450 174
3 347 399 401
3 872 135 861
3 201 184 199
3 903 472 559
3 784 831 577
3 460 459 883
3 564 431 305
3 63 62 919
3 958 932 885
3 474 476 754
3 827 146 828
3 957 915 947
3 344 326 328
3 480 457 481
3 247 246 984
3 297 672 508
3 612 961 613
3 123 134 133
3 536 474 755
3 8 822 6
3 234 233 976
3 859 858 809
3 56 978 57
3 74 166 72
3 293 741 835
3 58 985 59
3 609 561 553
3 132 562 209
3 561 629 631
3 629 752 680
3 465 378 504
3 316 388 177
3 892 933 498
3 53 940 833
3 744 910 876
3 28 27 655
3 230 721 500
3 759 950 537
3 886 557 860
3 347 799 399
3 461 460 703
3 670 130 283
3 732 776 4
3 238 929 936
3 400 875 467
3 566 308 288
3 598 599 866
3 587 931 558
3 375 143 145
3 248 125 124
3 864 293 84
3 59 447 60
3 5 4 652
3 982 758 175
3 807 351 105
3 959 914 528
3 315 317 362
3 85 964 156
3 749 355 821
3 79 718 514
3 706 638 827
3 614 311 310
3 962 869 640
3 958 794 781
3 825 824 973
3 489 823 490
3 617 817 986
3 351 727 436
3 945 272 502
3 81 874 881
3 83 603 84
3 660 37 43
3 256 181 551
3 471 530 493
3 863 90 46
3 228 377 229
3 824 780 296
3 790 928 971
3 921 585 13
3 389 22 21
3 72 889 114
3 965 219 218
3 861 686 872
3 687 686 862
3 685 591 520
3 113 33 32
3 409 395 9
3 328 800 345
3 387 452 102
3 17 16 643
3 391 268 898
3 171 206 906
3 292 405 911
3 746 462 464
3 818 508 969
3 598 866 385
3 761 656 326
3 233 898 352
3 523 977 524
3 101 100 748
3 213 29 321
3 438 326 655
3 517 350 639
3 340 342 143
3 162 164 610
3 648 556 430
3 329 10 753
3 795 555 914
3 879 585 43
3 79 891 719
3 112 178 110
3 252 799 28
3 719 891 743
3 310 517 706
3 711 716 709
3 608 921 13
3 297 508 510
3 490 511 491
3 859 895 886
3 948 522 524
3 210 861 137
3 165 167 145
3 649 648 128
3 478 640 869
3 505 507 734
3 925 871 926
3 169 119 170
3 103 452 221
3 182 355 287
3 927 534 659
3 547 549 849
3 946 842 461
3 151 152 505
3 568 679 883
3 636 772 987
3 31 425 29
3 525 186 744
3 320 402 930
3 431 262 95
3 292 911 158
3 746 134 419
3 794 958 956
3 980 284 446
3 689 523 630
3 879 43 42
3 871 686 926
3 378 465 376
3 968 370 143
3 467 281 280
3 374 349 779
3 965 218 778
3 415 220 33
3 101 748 368
3 770 941 769
3 529 471 327
3 120 578 367
3 484 988 718
3 982 175 266
3 251 504 503
3 17 643 814
3 677 707 645
3 247 984 989
3 503 502 272
3 910 428 427
3 881 99 82
3 859 809 895
3 960 939 319
3 560 561 631
3 136 348 333
3 102 452 103
3 438 655 27
3 550 763 551
3 338 501 339
3 905 577 509
3 147 827 638
3 697 516 515
3 778 820 228
3 19 91 7
3 835 602 651
3 529 327 438
3 908 444 440
3 85 293 964
3 563 464 463
3 611 740 680
3 908 783 444
3 11 409 9
3 975 704 131
3 969 508 672
3 682 119 836
3 990 718 988
3 201 729 767
3 496 172 223
3 390 858 860
3 82 578 38
3 128 130 670
3 59 985 960
3 618 322 617
3 267 156 158
3 408 787 165
3 811 424 203
3 157 757 184
3 927 604 588
3 734 339 501
3 698 527 858
3 624 717 622
3 337 826 338
3 693 303 226
3 588 587 592
3 269 271 696
3 731 842 946
3 59 299 447
3 316 301 317
3 538 414 241
3 364 197 365
3 372 528 555
3 660 585 921
3 989 290 289
3 68 67 970
3 864 742 293
3 451 387 929
3 261 684 262
3 257 259 779
3 179 289 180
3 622 717 735
3 797 723 242
3 956 958 885
3 602 652 651
3 572 614 705
3 375 822 8
3 682 170 119
3 595 953 788
3 349 257 779
3 716 711 717
3 159 177 160
3 49 429 428
3 294 384 295
3 392 206 268
3 117 798 118
3 459 461 544
3 580 891 935
3 522 554 560
3 380 194 844
3 932 606 885
3 14 150 12
3 221 299 222
3 302 62 141
3 937 422 423
3 92 672 570
3 927 588 592
3 887 894 504
3 311 613 833
3 260 562 687
3 729 832 773
3 639 354 637
3 124 379 248
3 962 870 869
3 835 964 293
3 688 100 99
3 46 89 615
3 810 269 808
3 980 571 841
3 252 656 250
3 687 862 260
3 443 925 542
3 273 418 329
3 806 793 794
3 850 495 906
3 159 161 302
3 917 981 635
3 890 786 840
3 79 80 891
3 28 656 252
3 583 582 981
3 502 504 378
3 220 820 218
3 806 794 808
3 441 400 467
3 571 980 572
3 151 505 619
3 346 893 761
3 903 904 265
3 91 74 325
3 672 669 969
3 400 654 875
3 607 991 511
3 495 850 530
3 517 639 706
3 828 705 706
3 853 126 66
3 494 324 169
3 190 446 284
3 43 634 41
3 781 499 958
3 157 185 292
3 455 319 939
3 361 873 487
3 654 782 875
3 192 909 193
3 826 232 231
3 946 200 199
3 751 750 521
3 497 839 813
3 14 880 149
3 157 292 158
3 541 153 404
3 49 428 50
3 147 638 637
3 289 247 989
3 804 22 931
3 424 88 47
3 278 590 122
3 986 837 617
3 582 701 700
3 577 69 510
3 434 33 113
3 53 961 54
3 563 100 687
3 736 139 138
3 913 873 360
3 598 45 168
3 568 459 569
3 470 901 855
3 774 784 357
3 928 792 966
3 819 903 559
3 454 340 455
3 255 422 175
3 138 873 913
3 705 828 51
3 670 458 671
3 282 766 953
3 933 932 498
3 280 279 812
3 992 718 990
3 512 535 491
3 350 816 257
3 823 886 895
3 22 804 20
3 287 959 389
3 299 298 447
3 739 595 788
3 107 212 142
3 807 105 313
3 761 326 344
3 353 876 976
3 186 733 187
3 506 921 608
3 395 473 205
3 798 117 26
3 550 777 955
3 938 474 537
3 169 171 494
3 538 240 945
3 325 616 615
3 16 15 79
3 618 211 60
3 914 959 878
3 189 348 136
3 860 931 22
3 308 566 270
3 655 656 28
3 680 752 12
3 931 860 557
3 259 437 779
3 635 356 183
3 887 251 250
3 139 736 836
3 540 448 884
3 586 386 363
3 589 950 803
3 938 537 589
3 273 330 647
3 49 828 146
3 16 516 644
3 36 35 331
3 675 677 918
3 937 284 841
3 381 409 244
3 708 935 645
3 418 272 945
3 310 705 614
3 818 969 23
3 947 915 865
3 545 644 543
3 266 449 264
3 398 238 237
3 961 445 970
3 897 153 541
3 801 768 952
3 737 681 682
3 128 671 649
3 441 467 442
3 345 800 483
3 80 935 891
3 601 768 602
3 183 355 182
3 338 826 231
3 621 635 981
3 380 845 566
3 387 863 936
3 603 171 170
3 438 327 326
3 952 360 359
3 622 621 700
3 768 601 952
3 735 623 622
3 589 537 950
3 879 14 585
3 412 745 450
3 879 42 48
3 676 802 724
3 97 953 432
3 413 937 841
3 956 885 895
3 110 65 111
3 352 897 540
3 92 669 672
3 802 801 963
3 46 615 44
3 558 535 592
3 364 784 559
3 730 533 728
3 747 487 462
3 765 877 742
3 407 254 787
3 812 88 424
3 539 0 993
3 134 746 132
3 974 983 548
3 457 456 762
3 50 428 910
3 243 216 381
3 345 468 674
3 350 518 816
3 730 200 703
3 915 957 695
3 54 970 67
3 944 979 606
3 466 465 893
3 460 882 531
3 426 617 322
3 982 908 440
3 243 840 216
3 444 289 440
3 944 606 932
3 243 889 840
3 386 237 236
3 236 45 385
3 747 419 662
3 912 988 484
3 143 375 340
3 526 756 732
3 480 579 457
3 972 661 694
3 249 436 726
3 302 301 176
3 135 188 189
3 125 783 24
3 875 274 647
3 539 993 857
3 477 70 728
3 403 322 618
3 276 336 335
3 815 842 731
3 673 396 229
3 525 745 412
3 659 856 604
3 361 662 661
3 304 771 564
3 789 676 675
3 542 401 441
3 620 865 332
3 882 548 532
3 890 889 72
3 900 581 583
3 165 786 166
3 188 135 872
3 756 776 732
3 528 914 555
3 60 77 58
3 790 286 285
3 417 44 615
3 652 768 789
3 177 176 316
3 582 700 621
3 225 693 226
3 789 5 652
3 802 972 693
3 505 921 506
3 466 673 229
3 555 546 306
3 982 266 908
3 684 520 96
3 771 420 263
3 277 288 278
3 566 845 695
3 945 378 538
3 976 233 353
3 766 432 953
3 660 43 585
3 409 11 244
3 880 48 149
3 370 968 371
3 905 819 559
3 911 300 267
3 905 509 819
3 827 147 146
3 835 776 964
3 793 720 230
3 331 620 332
3 943 481 457
3 341 340 454
3 823 885 490
3 401 542 874
3 714 713 689
3 445 961 612
3 538 241 240
3 99 881 715
3 101 368 578
3 721 720 696
3 965 436 219
3 785 775 667
3 405 292 291
3 681 864 84
3 46 90 89
3 769 543 516
3 530 234 493
3 972 963 661
3 834 93 780
3 300 83 267
3 737 736 765
3 164 163 253
3 39 38 120
3 975 131 116
3 541 404 196
3 118 81 40
3 824 296 479
3 494 496 324
3 193 909 210
3 290 777 180
3 917 635 183
3 822 167 6
3 387 451 452
3 907 575 536
3 967 636 987
3 285 256 791
3 570 296 780
3 501 947 619
3 799 653 399
3 992 627 515
3 191 66 68
3 898 233 391
3 991 597 511
3 952 963 801
3 125 23 98
3 339 641 337
3 831 774 832
3 465 894 893
3 887 504 251
3 965 778 437
3 733 841 571
3 367 578 368
3 288 380 566
3 571 187 733
3 930 397 320
3 42 41 202
3 799 252 653
3 550 181 180
3 69 71 510
3 860 859 886
3 606 511 490
3 264 448 198
3 456 458 670
3 692 717 711
3 69 832 70
3 307 278 308
3 574 30 29
3 506 609 553
3 515 718 992
3 790 942 286
3 243 245 889
3 461 842 544
3 548 882 883
3 884 448 450
3 200 730 201
3 848 640 547
3 48 880 879
3 583 981 917
3 725 313 314
3 117 172 26
3 916 804 803
3 162 610 217
3 337 843 632
3 967 714 636
3 664 604 856
3 805 518 940
3 729 201 730
3 758 179 181
3 774 357 358
3 925 688 715
3 82 81 881
3 753 797 330
3 554 522 658
3 391 235 392
3 285 791 790
3 782 274 875
3 539 534 1
3 446 445 612
3 333 195 136
3 569 769 567
3 864 737 742
3 248 783 125
