ply
format ascii 1.0
element vertex 994
property float x
property float y
property float z
element face 1828
property list uchar uint vertex_indices
end_header
-14.0068 33.3771 6.038
-14.1041 32.6871 6.698
-14.1539 33.9841 6.607
-8.2829 9.5424 6.182
-7.0575 9.4824 7.325
-8.0935 10.5445 7.108
10.2927 29.5711 9.935
11.1108 29.1171 9.086
10.7724 30.6161 9.38
5.2458 25.2181 14.767
5.7687 24.2171 14.505
6.5125 24.8581 13.853
1.5775 29.0241 15.56
0.2365 28.8621 15.739
1.1219 27.7521 15.905
-10.7719 12.0445 5.193
-10.5867 10.5953 4.405
-9.876 11.0582 5.489
9.7753 28.6021 10.526
10.5251 28.2791 9.736
-14.6688 26.4021 6.336
-13.8279 25.9511 7.091
-13.563 27.2711 7.385
3.6206 2.2565 1.164
4.3589 3.3756 1.939
3.6044 3.3494 2.541
2.6983 15.3097 15.368
3.3674 14.5354 14.702
3.866 15.7639 15.224
17.2697 32.1311 2.379
18.1524 31.8791 1.138
17.6572 33.5551 1.826
9.4328 24.8531 10.829
8.9018 23.5921 11.322
9.7138 23.7461 10.443
-3.0636 27.3161 15.535
-2.9982 26.1591 15.678
-2.045 26.6511 15.877
-1.0703 15.269 15.56
-0.624 14.1424 14.801
0.1462 15.0003 15.437
-1.2911 24.8131 16.143
-0.072 25.2631 16.265
-0.9638 26.2501 16.111
12.6993 25.1441 7.26
13.4996 25.7901 6.436
12.6131 26.3281 7.467
0.6925 24.2791 16.278
1.3382 25.5041 16.153
8.3646 13.3107 8.506
8.2817 12.2199 7.827
9.1959 12.9926 7.033
13.3568 15.6304 2.684
12.5231 15.5506 3.941
12.8387 14.686 2.774
-1.8233 34.4021 14.085
-2.5777 34.3861 14.041
-2.452 33.2331 14.36
12.898 34.1571 6.999
12.5531 32.9701 7.403
13.657 32.9571 6.254
16.2937 21.6343 2.259
15.8605 20.466 2.226
16.4501 20.6284 0.953
13.3623 16.5494 3.386
14.0435 16.2229 1.994
12.7393 12.6184 1.203
12.8721 13.7578 1.975
12.0668 12.5432 2.31
-0.9801 3.4862 3.832
-2.2879 3.217 3.54
-1.2332 2.5914 2.916
9.0683 27.0771 11.292
9.6984 26.1751 10.595
10.0014 27.3461 10.301
3.2374 1.2326 -0.257
3.9708 1.6438 -0.225
13.4601 34.1951 6.41
14.0194 34.2561 5.812
-11.6628 11.7183 4.008
-11.5598 12.8567 4.826
-0.1762 16.3726 15.967
-1.6204 16.4404 15.938
-1.6325 9.8074 10.563
-2.6961 10.3552 11.1
-3.1176 9.4594 10.078
2.5184 23.4361 15.96
2.0231 24.4181 16.045
1.3262 23.3111 16.257
11.7155 26.7661 8.464
12.344 27.5111 7.799
11.2121 27.6771 9.012
0.8299 0.7305 0.892
0 0 0
0.8704 0.1055 -0.141
-11.3763 20.1963 8.784
-11.7492 21.3488 8.58
-12.2971 20.2006 7.889
4.6973 2.0362 -0.17
-2.1744 17.712 16.003
-3.3436 18.1696 15.603
-2.9169 16.7711 15.742
11.9601 28.5571 8.209
11.666 29.9441 8.461
13.7206 20.7943 5.482
13.0138 21.4232 6.412
13.1262 20.0419 5.988
14.0222 21.8106 5.328
15.0424 22.3146 4.229
14.2861 22.8041 5.156
14.64 16.9936 1.563
14.6461 15.775 0.402
14.9056 16.4671 0.529
8.3743 24.5141 11.944
8.6621 25.7631 11.688
7.6404 25.1741 12.777
13.3838 13.8373 1.113
1.4332 14.9304 15.352
0.8699 15.9738 15.8
-1.4731 13.0403 13.906
-1.8093 14.219 14.853
-7.0591 21.829 13.111
-7.9376 22.1334 12.308
-7.6533 20.8294 12.358
5.4454 2.4375 -0.26
4.8488 2.906 0.988
13.4303 12.8614 0.107
13.8013 13.5976 0.169
-12.7813 16.7358 5.7
-13.4227 17.9272 5.656
-13.6891 17.2567 5.016
13.7154 14.9955 1.524
-6.1441 19.5105 13.57
-6.6822 20.5937 13.251
-7.2441 19.5715 12.481
-3.0426 22.9671 15.855
-3.7414 23.9441 15.605
-4.3625 22.8611 15.353
-5.1454 13.5486 12.786
-4.2922 13.9214 13.838
-5.2403 14.5253 13.227
15.5886 21.3829 3.281
14.8751 21.2408 4.204
8.9696 32.8151 11.153
8.346 32.1791 11.778
9.0455 31.1841 11.184
8.5422 14.4138 9.03
8.4588 15.4753 9.952
7.8821 14.0082 9.746
2.2817 26.7451 15.831
2.4357 28.2621 15.501
-3.4886 28.3541 15.188
-2.3541 28.4261 15.497
1.9727 8.813 9.379
0.7713 9.4558 10.206
0.556 8.4915 9.116
-3.333 8.4743 8.943
-2.7835 7.3905 7.826
-2.0839 8.0051 8.669
14.8895 18.8188 2.628
15.0551 18.0552 1.697
15.5672 19.3487 1.879
5.793 29.5461 13.894
6.4176 30.5851 13.379
5.4485 30.9131 13.798
8.5761 29.9571 11.769
9.0294 28.5201 11.321
9.361 29.7921 10.917
13.3974 24.3461 6.357
-0.2538 12.3075 13.219
-1.3009 11.8512 12.787
0.0746 11.2932 12.179
2.1399 14.1297 14.669
7.4453 8.4372 5.348
6.4528 7.6819 5.471
7.2387 7.4665 4.323
14.403 19.0005 3.54
14.1995 17.6393 2.845
15.2202 17.1301 0.537
7.9122 6.2204 2.105
8.5833 6.0533 1.13
8.8273 7.1598 2.254
-13.9451 24.9911 6.835
-14.7192 25.0791 6.108
-3.8266 6.7252 6.842
-2.1185 6.6104 7.033
7.9105 10.9961 7.351
8.7186 11.8258 6.846
-1.8012 23.4261 16.094
-2.5298 24.2611 15.904
11.2136 11.5866 2.85
12.0623 11.5719 1.454
-6.5063 23.8911 13.757
-5.5267 23.3281 14.565
-5.7265 24.7661 14.471
-4.862 24.0141 15.074
2.8384 7.1936 7.459
2.1995 6.4577 6.718
3.5512 6.4523 6.341
-5.2252 6.9071 6.103
-5.5964 6.0845 4.957
-4.3427 5.8409 5.57
-0.547 24.0001 16.25
-1.0227 22.6891 16.263
3.4553 26.2281 15.501
3.4119 27.3571 15.379
1.0416 10.4674 11.282
-0.2781 10.1849 11.026
-6.0932 21.5374 13.936
-5.6468 20.6022 14.286
-5.1445 21.9836 14.788
14.5416 33.2091 5.309
14.4369 20.6355 4.552
16.823 30.4241 3.048
17.5667 30.5861 2.182
5.3849 27.4511 14.435
6.2981 28.3371 13.798
4.8964 28.8391 14.442
9.79 21.7513 10.095
10.2388 22.8231 9.745
9.3627 22.5721 10.703
12.5115 30.5071 7.549
11.5749 31.2431 8.501
0.7977 13.9601 14.648
-10.9967 15.5493 7.013
-10.0699 14.9264 7.683
-10.3813 16.1983 8.09
9.1901 18.9024 10.337
9.0079 19.9813 10.693
8.4563 18.4806 11.079
-7.7708 30.1341 12.696
-7.0198 30.7661 13.248
-7.6648 31.6911 12.741
4.6532 10.1941 10.187
5.2089 11.3333 11.213
3.9652 10.9119 11.37
14.3342 26.6121 5.561
15.4222 26.8051 4.357
14.7652 27.8151 5.183
7.158 22.7931 13.146
7.0421 21.6738 13.184
7.8216 21.8867 12.338
2.7323 25.3251 15.805
7.2049 27.1931 13.236
6.9042 25.9911 13.578
7.7806 26.1671 12.653
6.8122 3.4026 -0.147
6.9095 4.3091 0.857
5.9102 3.5641 0.921
10.5247 24.0221 9.569
5.2534 16.9463 14.502
4.8952 18.2673 14.978
4.374 16.8858 15.268
5.7002 32.0581 13.448
6.6939 31.6891 13.02
8.4397 7.9037 3.495
9.3874 8.3158 2.663
11.5528 19.094 7.651
12.353 20.2495 7.004
11.566 20.3141 7.904
-4.6498 20.7711 15.099
-9.4893 20.5129 10.556
-10.4174 19.7897 9.58
-9.4224 19.4235 10.446
4.6766 6.3597 5.486
4.7886 5.491 4.248
5.838 6.5229 4.593
-1.9456 8.8983 9.552
2.0771 9.7742 10.4
-9.328 27.2411 11.258
-9.0563 25.8181 11.587
-8.3934 26.7231 12.174
5.8014 20.8861 14.517
5.1886 21.8961 14.951
4.7427 20.6628 15.176
15.9145 22.8511 3.321
16.579 22.7551 2.229
-7.2801 23.1061 13.031
-8.2243 23.4491 12.196
2.1217 22.3794 16.109
1.7746 21.4289 16.195
2.9372 21.421 15.857
-14.0659 18.8885 5.499
-14.4983 17.8087 4.437
10.0552 10.7171 3.864
10.0976 9.6233 2.859
10.7786 10.4915 2.636
-13.1448 24.7891 7.54
-7.5483 24.3571 12.841
7.579 5.2358 1.208
8.526 5.3045 -0.109
-0.3114 6.5708 6.999
-1.2542 7.3139 7.823
-4.2901 10.244 10.604
16.3947 26.5321 3.192
16.244 27.6351 3.527
-1.3215 1.6936 1.958
0.0027 2.1603 2.382
13.4035 30.8261 6.601
12.4167 31.7071 7.6
-0.5523 9.1675 9.906
14.0251 19.7196 4.606
15.0517 20.099 3.318
-9.776 16.6703 9.129
-9.6308 17.5271 9.801
-10.6638 17.6016 8.603
-9.6072 24.7841 10.971
-9.2067 23.7521 11.277
-8.5896 24.6491 11.975
11.1582 15.9898 6.287
10.4484 15.0701 6.695
11.1462 15.0939 5.672
16.6 21.3201 0.989
13.3568 22.9241 6.221
12.7857 23.9361 7.002
12.9252 18.0983 5.137
13.7385 18.4561 4.175
13.2807 19.1072 5.309
10.7175 31.9371 9.378
11.5974 32.6871 8.413
15.7546 30.2681 4.182
16.3077 31.3651 3.519
15.3623 31.5361 4.536
-0.2853 13.2757 14.105
0.71 12.9473 13.808
10.8033 26.3571 9.422
5.4824 14.7991 13.722
5.1108 13.6671 13.449
5.9736 13.826 12.582
5.5277 23.0621 14.731
4.3988 22.8881 15.355
-4.0018 26.2811 15.302
-5.0694 26.0201 14.865
-4.5143 25.0681 15.188
17.1638 24.2061 1.165
16.5797 23.9181 2.492
17.0416 23.4431 1.109
-5.315 32.0651 13.859
-5.9799 30.6851 13.826
-4.9918 30.7211 14.234
9.886 33.0281 10.246
9.6556 34.3111 10.387
9.1342 34.2651 10.89
3.5252 28.7271 15.058
6.2366 15.0046 12.862
6.8647 14.55 11.714
6.8964 15.7301 12.348
1.3648 17.1726 15.994
-3.3643 25.1661 15.622
10.6804 18.6668 8.588
10.9141 17.6098 7.765
11.9145 21.4484 7.66
4.6833 9.0936 8.875
5.5401 9.907 9.146
10.0747 17.5261 8.959
-13.9202 24.0091 6.732
-14.9028 23.7091 5.847
-0.1047 5.6627 6.032
-1.4432 5.8679 6.288
-7.4976 14.5441 10.544
-6.7439 13.8677 11.105
-7.1403 15.3416 11.498
12.452 18.9985 6.403
15.7718 24.3421 3.626
1.1494 5.8219 6.156
1.1697 6.8877 7.3
-3.7764 14.63 14.489
-2.8554 14.6326 14.986
-3.6773 15.798 15.148
7.3316 34.4351 12.153
7.7159 33.2811 12.139
7.948 34.3871 11.787
-10.0737 26.0721 10.534
9.8811 18.4243 9.504
9.9295 19.4919 9.603
9.8684 31.7701 10.303
7.6226 18.768 12.052
8.0471 19.718 11.724
6.9815 19.537 12.906
6.1531 2.8671 -0.219
-6.8049 25.0451 13.576
6.3463 27.0881 13.916
16.7253 25.1451 2.508
17.0397 26.4331 2.257
17.0789 27.7941 2.539
14.3673 25.6011 5.408
15.159 25.6391 4.498
13.0504 28.2991 7.045
13.3788 17.4778 4.012
-12.898 26.1411 7.928
-12.5468 27.2551 8.366
3.3657 10.1784 10.641
2.4451 10.7097 11.322
12.1932 10.7208 0.124
12.622 11.43 0.151
4.6002 26.4201 14.971
9.154 17.7095 10.177
16.3958 29.0471 3.515
15.6057 28.1351 4.3
2.5019 17.9401 15.946
2.3899 19.2361 16.036
1.3215 18.4446 16.223
14.5243 30.2911 5.456
14.1649 31.5221 5.782
1.4974 7.7777 8.302
0.1343 7.5332 8.057
2.5198 5.6947 5.871
7.3978 32.0521 12.531
8.1821 31.0771 12.055
5.8258 26.0951 14.354
16.9021 22.7611 1.1
17.2692 24.9341 1.199
6.878 8.8626 6.427
8.1594 9.5762 5.662
8.3602 20.9359 11.576
8.6115 22.2294 11.498
6.9283 29.3451 13.265
12.0146 24.5181 7.957
6.2469 22.1045 14.095
-7.702 18.3875 11.847
-8.5604 18.817 11.167
-8.5214 17.6667 10.955
8.3074 8.668 4.521
9.2807 9.2035 3.662
0.1269 23.0501 16.342
16.6202 33.8791 2.884
16.2552 32.5411 3.478
6.8005 11.6866 9.561
7.6662 12.3379 8.856
7.3319 12.8764 9.745
-11.619 18.02 7.672
-11.2989 18.952 8.547
-12.3272 19.0714 7.436
-8.557 21.1722 11.553
8.0358 23.2081 12.236
7.3581 24.0371 13.004
11.0578 22.5181 8.773
11.0054 21.1178 8.636
4.2447 13.918 14.005
3.0234 13.4393 13.902
6.8856 5.6973 2.534
1.1247 19.7261 16.33
0.7964 20.9426 16.363
-0.1834 20.3482 16.384
6.3264 4.7223 1.897
11.4753 12.8216 3.501
10.6714 12.1511 4.199
13.2102 31.9441 6.753
4.4589 7.3282 6.82
5.4291 7.2177 5.835
5.7893 8.1661 6.707
13.4498 29.6651 6.602
12.5264 29.3281 7.575
10.7118 34.3291 9.283
10.1763 34.3311 9.847
10.7326 33.1401 9.31
-14.7598 16.6247 3.372
-14.5381 15.4216 2.862
-13.7135 15.6149 3.984
-8.1514 6.1923 3.161
-7.0783 5.4505 3.256
-7.1204 6.523 4.313
-6.1144 17.4314 13.202
-5.0709 17.4537 14.205
-5.6086 18.5493 13.891
6.899 18.2768 12.799
7.7141 17.6357 11.778
2.1677 20.4378 16.078
7.6135 14.6699 10.636
17.6491 27.1961 1.232
17.8079 27.9991 1.142
5.083 12.8321 12.722
3.6624 5.5844 5.201
4.3685 27.7541 14.91
-17.8343 28.8451 3.995
-17.774 30.4251 4.168
-18.5911 29.5911 3.026
-3.3993 3.1301 3.117
-3.9438 2.6378 2.262
-2.604 2.2155 2.365
-14.077 14.023 2.559
-15.0165 14.6869 1.805
-14.8034 13.966 1.66
7.0406 13.5764 10.701
-13.4574 12.6628 2.486
-14.499 13.2583 1.538
-5.5622 16.3826 13.575
-6.6678 16.1947 12.48
-5.8263 15.4245 13.082
-12.9113 30.8671 7.951
-11.7092 31.7641 8.876
-12.7119 31.9041 8.001
6.3501 12.2376 10.701
5.625 12.4061 11.89
1.142 12.1527 12.984
2.6769 12.3626 12.967
1.82 13.1394 13.832
-7.7856 33.0821 12.503
-8.9895 33.0691 11.544
-8.5576 32.0751 11.926
-6.741 29.6041 13.588
-5.5062 29.4481 14.268
6.2444 19.8378 13.893
5.4241 19.5383 14.704
6.0663 18.6741 13.883
-2.8534 29.5431 15.143
-1.7049 30.5021 15.182
-2.9481 30.9121 14.858
1.359 2.4815 2.585
1.6445 3.3123 3.451
0.1891 2.9994 3.234
-12.039 32.9121 8.59
-13.1899 32.8061 7.584
-4.7238 15.2929 14.059
-11.5248 10.5624 3.418
-11.9681 9.9218 2.458
-10.7442 9.3085 3.326
10.652 16.3399 7.293
11.5787 16.9613 6.342
-13.5497 33.9551 7.122
-10.6982 22.3254 9.625
-11.5464 22.4769 8.862
0.7501 33.4981 14.67
2.283 33.1851 14.395
1.8418 34.3221 13.973
7.4663 9.8468 6.832
-5.0652 7.7019 7.126
-10.9695 26.7221 9.754
-11.211 25.5851 9.536
3.9414 12.8395 13.255
4.2331 11.9238 12.281
-5.698 4.5828 3.281
-5.7475 3.6676 2.285
-4.6162 3.6981 3.009
-15.0065 31.7691 6.107
-13.8677 31.4621 7.065
-17.5654 27.1681 3.865
-17.0906 28.0431 4.608
7.4773 20.6147 12.521
-15.2043 32.7611 5.841
3.9418 7.9803 7.998
2.6484 8.0333 8.421
0.0862 19.0152 16.347
-9.6144 8.2062 3.721
-8.4006 7.3748 4.118
-8.6898 8.6136 4.99
-10.1483 23.6851 10.302
-6.1404 2.9456 1.422
-7.1056 3.8213 1.603
-7.1337 2.8366 0.513
9.3736 6.8265 1.066
9.8864 7.7711 1.367
-1.9406 31.9911 14.807
-0.8398 31.8521 14.949
-0.979 33.2441 14.628
-10.5605 24.7281 10.038
-11.2169 16.783 7.459
-13.0023 29.6491 7.967
-13.9911 30.0631 7.097
2.2907 4.8994 4.999
0.1273 32.4851 14.844
0.4761 31.2501 15.088
-5.0816 19.5361 14.662
-4.537 18.3918 14.966
-10.3026 18.5855 9.485
4.5356 31.8411 13.995
-7.8852 25.6631 12.661
-9.9478 6.7354 2.057
-8.9963 5.799 2.023
-9.2608 7.0102 3.024
-0.039 1.3819 1.568
9.3599 11.9475 5.974
10.1157 12.9266 5.638
18.0923 30.3441 1.074
18.098 31.1531 1.179
-18.1056 26.5001 2.895
-17.9326 25.7301 2.874
0.4679 3.8546 4.111
-2.3476 15.512 15.573
-13.7262 14.6765 3.412
-12.9164 14.5368 4.283
-17.6186 24.2321 2.828
-16.9028 23.5531 3.9
-17.0375 25.0931 4.006
-12.5478 17.9637 6.615
-0.3529 27.6771 15.969
15.9124 25.5341 3.62
-15.0221 29.3011 6.242
-16.3734 30.3601 5.223
-16.212 28.9861 5.366
-8.8028 22.5311 11.546
-9.7518 22.7091 10.619
-15.0465 30.5921 6.204
-14.6502 20.8003 5.737
-14.4193 19.8255 5.563
-13.792 20.7754 6.528
-12.9843 33.9631 7.627
-12.482 34.0241 8.136
14.0247 24.7891 5.695
14.1223 23.7051 5.447
-6.4364 12.4901 10.597
-7.0803 12.254 9.648
-6.6051 11.2828 9.446
-1.3115 10.7943 11.671
-17.33 31.8791 4.303
-18.5207 31.0661 3.165
-10.9278 32.8921 9.576
-11.3498 34.0941 9.137
-0.2982 29.9691 15.436
-0.6374 30.8891 15.188
4.703 30.3151 14.259
3.8129 29.8041 14.711
11.0564 13.427 4.614
11.608 14.7024 4.725
10.6592 14.0774 5.674
11.825 25.7161 8.299
11.1474 24.9491 8.987
15.4199 32.8571 4.362
14.7023 32.3241 5.199
-4.3733 28.8721 14.807
-4.407 27.4161 15.016
-15.9489 23.1081 4.89
-15.9129 21.8106 4.714
-15.0631 22.5531 5.621
-16.4541 21.1351 3.801
-17.198 21.448 2.609
-17.045 20.7416 2.615
-12.5387 9.7944 1.343
-12.1638 9.1096 1.239
1.7559 31.0211 15.009
2.6261 31.7851 14.653
1.4121 32.2921 14.764
-6.5783 32.9611 13.212
-6.8402 34.3791 12.815
-2.0981 25.4751 15.935
-15.5088 24.3671 5.371
6.3861 33.2091 12.901
9.2248 16.6333 9.64
9.3519 15.8811 8.918
10.065 16.5501 8.331
-4.9422 2.6201 1.64
-4.1221 31.5481 14.357
-4.0051 33.0031 14.056
-9.3691 9.8861 5.223
-9.8574 9.3319 4.299
-11.0623 13.474 5.747
3.3265 22.6421 15.742
4.0583 21.6178 15.479
-12.0285 17.0889 6.729
-11.8913 15.9931 6.273
-3.104 32.1771 14.493
-6.5364 10.1849 8.586
-7.3831 10.8803 8.18
3.7496 17.7501 15.561
3.5646 18.863 15.652
4.5156 14.9126 14.553
5.0835 15.8764 14.487
0.3602 34.4321 14.012
-0.3856 34.3861 14.071
-16.1724 32.3971 5.12
-1.5682 27.6041 15.82
-8.0603 15.6034 10.475
-7.7576 16.6834 11.499
-8.747 16.7013 10.38
-17.9614 33.5321 3.674
-18.6275 31.8471 3.103
-8.3446 19.8853 11.486
-15.3913 17.8124 3.329
-15.7588 16.7356 2.103
2.3398 1.2658 0.874
-13.7496 16.5159 4.518
-12.6771 15.5066 5.124
1.2289 1.6516 1.695
8.4231 16.8565 10.77
7.7068 15.6375 11.128
-9.1507 11.756 6.766
-8.9461 12.8216 7.725
-10.0549 12.9292 6.518
-9.4039 5.1853 0.906
-8.879 4.5488 0.871
2.5923 29.9781 15.062
-2.4202 11.3577 12.189
-2.5422 12.4047 13.256
-17.5344 23.5051 2.742
-10.6841 21.0122 9.502
-10.0234 21.5739 10.186
-2.7639 20.7307 15.871
-3.82 19.484 15.527
-2.4442 19.087 15.917
3.6061 32.8691 14.101
3.2852 34.3871 13.776
-4.5803 16.3666 14.458
-15.0122 18.9462 4.458
-9.5629 15.4574 8.619
-9.0028 15.9909 9.645
-7.4567 27.3131 13.052
-8.3498 27.8661 12.215
-11.3239 8.7804 2.263
-11.8982 26.4531 8.911
6.4853 23.4761 13.911
-16.7554 22.3307 3.86
-17.386 22.7921 2.728
-17.2944 22.13 2.674
-6.0692 5.5234 4.05
14.3757 15.0499 0.305
9.8782 13.9835 6.762
9.8421 15.2448 7.722
-10.666 14.2957 6.664
-11.6165 14.8715 5.95
-16.7595 19.3216 2.375
-16.5787 18.6699 2.291
-15.8177 18.9468 3.439
4.6784 34.4431 13.323
4.0287 34.3991 13.556
4.935 33.1891 13.52
-1.1205 18.465 16.181
-16.2248 20.0037 3.501
-15.4721 20.2718 4.587
-12.6037 11.2721 2.618
-12.5806 12.3217 3.333
-8.222 29.0201 12.348
-7.4732 28.6991 13.034
-11.7584 8.4291 1.166
4.0585 25.1821 15.352
-9.723 13.7522 7.408
12.3194 23.3291 7.454
11.3999 23.7091 8.554
11.7873 22.5951 7.959
-3.5204 4.0147 4.009
-3.4355 4.9134 5.026
-4.7161 4.9045 4.263
-6.4275 8.0268 6.426
-5.9286 8.6618 7.474
8.4897 10.717 6.245
-4.0523 30.0731 14.661
-15.0536 21.4231 5.442
-3.8945 12.8611 13.363
-3.6503 11.8558 12.537
17.3853 25.6681 1.211
-13.9862 21.9176 6.464
3.6305 31.1651 14.515
-5.6057 11.194 10.515
-4.6227 11.3497 11.515
-13.1759 13.5386 3.379
7.0041 10.2139 7.888
6.1201 9.3058 7.822
-6.6666 18.544 12.876
-7.0886 17.3849 12.359
-4.0115 17.1895 15.131
-13.1243 23.0181 7.369
-12.4212 22.1879 8.004
-12.0883 23.3471 8.447
1.0517 30.0341 15.369
4.6893 24.0561 15.183
-18.4944 28.8231 3.032
-18.3291 28.0471 3.071
-4.7215 8.5648 8.296
-3.9459 7.674 7.88
7.6727 6.8646 3.149
-16.8391 26.3881 4.445
-9.257 21.6547 10.962
6.0176 16.1814 13.52
-15.4711 16.0398 2.005
10.0072 7.3483 -0.1
10.4704 7.9977 -0.051
-4.8235 12.4357 12.384
-13.1781 18.888 6.446
-3.0002 5.8397 6.154
-7.7649 12.1933 8.722
-10.4685 7.8572 2.497
-11.3004 7.8067 1.131
-9.3495 18.3791 10.359
6.6786 34.5611 12.464
-2.2178 5.0671 5.481
-0.9454 4.9554 5.366
-16.0165 17.3532 2.192
-5.7199 9.3982 8.474
9.0471 5.9628 -0.12
9.9852 20.5975 9.701
10.7709 19.8477 8.725
-0.8489 0.7622 0.998
-8.7117 30.9081 11.877
4.4394 19.4536 15.318
5.271 4.1128 2.118
0.6698 4.8752 5.13
-16.32 17.9991 2.216
8.0143 29.2031 12.372
7.4991 30.4551 12.693
-12.9388 21.3187 7.406
-8.3049 11.6775 7.707
11.0265 9.6781 1.524
10.2149 8.8353 2.054
10.6276 8.6582 1.057
-8.7228 29.8001 11.825
-9.5641 29.8851 11.023
-11.0636 23.5431 9.436
10.3005 25.3061 9.919
3.4443 24.0511 15.644
1.9572 16.0725 15.768
2.9483 16.7401 15.727
6.352 13.2992 11.569
-8.2786 13.2925 8.812
-9.1005 14.1987 8.422
-15.4523 28.1141 5.86
-14.5624 27.7501 6.527
12.2629 17.7736 5.888
-9.0932 28.6251 11.555
12.606 22.2985 6.99
-9.7997 28.4781 10.823
-10.5552 28.9771 10.082
-10.3773 27.5701 10.293
-0.4515 21.6896 16.343
0.8374 22.1712 16.352
-8.0812 34.3031 12.097
-8.945 10.6199 6.198
-7.5504 8.6518 6.1
11.7025 18.1244 6.967
16.1097 33.9451 3.47
2.6937 2.8581 2.582
2.9366 3.9086 3.693
9.154 21.2368 10.727
-14.1417 22.9871 6.446
9.8889 30.6461 10.318
-11.9115 30.6771 8.834
-2.3667 1.1464 1.246
-1.766 0.2155 0.099
-6.4814 31.7801 13.412
9.1059 15.0544 8.666
9.182 14.0746 7.844
1.6924 0.4177 -0.223
2.4791 0.7957 -0.24
-0.5858 4.2809 4.627
-2.0927 4.1565 4.564
11.8674 15.9491 5.201
-0.8964 0.0271 0.051
-5.5012 10.2568 9.591
-2.8862 13.4834 14.194
15.0862 34.1601 4.635
-18.6479 30.3651 3.047
-7.4678 34.3651 12.475
7.4754 28.2171 12.973
9.1934 10.7573 5.205
-7.5185 7.7086 5.205
-5.2432 33.3491 13.605
-6.1164 25.9391 14.228
-7.0491 26.2521 13.424
-4.7072 34.4901 13.501
-4.0195 34.3991 13.725
-5.6532 2.0559 0.436
-6.4016 2.4246 0.453
3.014 11.503 12.114
15.8127 18.4915 0.614
16.081 19.2023 0.674
13.0365 12.1365 0.096
18.033 29.5801 1.08
17.4242 29.1871 2.33
-16.536 33.6151 4.598
-15.9256 33.6661 5.103
-11.4765 27.7521 9.292
-11.556 28.8531 9.214
-12.6356 28.3511 8.259
-3.714 21.8712 15.612
-3.7536 20.625 15.597
13.2835 26.9991 6.765
-3.5554 10.9014 11.628
-5.4554 26.9781 14.577
14.8485 24.5141 4.714
15.0881 23.4651 4.325
-3.418 0.8609 0.107
-3.7384 1.7284 1.358
-4.1782 1.2382 0.226
-1.3958 20.9487 16.178
-2.1299 22.0288 16.047
-6.2009 14.5629 12.219
0.1652 17.7564 16.197
3.4684 20.284 15.68
6.4417 10.5399 8.867
-5.5507 12.1547 11.362
-12.5271 24.1281 8.079
0.2723 26.5101 16.165
1.3218 26.6351 16.067
-0.9554 17.3397 16.122
-6.7432 4.4971 2.525
-7.9577 4.9457 2.059
5.0727 8.42 7.709
-10.7255 31.5581 9.843
-12.0936 29.5391 8.698
5.6735 17.6109 14.146
-1.1208 34.4191 14.09
8.1707 27.0301 12.265
8.3698 28.0421 12.042
-12.3311 13.2057 4.157
-8.6649 34.3561 11.654
6.8992 16.9434 12.621
6.2812 17.4193 13.401
-11.0916 30.1091 9.535
14.5457 34.2541 5.23
3.404 8.6608 8.974
3.4124 9.4075 9.758
7.6006 16.5597 11.712
-17.7807 24.9911 2.85
17.9368 28.8111 1.105
-9.9014 5.8359 0.911
3.6264 4.7408 4.265
4.3994 4.3701 3.177
1.6995 4.173 4.348
1.6393 11.3898 12.202
-18.2268 27.2751 3.03
5.6648 5.292 3.209
-6.2815 22.6791 13.887
7.3775 11.3288 8.402
-0.7857 8.2432 8.846
-14.148 12.55 1.471
-5.8777 13.2878 11.736
-11.5646 24.4701 9.036
-6.4245 27.2311 13.943
-15.5958 26.8131 5.6
-15.8341 25.5881 5.225
-9.9671 12.0011 6.04
16.2736 19.8819 0.8
-16.9489 20.0434 2.485
-1.2426 29.0211 15.56
-10.3522 6.4919 1.012
-5.4484 34.4811 13.303
-6.1242 34.4761 13.061
-1.1072 19.6413 16.233
-2.0596 20.0273 16.033
-16.0904 31.3711 5.318
11.3562 9.3493 0.093
14.162 28.9211 5.868
15.1821 29.1901 4.787
-13.8122 28.6751 7.256
-9.9775 32.9341 10.57
-9.2399 34.3791 11.187
-9.7549 34.3521 10.676
-12.0435 14.1605 5.055
13.8982 27.7391 6.128
9.0431 9.8354 4.6
-17.1813 29.4921 4.738
11.249 34.2391 8.72
12.528 16.829 4.83
-10.8443 7.1453 1.022
11.5412 10.7004 1.514
-15.2622 15.3959 1.878
-10.2847 34.3341 10.154
6.6408 20.7848 13.541
-6.4103 7.0523 5.421
-5.4315 28.1561 14.468
1.103 34.4241 13.982
17.5356 26.4321 1.172
-16.3182 27.5091 5.134
15.5239 17.8003 0.559
-7.4031 13.3212 9.893
-13.2953 19.9084 6.745
16.7399 22.0251 1.062
9.5353 6.6562 -0.073
-10.221 30.4931 10.305
-6.5314 28.4031 13.826
-9.6041 31.5921 10.981
-12.2076 25.3051 8.511
11.7837 34.1371 8.159
11.9659 14.1758 3.787
-4.9114 1.661 0.322
-8.1496 14.3108 9.584
-4.4389 9.3501 9.416
10.4715 21.7059 9.324
10.9457 8.6596 0.022
5.3497 34.5721 13.03
8.5504 34.3431 11.369
2.4721 2.0789 1.764
12.227 13.5664 2.876
11.7586 10.0435 0.187
-8.7057 15.0488 9.35
-2.6073 0.5028 0.112
-8.2954 3.9449 0.845
14.1092 14.3573 0.241
5.844 10.964 10.102
2.5844 34.3591 13.891
-3.2861 34.3521 13.905
-10.8267 34.2231 9.647
9.9397 11.6808 4.917
-16.3051 24.3811 4.64
6.5789 6.3488 3.641
-7.7768 3.3435 0.638
7.4261 3.9958 -0.145
12.3385 34.2421 7.575
15.6152 34.1861 4.027
6.015 34.5431 12.764
-13.7494 11.8409 1.514
8.0012 4.6327 -0.156
-13.3649 11.1491 1.425
-11.9019 34.1371 8.626
-12.9327 10.4594 1.41
-15.3397 33.8731 5.596
3 0 1 2
3 3 4 5
3 6 7 8
3 9 10 11
3 12 13 14
3 15 16 17
3 6 18 19
3 20 21 22
3 23 24 25
3 26 27 28
3 29 30 31
3 32 33 34
3 35 36 37
3 38 39 40
3 41 42 43
3 44 45 46
3 47 48 42
3 49 50 51
3 52 53 54
3 55 56 57
3 58 59 60
3 61 62 63
3 64 52 65
3 66 67 68
3 69 70 71
3 72 73 74
3 75 76 23
3 77 60 78
3 79 15 80
3 81 82 38
3 83 84 85
3 86 87 88
3 89 90 91
3 92 93 94
3 95 96 97
3 23 76 98
3 99 100 101
3 7 102 103
3 104 105 106
3 107 108 109
3 110 111 112
3 113 114 115
3 66 116 67
3 40 117 118
3 119 39 120
3 121 122 123
3 98 124 125
3 126 127 116
3 128 129 130
3 52 131 65
3 132 133 134
3 135 136 137
3 138 139 140
3 141 108 142
3 143 144 145
3 146 147 148
3 14 149 150
3 151 35 152
3 153 154 155
3 156 157 158
3 159 160 161
3 162 163 164
3 165 166 167
3 45 44 168
3 169 170 171
3 6 167 18
3 27 26 172
3 173 174 175
3 176 177 159
3 160 110 178
3 179 180 181
3 182 21 183
3 157 184 185
3 50 186 187
3 188 41 189
3 68 190 191
3 192 193 194
3 193 195 194
3 196 197 198
3 199 200 201
3 202 188 203
3 204 205 149
3 154 206 207
3 208 209 210
3 211 78 60
3 104 212 107
3 29 213 214
3 215 216 217
3 218 219 220
3 221 222 103
3 223 172 117
3 224 225 226
3 227 228 229
3 230 231 232
3 233 234 235
3 236 237 238
3 239 240 241
3 242 204 149
3 136 195 137
3 243 244 245
3 246 247 248
3 219 249 34
3 250 251 252
3 102 91 90
3 253 163 254
3 255 181 256
3 257 258 259
3 210 209 260
3 261 262 263
3 264 265 266
3 156 267 85
3 268 206 154
3 269 270 271
3 272 273 274
3 34 220 219
3 275 61 276
3 122 277 278
3 279 280 281
3 282 283 129
3 284 285 286
3 21 182 287
3 188 202 41
3 283 130 129
3 192 288 277
3 180 289 290
3 185 291 292
3 84 293 85
3 237 294 295
3 296 297 71
3 298 299 221
3 300 207 83
3 301 302 212
3 303 304 305
3 306 307 308
3 309 310 311
3 61 63 312
3 313 168 314
3 315 316 317
3 318 222 319
3 320 321 322
3 223 323 324
3 89 91 325
3 326 327 328
3 273 329 330
3 331 332 333
3 334 335 336
3 337 338 339
3 52 64 53
3 340 341 342
3 150 205 343
3 344 345 346
3 81 118 347
3 331 348 36
3 349 350 257
3 351 259 258
3 352 353 233
3 350 349 354
3 355 183 356
3 357 291 358
3 359 360 361
3 106 362 317
3 335 363 275
3 364 365 291
3 366 367 368
3 369 370 371
3 131 52 54
3 270 269 372
3 373 349 374
3 111 65 131
3 375 318 340
3 376 377 378
3 379 246 248
3 380 192 194
3 216 215 381
3 363 335 382
3 383 384 294
3 385 386 236
3 102 90 387
3 315 388 316
3 389 390 22
3 268 391 392
3 393 394 191
3 302 142 212
3 132 209 133
3 204 395 205
3 373 227 396
3 397 398 295
3 399 400 401
3 402 322 403
3 404 155 405
3 198 197 406
3 144 407 408
3 381 215 409
3 336 276 410
3 382 334 411
3 412 173 413
3 241 414 415
3 416 162 216
3 314 44 417
3 273 272 418
3 159 302 176
3 419 420 421
3 422 255 423
3 424 47 202
3 425 426 29
3 427 428 429
3 430 431 432
3 433 123 122
3 364 406 197
3 115 244 11
3 434 435 239
3 402 403 298
3 436 437 351
3 438 27 439
3 440 289 179
3 422 413 173
3 441 442 443
3 444 248 247
3 190 445 446
3 447 403 60
3 448 449 450
3 451 221 452
3 212 104 301
3 453 454 455
3 456 457 458
3 459 460 461
3 462 463 464
3 465 466 376
3 467 280 442
3 85 267 83
3 148 147 468
3 384 469 470
3 323 169 324
3 327 471 328
3 276 335 275
3 265 264 472
3 343 473 217
3 474 475 476
3 477 478 479
3 480 481 482
3 148 468 483
3 484 480 485
3 486 487 488
3 429 148 483
3 489 490 491
3 234 492 493
3 494 495 496
3 497 498 499
3 500 501 338
3 502 503 504
3 505 506 507
3 508 509 510
3 511 512 491
3 366 368 513
3 514 515 516
3 517 309 518
3 519 2 1
3 520 521 96
3 522 523 524
3 525 412 413
3 199 184 526
3 372 527 528
3 529 530 471
3 531 532 533
3 435 113 115
3 1 534 535
3 474 536 537
3 377 414 538
3 0 539 1
3 540 541 196
3 443 542 441
3 543 544 545
3 306 546 307
3 547 548 549
3 181 550 551
3 552 553 554
3 555 306 372
3 556 224 226
3 557 489 558
3 148 429 49
3 364 559 406
3 560 553 561
3 562 464 563
3 431 564 262
3 253 565 164
3 270 566 271
3 567 568 569
3 570 297 296
3 571 572 51
3 214 573 574
3 536 575 576
3 510 509 577
3 578 82 101
3 579 580 458
3 581 582 583
3 584 430 432
3 585 14 13
3 424 202 203
3 382 586 363
3 587 588 589
3 590 307 591
3 370 407 144
3 592 535 534
3 593 594 595
3 596 512 597
3 598 168 599
3 600 601 602
3 171 603 207
3 475 604 605
3 511 606 607
3 506 608 609
3 144 408 145
3 217 610 611
3 612 613 614
3 429 483 492
3 615 616 417
3 617 211 618
3 151 619 620
3 479 296 71
3 621 622 623
3 624 625 626
3 515 627 628
3 148 49 146
3 629 630 631
3 497 632 633
3 189 634 348
3 356 635 621
3 636 254 407
3 637 638 639
3 547 640 532
3 337 641 642
3 643 16 644
3 15 645 80
3 646 281 647
3 648 649 556
3 650 507 552
3 338 231 500
3 4 651 652
3 399 653 654
3 496 495 439
3 655 326 656
3 270 306 308
3 657 658 522
3 534 539 659
3 507 506 552
3 37 660 35
3 661 662 663
3 604 664 665
3 666 420 419
3 667 668 456
3 23 669 75
3 128 670 671
3 672 297 570
3 458 457 579
3 544 543 569
3 673 674 147
3 675 676 677
3 678 679 568
3 630 629 680
3 681 170 682
3 458 580 671
3 683 582 581
3 684 685 520
3 686 687 688
3 523 689 690
3 691 486 513
3 140 513 488
3 282 692 283
3 693 694 303
3 513 486 488
3 695 696 271
3 628 697 515
3 390 389 698
3 11 10 699
3 700 701 702
3 531 703 460
3 97 432 431
3 291 357 364
3 704 111 131
3 705 310 706
3 707 224 708
3 196 448 540
3 709 710 711
3 712 713 714
3 40 81 38
3 715 688 99
3 523 631 630
3 278 288 308
3 716 717 624
3 51 50 187
3 718 719 484
3 720 721 230
3 722 697 628
3 723 395 204
3 707 677 724
3 725 726 727
3 728 729 730
3 263 262 564
3 731 732 4
3 186 525 733
3 619 505 734
3 335 334 382
3 717 593 735
3 736 737 682
3 361 487 662
3 738 382 411
3 595 739 593
3 630 680 740
3 624 626 716
3 294 382 383
3 741 293 742
3 719 743 484
3 744 745 525
3 746 747 462
3 748 463 691
3 749 750 751
3 493 328 471
3 13 12 752
3 9 753 10
3 474 754 755
3 756 526 757
3 596 519 512
3 175 758 255
3 545 643 644
3 463 486 691
3 759 537 536
3 685 261 760
3 761 250 656
3 762 456 668
3 551 763 764
3 569 459 544
3 480 482 485
3 711 667 692
3 87 242 48
3 138 765 736
3 16 514 516
3 134 666 419
3 624 700 625
3 129 584 766
3 201 767 184
3 652 602 768
3 769 697 770
3 564 771 263
3 430 305 431
3 772 370 369
3 358 773 774
3 667 775 668
3 245 115 114
3 198 448 196
3 651 4 776
3 692 667 283
3 737 765 742
3 550 180 777
3 778 779 437
3 780 93 92
3 758 440 179
3 518 350 517
3 422 173 175
3 499 781 232
3 372 306 270
3 782 251 503
3 783 248 444
3 784 364 357
3 370 144 143
3 710 785 711
3 614 572 612
3 382 294 586
3 786 787 416
3 739 788 749
3 216 162 217
3 768 676 789
3 343 611 680
3 790 791 792
3 191 394 66
3 261 263 666
3 618 60 403
3 793 781 794
3 795 521 520
3 32 249 796
3 89 325 615
3 242 87 797
3 798 799 347
3 472 264 198
3 408 407 787
3 800 328 493
3 676 801 802
3 803 804 587
3 805 315 362
3 279 86 88
3 806 720 793
3 354 373 396
3 434 113 435
3 313 725 807
3 808 809 810
3 424 811 812
3 590 278 307
3 497 813 498
3 3 814 643
3 101 82 99
3 3 545 815
3 520 546 795
3 689 630 740
3 518 805 816
3 426 817 617
3 25 818 23
3 723 9 395
3 818 819 509
3 220 415 820
3 808 794 809
3 456 283 667
3 533 477 728
3 767 773 358
3 749 821 739
3 822 375 145
3 346 345 674
3 489 557 823
3 824 825 780
3 225 802 693
3 817 426 425
3 558 489 535
3 620 35 151
3 142 302 141
3 826 337 632
3 827 828 706
3 584 129 128
3 519 1 512
3 829 830 669
3 275 108 141
3 69 831 832
3 700 624 622
3 121 123 133
3 608 13 752
3 105 258 106
3 833 613 53
3 533 478 477
3 834 780 825
3 84 603 681
3 309 833 518
3 835 741 602
3 756 757 156
3 417 616 726
3 836 366 139
3 211 617 837
3 282 129 766
3 838 475 605
3 774 831 784
3 497 633 839
3 840 786 416
3 600 602 741
3 708 649 671
3 413 841 733
3 842 545 544
3 229 396 227
3 72 114 73
3 337 642 843
3 184 757 526
3 616 796 249
3 844 845 380
3 846 843 847
3 331 35 620
3 848 547 849
3 235 850 392
3 10 329 699
3 545 3 643
3 578 120 38
3 812 442 280
3 767 729 773
3 851 852 161
3 394 853 66
3 21 20 183
3 579 480 743
3 496 223 324
3 854 214 855
3 426 321 29
3 395 409 215
3 462 487 486
3 856 659 857
3 419 747 746
3 623 821 356
3 245 244 115
3 137 195 193
3 584 648 430
3 194 333 332
3 269 806 808
3 576 583 759
3 478 533 640
3 858 859 860
3 734 507 641
3 208 121 133
3 242 723 204
3 788 750 749
3 861 260 862
3 190 68 445
3 863 46 45
3 737 864 681
3 332 865 844
3 330 797 646
3 261 433 760
3 174 449 266
3 866 867 363
3 868 869 870
3 137 193 210
3 686 871 872
3 361 360 873
3 663 662 421
3 468 147 674
3 153 268 154
3 542 715 874
3 875 281 467
3 744 876 745
3 741 742 877
3 751 878 749
3 879 880 14
3 299 59 319
3 436 249 219
3 232 632 497
3 824 479 869
3 715 881 874
3 882 460 883
3 869 479 478
3 442 811 443
3 376 466 229
3 499 232 497
3 318 455 340
3 115 11 435
3 666 123 433
3 682 836 736
3 642 641 650
3 75 669 830
3 352 540 884
3 406 472 198
3 70 479 71
3 606 490 885
3 397 855 213
3 843 642 847
3 823 557 886
3 250 761 887
3 161 160 851
3 414 820 415
3 556 649 224
3 752 561 608
3 311 833 309
3 565 253 714
3 6 19 7
3 100 688 687
3 888 554 658
3 7 103 8
3 16 79 514
3 509 508 818
3 840 889 890
3 372 810 527
3 253 254 636
3 343 205 473
3 536 576 759
3 565 689 740
3 189 136 135
3 743 891 580
3 892 498 813
3 107 105 104
3 54 67 131
3 761 893 894
3 423 256 285
3 166 74 18
3 92 570 780
3 885 823 895
3 114 32 73
3 211 896 78
3 897 898 153
3 899 674 673
3 900 583 576
3 189 41 634
3 374 227 373
3 535 512 1
3 363 867 275
3 526 731 199
3 814 3 5
3 901 854 855
3 546 591 307
3 325 73 796
3 678 568 902
3 221 451 298
3 395 215 473
3 723 797 753
3 503 274 782
3 801 676 768
3 155 404 153
3 439 495 529
3 305 556 226
3 472 903 265
3 787 163 416
3 734 501 619
3 904 24 783
3 694 661 663
3 470 855 384
3 559 784 905
3 27 172 439
3 118 798 347
3 812 811 442
3 150 343 680
3 727 726 436
3 349 373 354
3 748 563 463
3 802 225 724
3 771 421 420
3 906 495 494
3 536 755 907
3 908 266 265
3 121 909 277
3 185 184 767
3 910 427 876
3 32 34 249
3 815 545 842
3 158 911 267
3 192 380 288
3 348 634 36
3 912 484 485
3 533 730 531
3 913 877 765
3 911 155 300
3 608 561 609
3 751 914 878
3 4 815 731
3 750 788 96
3 760 591 685
3 752 629 561
3 844 865 915
3 916 917 20
3 918 17 675
3 12 150 680
3 321 320 213
3 328 345 344
3 796 73 32
3 62 302 161
3 919 62 161
3 329 753 330
3 176 301 316
3 709 716 920
3 287 355 749
3 875 647 281
3 921 152 660
3 567 922 902
3 905 784 577
3 299 319 222
3 923 843 846
3 261 685 684
3 924 632 843
3 416 163 162
3 871 925 443
3 925 926 688
3 659 604 927
3 571 51 187
3 362 258 257
3 119 323 39
3 444 247 289
3 261 666 433
3 579 743 580
3 405 155 911
3 217 473 215
3 871 443 811
3 57 642 650
3 792 928 790
3 551 792 791
3 532 531 882
3 867 866 599
3 402 929 930
3 510 71 297
3 767 358 185
3 346 899 893
3 931 587 804
3 166 890 72
3 932 933 934
3 916 759 917
3 255 758 181
3 935 80 645
3 109 867 599
3 147 637 673
3 641 507 650
3 540 897 541
3 906 206 392
3 677 676 724
3 387 936 929
3 413 422 937
3 589 803 587
3 372 269 810
3 924 843 923
3 770 697 722
3 836 367 366
3 429 492 427
3 632 924 633
3 346 761 344
3 474 938 475
3 493 492 800
3 408 165 145
3 666 263 420
3 318 8 222
3 532 548 547
3 483 800 492
3 48 242 149
3 441 401 400
3 262 684 95
3 154 300 155
3 884 745 352
3 811 203 872
3 210 909 208
3 939 453 455
3 805 940 315
3 8 318 375
3 586 294 237
3 232 826 632
3 871 811 872
3 941 567 769
3 646 279 281
3 753 9 723
3 156 757 157
3 393 191 942
3 747 662 487
3 200 461 703
3 587 558 592
3 690 689 713
3 698 858 390
3 700 702 625
3 915 695 845
3 762 943 457
3 934 944 932
3 634 43 37
3 240 418 945
3 153 898 268
3 199 731 946
3 121 277 122
3 562 260 209
3 515 514 718
3 930 929 238
3 18 167 166
3 435 11 699
3 893 899 466
3 418 699 329
3 673 637 396
3 64 65 177
3 761 894 887
3 228 414 377
3 86 279 646
3 5 789 675
3 419 421 662
3 15 918 677
3 232 781 230
3 486 463 462
3 397 295 384
3 620 619 947
3 691 513 368
3 543 769 569
3 321 426 322
3 365 196 404
3 277 909 192
3 186 910 744
3 941 922 567
3 600 913 360
3 828 49 51
3 696 806 269
3 902 568 567
3 657 522 948
3 475 938 588
3 423 284 937
3 503 272 274
3 239 435 699
3 62 61 141
3 69 577 831
3 469 383 949
3 610 740 611
3 105 351 258
3 228 374 778
3 530 235 234
3 779 778 374
3 899 346 674
3 936 236 238
3 538 378 377
3 464 132 746
3 583 917 759
3 237 295 398
3 773 832 774
3 807 725 727
3 869 868 824
3 631 522 560
3 231 230 500
3 152 921 505
3 104 106 301
3 950 759 916
3 160 951 851
3 600 360 952
3 594 953 595
3 61 312 954
3 318 319 455
3 738 949 383
3 45 236 863
3 47 88 87
3 724 225 707
3 287 749 878
3 517 310 309
3 588 604 475
3 550 955 763
3 565 610 164
3 766 584 432
3 586 237 386
3 794 956 809
3 313 105 107
3 53 64 940
3 858 527 810
3 323 119 169
3 168 313 599
3 931 557 558
3 217 611 343
3 861 862 686
3 282 953 594
3 206 171 207
3 819 818 25
3 402 298 451
3 55 554 888
3 434 239 241
3 501 500 957
3 694 663 303
3 958 499 498
3 772 636 370
3 325 74 73
3 163 787 254
3 708 645 707
3 225 224 707
3 564 305 304
3 739 623 735
3 706 639 638
3 352 898 897
3 103 222 8
3 940 518 833
3 387 90 863
3 226 303 305
3 832 728 70
3 83 207 603
3 291 365 405
3 591 546 520
3 872 203 188
3 121 208 909
3 641 339 734
3 133 209 208
3 705 51 572
3 855 397 384
3 522 631 523
3 950 916 803
3 732 731 526
3 874 81 347
3 751 521 795
3 33 434 415
3 87 48 47
3 836 120 367
3 385 866 386
3 438 439 529
3 760 433 590
3 675 17 814
3 807 727 351
3 317 301 106
3 287 878 959
3 562 563 687
3 636 714 253
3 450 449 174
3 904 903 819
3 603 170 681
3 24 904 25
3 97 431 95
3 160 178 951
3 110 177 65
3 365 197 196
3 867 108 275
3 688 926 686
3 399 654 400
3 716 626 920
3 21 287 389
3 648 584 128
3 283 456 670
3 110 160 177
3 401 874 347
3 214 854 573
3 866 363 386
3 32 114 113
3 745 876 353
3 572 446 612
3 418 240 239
3 660 152 35
3 574 29 214
3 106 258 362
3 116 131 67
3 376 229 377
3 764 792 551
3 614 613 311
3 437 259 351
3 330 646 647
3 717 594 593
3 391 233 235
3 39 323 223
3 663 421 304
3 412 174 173
3 132 464 562
3 546 555 795
3 588 938 589
3 109 599 313
3 814 5 675
3 276 954 410
3 552 554 57
3 600 952 601
3 251 782 654
3 528 527 698
3 873 488 487
3 319 59 960
3 175 174 266
3 57 650 552
3 109 108 867
3 663 304 303
3 613 961 53
3 501 957 947
3 284 423 285
3 848 962 640
3 666 134 123
3 224 649 708
3 403 447 298
3 733 525 413
3 91 19 74
3 140 873 138
3 963 359 661
3 416 216 840
3 378 945 502
3 741 877 600
3 402 320 322
3 964 776 756
3 623 739 821
3 348 331 333
3 384 383 469
3 220 34 33
3 37 36 634
3 214 213 855
3 769 516 697
3 243 381 244
3 620 947 865
3 448 264 449
3 718 79 719
3 437 436 965
3 966 792 764
3 787 786 165
3 721 695 957
3 712 714 967
3 107 109 313
3 87 86 797
3 748 100 563
3 504 894 465
3 593 739 735
3 637 354 396
3 883 459 568
3 745 884 450
3 959 698 389
3 143 342 968
3 534 927 592
3 218 820 778
3 370 636 407
3 964 756 156
3 23 969 669
3 952 359 963
3 475 838 476
3 916 20 804
3 665 605 604
3 417 726 725
3 683 701 582
3 970 54 961
3 745 353 352
3 325 796 616
3 228 820 414
3 466 899 673
3 406 559 472
3 942 971 393
3 689 565 714
3 956 895 809
3 139 366 513
3 972 694 693
3 671 935 708
3 177 388 64
3 97 96 788
3 959 528 698
3 383 382 738
3 930 238 398
3 677 645 15
3 725 314 417
3 137 861 135
3 392 850 906
3 74 19 18
3 942 191 190
3 799 798 26
3 919 161 852
3 42 202 47
3 699 418 239
3 973 824 868
3 679 974 883
3 120 836 119
3 116 127 975
3 659 539 857
3 531 730 703
3 20 917 183
3 971 942 790
3 896 211 837
3 610 565 740
3 566 695 271
3 194 332 844
3 654 653 251
3 108 107 142
3 876 427 976
3 776 835 651
3 350 354 639
3 265 904 908
3 252 251 653
3 361 661 359
3 141 61 275
3 913 600 877
3 249 726 616
3 821 355 356
3 623 356 621
3 958 498 932
3 910 186 50
3 977 523 690
3 642 57 978
3 606 979 607
3 122 590 433
3 374 228 227
3 279 88 812
3 530 850 235
3 200 946 461
3 86 646 797
3 791 256 551
3 140 139 513
3 140 488 873
3 421 771 304
3 548 883 974
3 315 940 388
3 957 500 721
3 805 362 816
3 390 860 22
3 750 96 521
3 397 930 398
3 543 644 516
3 980 841 284
3 783 908 904
3 542 925 715
3 96 95 684
3 711 785 667
3 556 305 430
3 17 918 15
3 3 815 4
3 506 553 552
3 446 572 980
3 172 496 439
3 802 963 972
3 423 255 256
3 844 915 845
3 213 320 397
3 117 40 223
3 816 362 257
3 594 717 692
3 594 692 282
3 194 195 333
3 953 97 788
3 404 405 365
3 554 553 560
3 492 234 976
3 554 55 57
3 810 809 858
3 512 511 597
3 590 591 760
3 861 210 260
3 978 847 642
3 640 533 532
3 728 832 729
3 781 793 230
3 125 24 23
3 167 822 145
3 114 889 245
3 479 70 477
3 981 582 621
3 491 535 489
3 440 758 982
3 402 451 929
3 669 92 829
3 427 492 976
3 190 284 286
3 415 434 241
3 28 799 26
3 913 765 138
3 942 190 286
3 45 598 385
3 358 291 185
3 795 914 751
3 68 970 445
3 273 647 274
3 786 890 166
3 935 671 580
3 806 696 720
3 696 695 721
3 94 829 92
3 25 904 819
3 171 906 494
3 276 61 954
3 495 530 529
3 66 126 116
3 223 40 39
3 205 150 149
3 345 483 468
3 936 863 236
3 480 484 743
3 44 314 168
3 154 207 300
3 64 388 940
3 368 748 691
3 91 102 7
3 549 548 983
3 412 450 174
3 347 399 401
3 872 135 861
3 201 184 199
3 903 472 559
3 784 831 577
3 460 459 883
3 564 431 305
3 63 62 919
3 958 932 885
3 474 476 754
3 827 146 828
3 957 915 947
3 344 326 328
3 480 457 481
3 247 246 984
3 297 672 508
3 612 961 613
3 123 134 133
3 536 474 755
3 8 822 6
3 234 233 976
3 859 858 809
3 56 978 57
3 74 166 72
3 293 741 835
3 58 985 59
3 609 561 553
3 132 562 209
3 561 629 631
3 629 752 680
3 465 378 504
3 316 388 177
3 892 933 498
3 53 940 833
3 744 910 876
3 28 27 655
3 230 721 500
3 759 950 537
3 886 557 860
3 347 799 399
3 461 460 703
3 670 130 283
3 732 776 4
3 238 929 936
3 400 875 467
3 566 308 288
3 598 599 866
3 587 931 558
3 375 143 145
3 248 125 124
3 864 293 84
3 59 447 60
3 5 4 652
3 982 758 175
3 807 351 105
3 959 914 528
3 315 317 362
3 85 964 156
3 749 355 821
3 79 718 514
3 706 638 827
3 614 311 310
3 962 869 640
3 958 794 781
3 825 824 973
3 489 823 490
3 617 817 986
3 351 727 436
3 945 272 502
3 81 874 881
3 83 603 84
3 660 37 43
3 256 181 551
3 471 530 493
3 863 90 46
3 228 377 229
3 824 780 296
3 790 928 971
3 921 585 13
3 389 22 21
3 72 889 114
3 965 219 218
3 861 686 872
3 687 686 862
3 685 591 520
3 113 33 32
3 409 395 9
3 328 800 345
3 387 452 102
3 17 16 643
3 391 268 898
3 171 206 906
3 292 405 911
3 746 462 464
3 818 508 969
3 598 866 385
3 761 656 326
3 233 898 352
3 523 977 524
3 101 100 748
3 213 29 321
3 438 326 655
3 517 350 639
3 340 342 143
3 162 164 610
3 648 556 430
3 329 10 753
3 795 555 914
3 879 585 43
3 79 891 719
3 112 178 110
3 252 799 28
3 719 891 743
3 310 517 706
3 711 716 709
3 608 921 13
3 297 508 510
3 490 511 491
3 859 895 886
3 948 522 524
3 210 861 137
3 165 167 145
3 649 648 128
3 478 640 869
3 505 507 734
3 925 871 926
3 169 119 170
3 103 452 221
3 182 355 287
3 927 534 659
3 547 549 849
3 946 842 461
3 151 152 505
3 568 679 883
3 636 772 987
3 31 425 29
3 525 186 744
3 320 402 930
3 431 262 95
3 292 911 158
3 746 134 419
3 794 958 956
3 980 284 446
3 689 523 630
3 879 43 42
3 871 686 926
3 378 465 376
3 968 370 143
3 467 281 280
3 374 349 779
3 965 218 778
3 415 220 33
3 101 748 368
3 770 941 769
3 529 471 327
3 120 578 367
3 484 988 718
3 982 175 266
3 251 504 503
3 17 643 814
3 677 707 645
3 247 984 989
3 503 502 272
3 910 428 427
3 881 99 82
3 859 809 895
3 960 939 319
3 560 561 631
3 136 348 333
3 102 452 103
3 438 655 27
3 550 763 551
3 338 501 339
3 905 577 509
3 147 827 638
3 697 516 515
3 778 820 228
3 19 91 7
3 835 602 651
3 529 327 438
3 908 444 440
3 85 293 964
3 563 464 463
3 611 740 680
3 908 783 444
3 11 409 9
3 975 704 131
3 969 508 672
3 682 119 836
3 990 718 988
3 201 729 767
3 496 172 223
3 390 858 860
3 82 578 38
3 128 130 670
3 59 985 960
3 618 322 617
3 267 156 158
3 408 787 165
3 811 424 203
3 157 757 184
3 927 604 588
3 734 339 501
3 698 527 858
3 624 717 622
3 337 826 338
3 693 303 226
3 588 587 592
3 269 271 696
3 731 842 946
3 59 299 447
3 316 301 317
3 538 414 241
3 364 197 365
3 372 528 555
3 660 585 921
3 989 290 289
3 68 67 970
3 864 742 293
3 451 387 929
3 261 684 262
3 257 259 779
3 179 289 180
3 622 717 735
3 797 723 242
3 956 958 885
3 602 652 651
3 572 614 705
3 375 822 8
3 682 170 119
3 595 953 788
3 349 257 779
3 716 711 717
3 159 177 160
3 49 429 428
3 294 384 295
3 392 206 268
3 117 798 118
3 459 461 544
3 580 891 935
3 522 554 560
3 380 194 844
3 932 606 885
3 14 150 12
3 221 299 222
3 302 62 141
3 937 422 423
3 92 672 570
3 927 588 592
3 887 894 504
3 311 613 833
3 260 562 687
3 729 832 773
3 639 354 637
3 124 379 248
3 962 870 869
3 835 964 293
3 688 100 99
3 46 89 615
3 810 269 808
3 980 571 841
3 252 656 250
3 687 862 260
3 443 925 542
3 273 418 329
3 806 793 794
3 850 495 906
3 159 161 302
3 917 981 635
3 890 786 840
3 79 80 891
3 28 656 252
3 583 582 981
3 502 504 378
3 220 820 218
3 806 794 808
3 441 400 467
3 571 980 572
3 151 505 619
3 346 893 761
3 903 904 265
3 91 74 325
3 672 669 969
3 400 654 875
3 607 991 511
3 495 850 530
3 517 639 706
3 828 705 706
3 853 126 66
3 494 324 169
3 190 446 284
3 43 634 41
3 781 499 958
3 157 185 292
3 455 319 939
3 361 873 487
3 654 782 875
3 192 909 193
3 826 232 231
3 946 200 199
3 751 750 521
3 497 839 813
3 14 880 149
3 157 292 158
3 541 153 404
3 49 428 50
3 147 638 637
3 289 247 989
3 804 22 931
3 424 88 47
3 278 590 122
3 986 837 617
3 582 701 700
3 577 69 510
3 434 33 113
3 53 961 54
3 563 100 687
3 736 139 138
3 913 873 360
3 598 45 168
3 568 459 569
3 470 901 855
3 774 784 357
3 928 792 966
3 819 903 559
3 454 340 455
3 255 422 175
3 138 873 913
3 705 828 51
3 670 458 671
3 282 766 953
3 933 932 498
3 280 279 812
3 992 718 990
3 512 535 491
3 350 816 257
3 823 886 895
3 22 804 20
3 287 959 389
3 299 298 447
3 739 595 788
3 107 212 142
3 807 105 313
3 761 326 344
3 353 876 976
3 186 733 187
3 506 921 608
3 395 473 205
3 798 117 26
3 550 777 955
3 938 474 537
3 169 171 494
3 538 240 945
3 325 616 615
3 16 15 79
3 618 211 60
3 914 959 878
3 189 348 136
3 860 931 22
3 308 566 270
3 655 656 28
3 680 752 12
3 931 860 557
3 259 437 779
3 635 356 183
3 887 251 250
3 139 736 836
3 540 448 884
3 586 386 363
3 589 950 803
3 938 537 589
3 273 330 647
3 49 828 146
3 16 516 644
3 36 35 331
3 675 677 918
3 937 284 841
3 381 409 244
3 708 935 645
3 418 272 945
3 310 705 614
3 818 969 23
3 947 915 865
3 545 644 543
3 266 449 264
3 398 238 237
3 961 445 970
3 897 153 541
3 801 768 952
3 737 681 682
3 128 671 649
3 441 467 442
3 345 800 483
3 80 935 891
3 601 768 602
3 183 355 182
3 338 826 231
3 621 635 981
3 380 845 566
3 387 863 936
3 603 171 170
3 438 327 326
3 952 360 359
3 622 621 700
3 768 601 952
3 735 623 622
3 589 537 950
3 879 14 585
3 412 745 450
3 879 42 48
3 676 802 724
3 97 953 432
3 413 937 841
3 956 885 895
3 110 65 111
3 352 897 540
3 92 669 672
3 802 801 963
3 46 615 44
3 558 535 592
3 364 784 559
3 730 533 728
3 747 487 462
3 765 877 742
3 407 254 787
3 812 88 424
3 539 0 993
3 134 746 132
3 974 983 548
3 457 456 762
3 50 428 910
3 243 216 381
3 345 468 674
3 350 518 816
3 730 200 703
3 915 957 695
3 54 970 67
3 944 979 606
3 466 465 893
3 460 882 531
3 426 617 322
3 982 908 440
3 243 840 216
3 444 289 440
3 944 606 932
3 243 889 840
3 386 237 236
3 236 45 385
3 747 419 662
3 912 988 484
3 143 375 340
3 526 756 732
3 480 579 457
3 972 661 694
3 249 436 726
3 302 301 176
3 135 188 189
3 125 783 24
3 875 274 647
3 539 993 857
3 477 70 728
3 403 322 618
3 276 336 335
3 815 842 731
3 673 396 229
3 525 745 412
3 659 856 604
3 361 662 661
3 304 771 564
3 789 676 675
3 542 401 441
3 620 865 332
3 882 548 532
3 890 889 72
3 900 581 583
3 165 786 166
3 188 135 872
3 756 776 732
3 528 914 555
3 60 77 58
3 790 286 285
3 417 44 615
3 652 768 789
3 177 176 316
3 582 700 621
3 225 693 226
3 789 5 652
3 802 972 693
3 505 921 506
3 466 673 229
3 555 546 306
3 982 266 908
3 684 520 96
3 771 420 263
3 277 288 278
3 566 845 695
3 945 378 538
3 976 233 353
3 766 432 953
3 660 43 585
3 409 11 244
3 880 48 149
3 370 968 371
3 905 819 559
3 911 300 267
3 905 509 819
3 827 147 146
3 835 776 964
3 793 720 230
3 331 620 332
3 943 481 457
3 341 340 454
3 823 885 490
3 401 542 874
3 714 713 689
3 445 961 612
3 538 241 240
3 99 881 715
3 101 368 578
3 721 720 696
3 965 436 219
3 785 775 667
3 405 292 291
3 681 864 84
3 46 90 89
3 769 543 516
3 530 234 493
3 972 963 661
3 834 93 780
3 300 83 267
3 737 736 765
3 164 163 253
3 39 38 120
3 975 131 116
3 541 404 196
3 118 81 40
3 824 296 479
3 494 496 324
3 193 909 210
3 290 777 180
3 917 635 183
3 822 167 6
3 387 451 452
3 907 575 536
3 967 636 987
3 285 256 791
3 570 296 780
3 501 947 619
3 799 653 399
3 992 627 515
3 191 66 68
3 898 233 391
3 991 597 511
3 952 963 801
3 125 23 98
3 339 641 337
3 831 774 832
3 465 894 893
3 887 504 251
3 965 778 437
3 733 841 571
3 367 578 368
3 288 380 566
3 571 187 733
3 930 397 320
3 42 41 202
3 799 252 653
3 550 181 180
3 69 71 510
3 860 859 886
3 606 511 490
3 264 448 198
3 456 458 670
3 692 717 711
3 69 832 70
3 307 278 308
3 574 30 29
3 506 609 553
3 515 718 992
3 790 942 286
3 243 245 889
3 461 842 544
3 548 882 883
3 884 448 450
3 200 730 201
3 848 640 547
3 48 880 879
3 583 981 917
3 725 313 314
3 117 172 26
3 916 804 803
3 162 610 217
3 337 843 632
3 967 714 636
3 664 604 856
3 805 518 940
3 729 201 730
3 758 179 181
3 774 357 358
3 925 688 715
3 82 81 881
3 753 797 330
3 554 522 658
3 391 235 392
3 285 791 790
3 782 274 875
3 539 534 1
3 446 445 612
3 333 195 136
3 569 769 567
3 864 737 742
3 248 783 125
