ply
format ascii 1.0
element vertex 994
property float x
property float y
property float z
element face 1828
property list uchar uint vertex_indices
end_header
110.872 183.864 38.1884
110.182 183.204 38.2857
111.479 183.295 38.3355
87.0373 183.72 32.4645
86.9773 182.577 31.2391
88.0394 182.794 32.2751
107.066 179.967 13.8889
106.612 180.816 13.0708
108.111 180.522 13.4092
102.713 175.135 18.9358
101.712 175.397 18.4129
102.353 176.049 17.6691
106.519 174.342 22.6041
106.357 174.163 23.9451
105.247 173.997 23.0597
89.5394 184.709 34.9535
88.0902 185.497 34.7683
88.5531 184.413 34.0576
106.097 179.376 14.4063
105.774 180.166 13.6565
103.897 183.566 38.8504
103.446 182.811 38.0095
104.766 182.517 37.7446
79.7514 188.738 20.561
80.8705 187.963 19.8227
80.8443 187.361 20.5772
92.8046 174.534 21.4833
92.0303 175.2 20.8142
93.2588 174.678 20.3156
109.626 187.523 6.9119
109.374 188.764 6.0292
111.05 188.076 6.5244
102.348 179.073 14.7488
101.087 178.58 15.2798
101.241 179.459 14.4678
104.811 174.367 27.2452
103.654 174.224 27.1798
104.146 174.025 26.2266
92.7639 174.342 25.2519
91.6373 175.101 24.8056
92.4952 174.465 24.0354
102.308 173.759 25.4727
102.758 173.637 24.2536
103.745 173.791 25.1454
102.639 182.642 11.4823
103.285 183.466 10.682
103.823 182.435 11.5685
101.774 173.624 23.4891
102.999 173.749 22.8434
90.8056 181.396 15.817
89.7148 182.075 15.8999
90.4875 182.869 14.9857
93.1253 187.218 10.8248
93.0455 185.961 11.6585
92.1809 187.128 11.3429
111.897 175.817 26.0049
111.881 175.861 26.7593
110.728 175.542 26.6336
111.652 182.903 11.2836
110.465 182.499 11.6285
110.452 183.648 10.5246
99.1292 187.643 7.8879
97.9609 187.676 8.3211
98.1233 188.949 7.7315
94.0443 186.516 10.8193
93.7178 187.908 10.1381
90.1133 188.699 11.4423
91.2527 187.927 11.3095
90.0381 187.592 12.1148
80.9811 186.07 25.1617
80.7119 186.362 26.4695
80.0863 186.986 25.4148
104.572 178.61 15.1133
103.67 179.307 14.4832
104.841 179.601 14.1802
78.7275 190.159 20.9442
79.1387 190.127 20.2108
111.69 183.492 10.7215
111.751 184.09 10.1622
89.2132 185.894 35.8444
90.3516 185.076 35.7414
93.8675 173.935 24.3578
93.9353 173.964 25.802
87.3023 179.339 25.8141
87.8501 178.802 26.8777
86.9543 179.824 27.2992
100.931 173.942 21.6632
101.913 173.857 22.1585
100.806 173.645 22.8554
104.261 181.438 12.4661
105.006 182.103 11.8376
105.172 180.89 12.9695
78.2254 189.01 23.3517
77.4949 189.902 24.1816
77.6004 190.043 23.3112
97.6912 181.118 35.5579
98.8437 181.322 35.9308
97.6955 182.013 36.4787
79.5311 190.072 19.4843
95.2069 173.899 26.356
95.6645 174.299 27.5252
94.266 174.16 27.0985
106.052 181.693 12.2215
107.439 181.441 12.5156
98.2892 184.42 10.461
98.9181 183.49 11.1678
97.5368 183.914 11.0554
99.3055 184.574 10.1594
99.8095 185.673 9.1392
100.299 184.746 9.8955
94.4885 188.339 9.5416
93.2699 189.5 9.5355
93.962 189.373 9.276
102.009 177.958 15.8073
103.258 178.214 15.5195
102.669 177.125 16.5412
91.3322 188.789 10.7978
92.4253 174.55 22.7484
93.4687 174.102 23.3117
90.5352 175.996 25.6547
91.7139 175.049 25.9909
99.3239 176.791 31.2407
99.6283 177.594 32.1192
98.3243 177.544 31.8349
79.9324 190.162 18.7362
80.4009 188.914 19.3328
90.3563 189.795 10.7513
91.0925 189.733 10.3803
94.2307 184.202 36.9629
95.4221 184.246 37.6043
94.7516 184.886 37.8707
92.4904 188.378 10.4662
97.0054 176.332 30.3257
98.0886 176.651 30.8638
97.0664 177.421 31.4257
100.462 174.047 27.2242
101.439 174.297 27.923
100.356 174.549 28.5441
91.0435 177.116 29.327
91.4163 176.064 28.4738
92.0202 176.675 29.4219
98.8778 186.621 8.593
98.7357 185.698 9.3065
110.31 178.749 15.212
109.674 178.124 15.8356
108.679 178.718 15.1361
91.9087 180.872 15.6394
92.9702 179.95 15.7228
91.5031 180.156 16.2995
104.24 174.071 21.8999
105.757 174.401 21.7459
105.849 174.714 27.6702
105.921 174.405 26.5357
86.3079 180.523 22.2089
86.9507 179.696 23.4103
85.9864 180.786 23.6256
85.9692 180.959 27.5146
84.8854 182.076 26.9651
85.5 181.233 26.2655
96.3137 187.274 9.2921
95.5501 188.205 9.1265
96.8436 188.023 8.6144
107.041 176.008 18.3886
108.08 176.523 17.764
108.408 176.104 18.7331
107.452 178.133 15.6055
106.015 178.581 15.1522
107.287 178.985 14.8206
101.841 183.545 10.7842
89.8024 176.683 24.4354
89.3461 177.115 25.4825
88.7881 177.723 24.107
91.6246 175.233 22.0417
85.9321 184.554 16.7363
85.1768 184.431 17.7288
84.9614 185.579 16.9429
96.4954 186.362 9.7786
95.1342 187.057 9.9821
94.625 189.365 8.9614
83.7153 187.797 16.2694
83.5482 188.772 15.5983
84.6547 187.648 15.3543
102.486 183.067 38.1267
102.574 183.794 38.9008
84.2201 183.06 28.0082
84.1053 182.869 26.3001
88.491 182.551 16.2711
89.3207 183.056 15.463
100.921 173.808 25.9828
101.756 173.998 26.7114
89.0815 187.052 12.968
89.0668 188.448 12.1193
101.386 176.145 30.6879
100.823 175.337 29.7083
102.261 175.431 29.9081
101.509 174.828 29.0436
84.6885 182.443 21.3432
83.9526 183.184 21.9821
83.9472 183.561 20.6304
84.402 183.799 29.4068
83.5794 184.945 29.778
83.3358 184.332 28.5243
101.495 173.652 24.7286
100.184 173.639 25.2043
103.723 174.401 20.7263
104.852 174.523 20.7697
87.9623 178.62 23.14
87.6798 178.876 24.4597
99.0323 175.966 30.2748
98.0971 175.616 29.8284
99.4785 175.114 29.3261
110.704 184.593 9.64
98.1304 185.35 9.7447
107.919 186.854 7.3586
108.081 187.72 6.6149
104.946 175.467 18.7967
105.832 176.104 17.8835
106.334 175.46 19.2852
99.2462 179.807 14.3916
100.318 180.157 13.9428
100.067 179.199 14.8189
108.002 182.353 11.6701
108.738 181.401 12.6067
91.455 175.254 23.3839
93.0442 182.889 35.1783
92.4213 182.219 34.2515
93.6932 181.812 34.5629
96.3973 179.565 14.9915
97.4762 179.209 15.1737
95.9755 178.823 15.7253
107.629 177.206 31.9524
108.261 176.654 31.2014
109.186 177.161 31.8464
87.689 179.715 19.5284
88.8282 178.689 18.9727
88.4068 178.532 20.2164
104.107 184.341 9.8474
104.3 185.545 8.7594
105.31 184.719 9.4164
100.288 176.756 17.0236
99.1687 176.718 17.1395
99.3816 177.564 16.36
102.82 174.097 21.4493
104.688 176.666 16.9767
103.486 176.324 17.2774
103.662 177.249 16.401
80.8975 190.049 17.3694
81.804 189.045 17.2721
81.059 188.981 18.2714
101.517 180.333 13.6569
94.4412 175.4 18.9282
95.7622 174.924 19.2864
94.3807 174.634 19.8076
109.553 176.454 18.4814
109.184 176.882 17.4877
85.3986 186.407 15.7419
85.8107 187.239 14.7942
96.5889 182.251 12.6288
97.7444 182.898 11.8286
97.809 181.998 12.6156
98.266 174.803 28.8314
98.0078 179.346 33.6709
97.2846 180.322 34.599
96.9184 179.456 33.604
83.8546 184.416 19.505
82.9859 185.654 19.393
84.0178 185.309 18.3436
86.3932 180.35 26.1272
87.2691 179.502 22.1045
104.736 178.644 33.5096
103.313 178.315 33.2379
104.218 177.728 32.575
98.381 175.385 18.3802
99.391 174.951 18.993
98.1577 174.726 19.4389
100.346 186.581 8.2671
100.25 187.673 7.6026
100.601 176.871 31.4617
100.944 177.706 32.4059
99.8743 173.793 22.0599
98.9238 173.707 22.407
98.9159 174.045 21.2444
96.3834 184.403 38.2475
95.3036 185.465 38.6799
88.212 186.038 14.1264
87.1182 187.043 14.084
87.9864 187.266 13.403
102.284 182.362 37.3264
101.852 177.061 31.7299
82.7307 188.694 16.6026
82.7994 190.011 15.6556
84.0657 182.903 24.493
84.8088 182.079 25.4358
87.7389 179.298 28.4717
104.027 186.71 7.7869
105.13 186.375 7.9376
79.1885 187.944 25.5031
79.6552 187.52 24.1789
108.321 183.301 10.7781
109.202 182.302 11.7649
86.6624 179.996 24.7339
97.2145 185.296 10.1565
97.5939 186.584 9.1299
94.1652 180.773 33.9576
95.022 180.101 33.8124
95.0965 181.299 34.8454
102.279 178.931 33.7888
101.247 178.625 33.3883
102.144 177.927 32.7712
93.4847 183.615 13.0234
92.565 183.207 13.7332
92.5888 184.23 13.0354
98.815 188.913 7.5816
100.419 183.681 10.8248
101.431 182.9 11.3959
95.5932 184.765 11.2564
95.951 185.727 10.4431
96.6021 184.593 10.9009
109.432 180.524 13.4641
110.182 181.489 12.5842
107.763 185.72 8.427
108.86 186.383 7.8739
109.031 185.366 8.8193
90.7706 175.797 24.4669
90.4422 176.094 23.4716
103.852 180.48 13.3783
92.294 176.18 18.6992
91.162 176.453 19.0708
91.3209 177.32 18.208
100.557 175.171 18.6539
100.383 174.547 19.7828
103.776 174.6 28.1834
103.515 175.037 29.251
102.563 174.714 28.6959
101.701 188.737 7.0178
101.413 187.41 7.6019
100.938 188.793 7.14
109.56 176.043 29.4966
108.18 176.076 30.1615
108.216 175.668 29.1734
110.523 179.656 14.2956
111.806 179.515 14.526
111.76 179.012 15.0474
106.222 174.844 20.6564
92.4995 177.04 17.945
92.0449 178.188 17.3169
93.225 177.554 17.2852
94.6675 173.908 22.8168
102.661 174.28 27.5459
96.1617 181.314 13.5012
95.1047 182.137 13.2675
98.9433 182.242 12.2671
86.5885 181.027 19.4983
87.4019 180.756 18.6415
95.021 180.943 14.1069
101.504 183.17 38.1018
101.204 184.055 39.0844
83.1576 183.87 24.2863
83.3628 183.614 25.6248
92.039 179.358 31.6792
91.3626 178.797 30.9255
92.8365 178.404 31.3219
96.4934 183.499 11.7296
101.837 186.276 8.4098
83.3168 183.746 23.0322
84.3826 182.602 23.0119
92.1249 175.413 27.958
92.1275 174.916 27.037
93.2929 174.754 27.8589
111.93 177.749 16.85
110.776 177.763 16.4657
111.882 178.115 16.2336
103.567 179.368 34.2553
95.9192 180.398 14.3005
96.9868 180.299 14.2521
109.265 179.599 14.3132
96.2629 177.85 16.559
97.2129 178.178 16.1345
97.0319 176.996 17.2001
80.362 190.121 18.0285
102.54 176.326 30.9865
104.583 175.986 17.8353
102.64 187.394 7.4563
103.928 187.645 7.1419
105.289 187.363 7.1027
103.096 184.494 9.8143
103.134 185.404 9.0226
105.794 182.857 11.1312
94.9727 185.89 10.8028
103.636 181.974 37.0796
104.75 181.536 36.7284
87.6733 179.261 20.8159
88.2046 178.58 21.7365
88.2157 189.778 11.9884
88.9249 189.751 11.5596
103.915 174.931 19.5814
95.2044 179.725 15.0276
106.542 186.387 7.7858
105.63 185.602 8.5759
95.435 173.956 21.6797
96.731 173.866 21.7917
95.9395 173.679 22.8601
107.786 184.446 9.6573
109.017 184.12 10.0167
85.2726 181.6 22.6842
85.0281 181.845 24.0473
83.1896 184.031 21.6618
109.547 177.371 16.7838
108.572 177.847 15.9995
103.59 175.548 18.3558
100.256 188.802 7.2795
102.429 188.703 6.9124
86.3575 183.475 17.3036
87.0711 184.24 16.0222
98.4308 178.326 15.8214
99.7243 178.404 15.5701
106.84 176.637 17.2533
102.013 181.945 12.167
99.5994 175.807 17.9347
95.8824 178.055 31.8836
96.3119 178.735 32.742
95.1616 178.947 32.703
86.1629 185.381 15.8742
86.6984 186.24 14.9009
100.545 173.56 24.0547
111.374 187.018 7.5614
110.036 186.424 7.9264
89.1815 180.341 17.3811
89.8328 181.046 16.5154
90.3713 180.157 16.8497
95.5149 182.23 35.8006
96.4469 181.355 35.4805
96.5663 182.466 36.5088
98.6671 178.349 32.7386
100.703 177.666 16.1458
101.532 176.898 16.8235
100.013 181.129 13.1238
98.6127 181.266 13.1762
91.4129 175.897 19.9369
90.9342 176 21.1582
83.1922 187.368 17.296
97.221 173.572 23.0569
98.4375 173.539 23.3852
97.8431 173.518 24.365
82.2172 188.005 17.8552
90.3165 186.401 12.7063
89.646 185.703 13.5102
109.439 183.149 10.9714
84.8231 183.082 19.7227
84.7126 184.067 18.7525
85.661 183.195 18.3923
107.16 183.3 10.7318
106.823 182.327 11.6552
111.824 180.619 13.4698
111.826 180.055 14.0053
110.635 180.592 13.449
94.1196 186.53 38.9414
92.9165 187.04 38.7197
93.1098 185.918 37.8951
83.6872 186.741 32.333
82.9454 186.646 31.2599
84.0179 185.589 31.302
94.9263 176.7 30.296
94.9486 175.697 29.2525
96.0442 176.011 29.7902
95.7717 177.103 17.2826
95.1306 178.124 16.4675
97.9327 173.824 22.0139
92.1648 179.266 16.5681
104.691 188.67 6.5325
105.494 188.76 6.3737
90.327 177.18 19.0986
83.0793 184.701 20.5192
105.249 174.992 19.8131
106.34 185.907 42.0159
107.92 185.734 41.9556
107.086 186.876 42.7727
80.625 186.785 27.5809
80.1327 187.64 28.1254
79.7104 187.537 26.7856
91.5179 187.343 38.2586
92.1818 188.097 39.1981
91.4609 188.242 38.985
91.0713 179.201 17.141
90.1577 187.416 37.639
90.7532 188.364 38.6806
93.8775 176.327 29.7438
93.6896 177.422 30.8494
92.9194 176.82 30.0079
108.362 181.951 37.0929
109.259 181.026 35.8908
109.399 181.901 36.8935
89.7325 179.201 17.8315
89.901 178.012 18.5566
89.6476 176.918 23.0396
89.8575 176.935 21.5047
90.6343 176.07 22.3616
110.577 177.399 31.9672
110.564 178.358 33.1711
109.57 177.976 32.7392
107.099 176.314 30.9226
106.943 175.634 29.6878
97.3327 176.009 17.9372
97.0332 175.198 18.7575
96.169 176.019 18.1153
107.038 174.759 27.035
107.997 174.72 25.8865
108.407 175.044 27.1297
79.9764 187.317 22.8226
80.8072 186.451 22.5371
80.4943 186.668 23.9925
110.407 181.312 36.2206
110.301 182.318 37.3715
92.7878 175.843 28.9054
88.0573 186.484 35.7064
87.4167 187.444 36.1497
86.8034 186.576 34.9258
93.8348 182.609 13.5296
94.4562 183.56 12.6029
111.45 182.78 37.7313
99.8203 180.277 34.8798
99.9718 181.04 35.728
110.993 175.232 23.4315
110.68 175.507 21.8986
111.817 175.929 22.3398
87.3417 183.07 16.7153
85.1968 182.776 29.2468
104.217 180.148 35.1511
103.08 180.366 35.3926
90.3344 176.647 20.2402
89.4187 177.621 19.9485
82.0777 186.621 29.8796
81.1625 187.617 29.9291
81.193 186.893 28.7978
109.264 183.795 39.1881
108.957 182.837 38.0493
104.663 186.037 41.747
105.538 185.294 41.2722
98.1096 177.381 16.7043
110.256 184.061 39.3859
85.4752 181.904 20.2398
85.5282 181.481 21.5332
96.5101 173.555 24.0954
85.7011 186.181 33.796
84.8697 185.784 32.5822
86.1085 184.912 32.8714
101.18 179.6 34.3299
80.4405 188.48 30.322
81.3162 188.299 31.2872
80.3315 189.389 31.3153
84.3214 188.836 14.808
85.266 188.535 14.2952
109.486 175.095 26.1222
109.347 174.953 25.0214
110.739 175.274 25.1606
102.223 179.864 34.7421
94.2779 182.443 35.3985
107.144 181.935 37.1839
107.558 182.805 38.1727
82.3943 184.903 21.8909
109.98 175.058 24.0543
108.745 174.814 23.7055
97.031 175.24 29.2632
95.8867 174.936 28.7186
96.0804 180.417 34.4842
109.336 175.907 19.646
103.158 177.241 32.0668
84.2303 187.845 34.1294
83.2939 187.879 33.1779
84.5051 186.878 33.4424
78.8768 188.334 24.2206
89.4424 183.928 14.8217
90.4215 184.264 14.0659
107.839 188.828 6.0893
108.648 188.723 6.0836
103.995 187.007 42.2872
103.225 187.028 42.1142
81.3495 185.791 23.7137
93.0069 174.329 26.5292
92.1714 186.49 37.9078
92.0317 185.619 37.098
101.727 187.074 41.8002
101.048 186.002 41.0844
102.588 185.896 41.2191
95.4586 183.287 36.7294
105.172 173.933 24.5345
103.029 186.282 8.2692
106.796 183.66 39.2037
107.855 184.679 40.555
106.481 184.536 40.3936
100.026 178.356 32.9844
100.204 179.283 33.9334
108.087 183.698 39.2281
98.2952 184.165 38.8318
97.3204 184.339 38.6009
98.2703 183.374 37.9736
111.458 182.275 37.1659
111.519 181.766 36.6636
102.284 184.207 10.1569
101.2 184.455 10.0593
89.985 179.305 30.618
89.7489 180.254 31.2619
88.7777 180.456 30.7867
88.2892 178.231 25.4931
109.374 185.599 41.5116
108.561 186.737 42.7023
110.387 180.326 35.1094
111.589 180.765 35.5314
107.464 174.466 24.4798
108.384 174.714 24.819
107.81 175.643 19.4786
107.299 175.191 20.3687
90.9219 185.288 13.1252
92.1973 185.177 12.5736
91.5723 184.228 13.5224
103.211 181.603 12.3566
102.444 180.915 13.0342
110.352 185.54 8.7617
109.819 184.703 9.4793
106.367 175.095 28.5549
104.911 174.886 28.5886
100.603 185.012 40.1305
99.3055 185.188 40.0945
100.048 184.281 39.2447
98.63 186.101 40.6357
98.9429 187.293 41.3796
98.2365 187.287 41.2266
87.2893 188.559 36.7203
86.6045 188.663 36.3454
108.516 174.893 22.4257
109.28 175.249 21.5555
109.787 175.138 22.7695
110.456 176.69 30.7599
111.874 177.087 31.0218
102.97 173.967 26.2797
101.862 184.531 39.6904
110.704 177.001 17.7955
94.1282 180.262 14.9568
93.376 180.984 14.8297
94.045 181.571 14.1166
80.115 188.262 29.1238
109.043 175.545 28.3037
110.498 175.846 28.1867
87.381 184.679 33.5507
86.8268 185.603 34.039
90.9689 184.155 35.2439
100.137 174.16 20.8551
99.1127 174.423 20.1233
94.5838 183.173 36.2101
93.488 183.629 36.0729
109.672 175.409 27.2856
87.6798 181.316 30.718
88.3752 181.722 31.5647
95.245 174.341 20.432
96.3579 174.25 20.617
92.4075 175.349 19.666
93.3713 175.415 19.0981
111.927 175.89 23.8214
111.881 175.831 24.5672
109.892 184.782 40.354
105.099 174.082 25.7498
93.0983 179.427 32.2419
94.1783 178.403 31.9392
94.1962 179.522 32.9286
111.027 186.228 42.143
109.342 186.799 42.8091
97.3802 178.416 32.5262
95.3073 186.573 39.5729
94.2305 187.799 39.9404
78.7607 189.028 21.8418
94.0108 185.384 37.9312
93.0015 184.778 36.8587
79.1465 188.207 22.9527
94.3514 179.132 15.7585
93.1324 178.774 16.4748
89.2509 183.136 33.3323
90.3165 182.177 33.1277
90.4241 183.384 34.2365
82.6802 188.996 33.5855
82.0437 189.031 33.0606
107.473 174.84 21.5893
88.8526 177.713 26.6018
89.8996 176.646 26.7238
101 187.16 41.716
98.5071 180.4 34.8657
99.0688 179.716 34.205
98.2256 174.031 26.9455
96.9789 174.375 28.0016
96.5819 173.985 26.6258
110.364 175.801 20.5755
111.882 176.126 20.8964
93.8615 175.444 28.7619
96.4411 185.444 39.1938
92.9523 181.283 33.7445
93.4858 180.257 33.1844
104.808 176.85 31.6383
105.361 177.687 32.5314
86.2753 187.639 35.5055
103.948 180.991 36.0798
100.971 175.991 17.6963
99.8256 186.042 40.937
100.287 187.174 41.5676
99.6249 187.228 41.476
83.0183 185.852 30.2508
92.5448 189.597 9.8059
91.4784 183.14 14.3034
92.7397 182.18 14.3395
91.7906 183.238 34.8476
92.3664 183.952 35.7981
96.8165 187.527 40.9411
96.1648 187.611 40.7603
96.4417 186.463 39.9993
111.938 176.579 19.5032
111.894 176.346 20.1529
110.684 176.382 19.2466
95.9599 173.721 25.3021
97.4986 186.401 40.4064
97.7667 185.315 39.6537
88.767 187.284 36.7853
89.8166 186.569 36.7622
106.515 177.554 32.4036
106.194 176.868 31.6548
85.924 188.736 35.94
102.677 174.55 20.1231
91.2471 182.494 33.9046
100.824 182.448 11.8622
101.204 181.348 12.7817
100.09 181.943 12.3943
81.5096 185.893 27.702
82.4083 184.876 27.6171
82.3994 185.639 28.8977
85.5217 183.476 30.6091
86.1567 182.428 30.1102
88.2119 183.657 15.6919
107.568 175.241 28.2339
98.918 184.46 39.2352
90.356 176.539 28.0761
89.3507 177.365 27.8319
103.163 188.691 6.7963
99.4125 183.438 38.1678
108.66 175.387 20.5511
88.6889 179.387 29.7873
88.8446 178.387 28.8043
91.0335 186.523 37.3575
87.7088 182.014 17.1775
86.8007 182.08 18.0615
96.0389 177.026 30.8482
94.8798 177.543 31.2702
94.6844 174.771 28.1931
100.513 182.533 37.3059
99.6828 181.898 36.6028
100.842 181.455 36.2699
107.529 174.533 23.1299
101.551 174.719 19.4923
106.318 186.87 42.676
105.542 186.831 42.5107
86.0597 181.606 28.9031
85.1689 182.022 28.1275
84.3595 186.753 16.5089
103.883 185.457 41.0207
99.1496 178.94 33.4386
93.6763 176.382 18.164
93.5347 187.897 39.6527
84.8432 190.002 14.1744
85.4926 189.953 13.7112
89.9306 177.518 29.0051
96.3829 183.456 37.3597
83.3346 183.748 27.1818
89.6882 181.18 31.9465
85.3521 187.405 34.6501
85.3016 188.771 35.482
95.874 179.543 33.5311
112.056 177.438 17.503
82.562 184.421 26.3994
82.4503 184.536 25.127
94.8481 187.71 40.1981
86.8931 181.428 29.9015
83.4577 190.022 15.1345
98.0924 180.201 14.1964
97.3426 181.177 13.4107
78.2571 188.904 25.0305
108.403 178.025 32.8933
96.9485 174.584 19.7422
81.6077 187.784 18.9106
82.3701 184.772 23.5118
95.494 187.686 40.5016
106.698 177.53 16.1673
107.95 177.209 16.6825
98.8136 182.496 37.1204
89.1724 182.195 32.4865
87.173 188.378 13.1551
86.3302 187.848 13.9667
86.1531 188.845 13.554
107.295 178.077 32.9044
107.38 178.879 33.7457
101.038 180.466 35.2452
102.801 179.983 13.8811
101.546 174.258 20.7373
93.5674 174.134 22.2244
94.235 174.175 21.2333
90.7941 178.333 17.8296
90.7874 181.09 32.4602
91.6936 181.48 33.2821
105.609 184.042 39.6339
105.245 183.375 38.744
95.2685 184.014 11.9187
106.12 178.347 33.2748
99.7934 182.912 11.5756
105.973 179.079 33.9813
106.472 179.82 34.7368
105.065 179.609 34.5589
99.1845 173.559 24.6331
99.6661 173.55 23.3442
111.798 177.805 32.2628
88.1148 183.704 33.1266
86.1467 183.802 31.732
95.6193 182.935 12.4791
111.44 186.432 8.0719
80.353 187.32 21.4879
81.4035 186.209 21.245
98.7317 179.175 15.0276
100.482 183.456 38.3233
108.141 179.584 14.2927
108.172 181.068 36.0931
78.6413 188.656 26.5483
77.7104 189.803 25.9476
109.275 176.49 30.663
92.5493 181.236 15.0757
91.5695 182.058 14.9996
77.9126 190.125 22.4892
78.2906 190.142 21.7025
81.7758 185.275 24.7674
81.6514 185.338 26.2743
93.444 184.701 12.3142
77.522 189.851 25.078
87.7517 180.311 29.6828
90.9783 175.708 27.0678
111.655 185.267 9.0954
107.86 186.855 42.8295
111.86 177.427 31.6494
105.712 176.929 16.7062
88.2522 184.697 14.9882
85.2035 184.697 31.7001
110.844 176.297 29.4248
103.434 175.674 30.298
103.747 176.478 31.2307
111.985 176.401 28.8888
111.894 176.177 28.2011
79.5508 189.466 29.8348
79.9195 189.449 30.5832
88.9979 177.788 21.1676
95.9864 189.288 8.3689
96.6972 189.228 8.1006
89.6314 189.806 11.1451
107.075 188.822 6.1486
106.682 187.572 6.7574
111.11 185.304 40.7176
111.161 184.799 40.1072
105.247 180.61 35.6581
106.348 180.688 35.7376
105.846 181.643 36.8172
99.3661 174.29 27.8956
98.1199 174.305 27.9352
104.494 183.137 10.8981
88.3963 178.274 27.737
104.473 175.325 29.637
102.009 185.188 9.3331
100.96 185.577 9.0935
78.3558 189.795 27.5996
79.2233 188.544 27.92
78.7331 189.676 28.3598
98.4436 173.724 25.5774
99.5237 173.855 26.3115
92.0578 177.683 30.3825
95.2513 173.705 24.0164
97.7789 174.222 20.7132
88.0348 181.035 17.7399
89.6496 178.54 29.7323
101.623 181.823 36.7087
104.005 173.737 23.9093
104.13 173.835 22.8598
94.8346 173.78 25.137
81.992 187.377 30.9248
82.4406 187.843 32.1393
85.9149 182.193 19.1089
109.053 180.059 34.9071
107.034 181.204 36.2752
95.1058 175.756 18.5081
111.914 175.812 25.3024
104.525 177.637 16.0109
105.537 177.86 15.8118
90.7006 185.745 36.5127
111.851 178.248 32.8465
94.4383 177.281 17.2824
94.9142 176.501 17.9004
107.604 180.367 35.2732
111.749 184.672 9.6359
86.1557 180.928 20.7776
86.9024 180.144 20.7692
94.0546 178.19 16.581
102.486 187.052 41.9623
106.306 188.797 6.2448
83.3308 188.991 34.083
82.2357 185.637 20.5552
81.865 186.725 19.7822
81.6679 185.554 22.4821
88.8847 177.7 22.5423
104.77 186.872 42.4084
82.7869 186.693 18.5168
100.174 176.015 30.4631
88.8237 181.5 16.8041
85.7381 181.056 24.9673
90.0449 188.431 38.3296
90.7827 178.166 30.0593
101.965 180.866 35.7462
104.726 175.959 30.6061
104.308 184.302 39.7774
103.083 184.677 40.0157
89.496 183.862 34.1487
97.3768 189.102 7.908
97.5383 187.417 41.1305
106.516 174.342 25.4242
83.9868 188.89 34.5338
111.976 176.599 29.63
111.971 176.841 30.3058
97.1362 173.669 25.2888
97.5222 173.869 26.2412
108.866 184.584 40.272
86.8442 189.809 12.8254
106.416 184.034 10.0196
106.685 185.115 8.9995
106.17 182.646 37.9938
110.429 179.332 34.1591
111.874 178.715 33.4215
111.847 179.226 33.9365
91.6554 184.847 36.2251
105.234 183.774 10.2834
87.3303 185.302 15.1385
106.987 185.164 41.3629
111.734 181.182 12.9326
94.3239 185.072 11.6536
84.6402 188.88 35.0259
88.1953 188.388 12.6404
92.8908 188.024 39.4438
111.829 179.748 34.4663
98.2797 176.361 17.5408
84.5472 184.481 30.5919
105.651 175.434 29.6131
111.919 175.92 23.0786
103.927 188.73 6.646
105.004 184.768 40.4998
95.2952 189.343 8.6577
90.8161 180.009 31.5847
97.4033 183.157 37.4769
99.52 188.84 7.4417
84.1511 189.975 14.6463
107.988 179.597 34.4026
105.898 176.076 30.713
109.087 178.921 33.7857
102.8 181.391 36.3892
111.632 181.743 12.3979
91.6707 186.115 12.2157
79.1559 189.58 29.093
91.8057 180.318 32.3312
86.845 180.486 28.6205
99.2008 180.578 13.7101
86.1545 189.88 13.2359
112.067 176.872 18.8319
111.838 178.533 15.6312
79.5738 188.138 21.7095
91.0613 187.026 11.9546
87.5384 189.715 12.423
92.5437 180.552 32.8873
77.9977 189.79 26.7889
81.4398 189.057 32.477
91.8522 189.661 10.0724
88.4589 179.8 18.3376
111.854 176.011 21.5972
111.847 175.997 27.4677
111.718 180.255 35.0083
89.1757 184.985 14.2419
101.876 185.262 40.4867
83.8437 186.261 17.6027
80.8384 189.264 31.9584
81.4907 190.047 16.7555
111.737 182.327 11.8431
111.681 185.875 8.5664
112.038 177.138 18.1666
89.3358 188.388 37.931
82.1276 190.058 16.1804
88.644 188.477 37.5465
111.632 181.276 36.0835
87.9543 188.492 37.1143
111.368 184.306 39.5213
3 0 1 2
3 3 4 5
3 6 7 8
3 9 10 11
3 12 13 14
3 15 16 17
3 6 18 19
3 20 21 22
3 23 24 25
3 26 27 28
3 29 30 31
3 32 33 34
3 35 36 37
3 38 39 40
3 41 42 43
3 44 45 46
3 47 48 42
3 49 50 51
3 52 53 54
3 55 56 57
3 58 59 60
3 61 62 63
3 64 52 65
3 66 67 68
3 69 70 71
3 72 73 74
3 75 76 23
3 77 60 78
3 79 15 80
3 81 82 38
3 83 84 85
3 86 87 88
3 89 90 91
3 92 93 94
3 95 96 97
3 23 76 98
3 99 100 101
3 7 102 103
3 104 105 106
3 107 108 109
3 110 111 112
3 113 114 115
3 66 116 67
3 40 117 118
3 119 39 120
3 121 122 123
3 98 124 125
3 126 127 116
3 128 129 130
3 52 131 65
3 132 133 134
3 135 136 137
3 138 139 140
3 141 108 142
3 143 144 145
3 146 147 148
3 14 149 150
3 151 35 152
3 153 154 155
3 156 157 158
3 159 160 161
3 162 163 164
3 165 166 167
3 45 44 168
3 169 170 171
3 6 167 18
3 27 26 172
3 173 174 175
3 176 177 159
3 160 110 178
3 179 180 181
3 182 21 183
3 157 184 185
3 50 186 187
3 188 41 189
3 68 190 191
3 192 193 194
3 193 195 194
3 196 197 198
3 199 200 201
3 202 188 203
3 204 205 149
3 154 206 207
3 208 209 210
3 211 78 60
3 104 212 107
3 29 213 214
3 215 216 217
3 218 219 220
3 221 222 103
3 223 172 117
3 224 225 226
3 227 228 229
3 230 231 232
3 233 234 235
3 236 237 238
3 239 240 241
3 242 204 149
3 136 195 137
3 243 244 245
3 246 247 248
3 219 249 34
3 250 251 252
3 102 91 90
3 253 163 254
3 255 181 256
3 257 258 259
3 210 209 260
3 261 262 263
3 264 265 266
3 156 267 85
3 268 206 154
3 269 270 271
3 272 273 274
3 34 220 219
3 275 61 276
3 122 277 278
3 279 280 281
3 282 283 129
3 284 285 286
3 21 182 287
3 188 202 41
3 283 130 129
3 192 288 277
3 180 289 290
3 185 291 292
3 84 293 85
3 237 294 295
3 296 297 71
3 298 299 221
3 300 207 83
3 301 302 212
3 303 304 305
3 306 307 308
3 309 310 311
3 61 63 312
3 313 168 314
3 315 316 317
3 318 222 319
3 320 321 322
3 223 323 324
3 89 91 325
3 326 327 328
3 273 329 330
3 331 332 333
3 334 335 336
3 337 338 339
3 52 64 53
3 340 341 342
3 150 205 343
3 344 345 346
3 81 118 347
3 331 348 36
3 349 350 257
3 351 259 258
3 352 353 233
3 350 349 354
3 355 183 356
3 357 291 358
3 359 360 361
3 106 362 317
3 335 363 275
3 364 365 291
3 366 367 368
3 369 370 371
3 131 52 54
3 270 269 372
3 373 349 374
3 111 65 131
3 375 318 340
3 376 377 378
3 379 246 248
3 380 192 194
3 216 215 381
3 363 335 382
3 383 384 294
3 385 386 236
3 102 90 387
3 315 388 316
3 389 390 22
3 268 391 392
3 393 394 191
3 302 142 212
3 132 209 133
3 204 395 205
3 373 227 396
3 397 398 295
3 399 400 401
3 402 322 403
3 404 155 405
3 198 197 406
3 144 407 408
3 381 215 409
3 336 276 410
3 382 334 411
3 412 173 413
3 241 414 415
3 416 162 216
3 314 44 417
3 273 272 418
3 159 302 176
3 419 420 421
3 422 255 423
3 424 47 202
3 425 426 29
3 427 428 429
3 430 431 432
3 433 123 122
3 364 406 197
3 115 244 11
3 434 435 239
3 402 403 298
3 436 437 351
3 438 27 439
3 440 289 179
3 422 413 173
3 441 442 443
3 444 248 247
3 190 445 446
3 447 403 60
3 448 449 450
3 451 221 452
3 212 104 301
3 453 454 455
3 456 457 458
3 459 460 461
3 462 463 464
3 465 466 376
3 467 280 442
3 85 267 83
3 148 147 468
3 384 469 470
3 323 169 324
3 327 471 328
3 276 335 275
3 265 264 472
3 343 473 217
3 474 475 476
3 477 478 479
3 480 481 482
3 148 468 483
3 484 480 485
3 486 487 488
3 429 148 483
3 489 490 491
3 234 492 493
3 494 495 496
3 497 498 499
3 500 501 338
3 502 503 504
3 505 506 507
3 508 509 510
3 511 512 491
3 366 368 513
3 514 515 516
3 517 309 518
3 519 2 1
3 520 521 96
3 522 523 524
3 525 412 413
3 199 184 526
3 372 527 528
3 529 530 471
3 531 532 533
3 435 113 115
3 1 534 535
3 474 536 537
3 377 414 538
3 0 539 1
3 540 541 196
3 443 542 441
3 543 544 545
3 306 546 307
3 547 548 549
3 181 550 551
3 552 553 554
3 555 306 372
3 556 224 226
3 557 489 558
3 148 429 49
3 364 559 406
3 560 553 561
3 562 464 563
3 431 564 262
3 253 565 164
3 270 566 271
3 567 568 569
3 570 297 296
3 571 572 51
3 214 573 574
3 536 575 576
3 510 509 577
3 578 82 101
3 579 580 458
3 581 582 583
3 584 430 432
3 585 14 13
3 424 202 203
3 382 586 363
3 587 588 589
3 590 307 591
3 370 407 144
3 592 535 534
3 593 594 595
3 596 512 597
3 598 168 599
3 600 601 602
3 171 603 207
3 475 604 605
3 511 606 607
3 506 608 609
3 144 408 145
3 217 610 611
3 612 613 614
3 429 483 492
3 615 616 417
3 617 211 618
3 151 619 620
3 479 296 71
3 621 622 623
3 624 625 626
3 515 627 628
3 148 49 146
3 629 630 631
3 497 632 633
3 189 634 348
3 356 635 621
3 636 254 407
3 637 638 639
3 547 640 532
3 337 641 642
3 643 16 644
3 15 645 80
3 646 281 647
3 648 649 556
3 650 507 552
3 338 231 500
3 4 651 652
3 399 653 654
3 496 495 439
3 655 326 656
3 270 306 308
3 657 658 522
3 534 539 659
3 507 506 552
3 37 660 35
3 661 662 663
3 604 664 665
3 666 420 419
3 667 668 456
3 23 669 75
3 128 670 671
3 672 297 570
3 458 457 579
3 544 543 569
3 673 674 147
3 675 676 677
3 678 679 568
3 630 629 680
3 681 170 682
3 458 580 671
3 683 582 581
3 684 685 520
3 686 687 688
3 523 689 690
3 691 486 513
3 140 513 488
3 282 692 283
3 693 694 303
3 513 486 488
3 695 696 271
3 628 697 515
3 390 389 698
3 11 10 699
3 700 701 702
3 531 703 460
3 97 432 431
3 291 357 364
3 704 111 131
3 705 310 706
3 707 224 708
3 196 448 540
3 709 710 711
3 712 713 714
3 40 81 38
3 715 688 99
3 523 631 630
3 278 288 308
3 716 717 624
3 51 50 187
3 718 719 484
3 720 721 230
3 722 697 628
3 723 395 204
3 707 677 724
3 725 726 727
3 728 729 730
3 263 262 564
3 731 732 4
3 186 525 733
3 619 505 734
3 335 334 382
3 717 593 735
3 736 737 682
3 361 487 662
3 738 382 411
3 595 739 593
3 630 680 740
3 624 626 716
3 294 382 383
3 741 293 742
3 719 743 484
3 744 745 525
3 746 747 462
3 748 463 691
3 749 750 751
3 493 328 471
3 13 12 752
3 9 753 10
3 474 754 755
3 756 526 757
3 596 519 512
3 175 758 255
3 545 643 644
3 463 486 691
3 759 537 536
3 685 261 760
3 761 250 656
3 762 456 668
3 551 763 764
3 569 459 544
3 480 482 485
3 711 667 692
3 87 242 48
3 138 765 736
3 16 514 516
3 134 666 419
3 624 700 625
3 129 584 766
3 201 767 184
3 652 602 768
3 769 697 770
3 564 771 263
3 430 305 431
3 772 370 369
3 358 773 774
3 667 775 668
3 245 115 114
3 198 448 196
3 651 4 776
3 692 667 283
3 737 765 742
3 550 180 777
3 778 779 437
3 780 93 92
3 758 440 179
3 518 350 517
3 422 173 175
3 499 781 232
3 372 306 270
3 782 251 503
3 783 248 444
3 784 364 357
3 370 144 143
3 710 785 711
3 614 572 612
3 382 294 586
3 786 787 416
3 739 788 749
3 216 162 217
3 768 676 789
3 343 611 680
3 790 791 792
3 191 394 66
3 261 263 666
3 618 60 403
3 793 781 794
3 795 521 520
3 32 249 796
3 89 325 615
3 242 87 797
3 798 799 347
3 472 264 198
3 408 407 787
3 800 328 493
3 676 801 802
3 803 804 587
3 805 315 362
3 279 86 88
3 806 720 793
3 354 373 396
3 434 113 435
3 313 725 807
3 808 809 810
3 424 811 812
3 590 278 307
3 497 813 498
3 3 814 643
3 101 82 99
3 3 545 815
3 520 546 795
3 689 630 740
3 518 805 816
3 426 817 617
3 25 818 23
3 723 9 395
3 818 819 509
3 220 415 820
3 808 794 809
3 456 283 667
3 533 477 728
3 767 773 358
3 749 821 739
3 822 375 145
3 346 345 674
3 489 557 823
3 824 825 780
3 225 802 693
3 817 426 425
3 558 489 535
3 620 35 151
3 142 302 141
3 826 337 632
3 827 828 706
3 584 129 128
3 519 1 512
3 829 830 669
3 275 108 141
3 69 831 832
3 700 624 622
3 121 123 133
3 608 13 752
3 105 258 106
3 833 613 53
3 533 478 477
3 834 780 825
3 84 603 681
3 309 833 518
3 835 741 602
3 756 757 156
3 417 616 726
3 836 366 139
3 211 617 837
3 282 129 766
3 838 475 605
3 774 831 784
3 497 633 839
3 840 786 416
3 600 602 741
3 708 649 671
3 413 841 733
3 842 545 544
3 229 396 227
3 72 114 73
3 337 642 843
3 184 757 526
3 616 796 249
3 844 845 380
3 846 843 847
3 331 35 620
3 848 547 849
3 235 850 392
3 10 329 699
3 545 3 643
3 578 120 38
3 812 442 280
3 767 729 773
3 851 852 161
3 394 853 66
3 21 20 183
3 579 480 743
3 496 223 324
3 854 214 855
3 426 321 29
3 395 409 215
3 462 487 486
3 856 659 857
3 419 747 746
3 623 821 356
3 245 244 115
3 137 195 193
3 584 648 430
3 194 333 332
3 269 806 808
3 576 583 759
3 478 533 640
3 858 859 860
3 734 507 641
3 208 121 133
3 242 723 204
3 788 750 749
3 861 260 862
3 190 68 445
3 863 46 45
3 737 864 681
3 332 865 844
3 330 797 646
3 261 433 760
3 174 449 266
3 866 867 363
3 868 869 870
3 137 193 210
3 686 871 872
3 361 360 873
3 663 662 421
3 468 147 674
3 153 268 154
3 542 715 874
3 875 281 467
3 744 876 745
3 741 742 877
3 751 878 749
3 879 880 14
3 299 59 319
3 436 249 219
3 232 632 497
3 824 479 869
3 715 881 874
3 882 460 883
3 869 479 478
3 442 811 443
3 376 466 229
3 499 232 497
3 318 455 340
3 115 11 435
3 666 123 433
3 682 836 736
3 642 641 650
3 75 669 830
3 352 540 884
3 406 472 198
3 70 479 71
3 606 490 885
3 397 855 213
3 843 642 847
3 823 557 886
3 250 761 887
3 161 160 851
3 414 820 415
3 556 649 224
3 752 561 608
3 311 833 309
3 565 253 714
3 6 19 7
3 100 688 687
3 888 554 658
3 7 103 8
3 16 79 514
3 509 508 818
3 840 889 890
3 372 810 527
3 253 254 636
3 343 205 473
3 536 576 759
3 565 689 740
3 189 136 135
3 743 891 580
3 892 498 813
3 107 105 104
3 54 67 131
3 761 893 894
3 423 256 285
3 166 74 18
3 92 570 780
3 885 823 895
3 114 32 73
3 211 896 78
3 897 898 153
3 899 674 673
3 900 583 576
3 189 41 634
3 374 227 373
3 535 512 1
3 363 867 275
3 526 731 199
3 814 3 5
3 901 854 855
3 546 591 307
3 325 73 796
3 678 568 902
3 221 451 298
3 395 215 473
3 723 797 753
3 503 274 782
3 801 676 768
3 155 404 153
3 439 495 529
3 305 556 226
3 472 903 265
3 787 163 416
3 734 501 619
3 904 24 783
3 694 661 663
3 470 855 384
3 559 784 905
3 27 172 439
3 118 798 347
3 812 811 442
3 150 343 680
3 727 726 436
3 349 373 354
3 748 563 463
3 802 225 724
3 771 421 420
3 906 495 494
3 536 755 907
3 908 266 265
3 121 909 277
3 185 184 767
3 910 427 876
3 32 34 249
3 815 545 842
3 158 911 267
3 192 380 288
3 348 634 36
3 912 484 485
3 533 730 531
3 913 877 765
3 911 155 300
3 608 561 609
3 751 914 878
3 4 815 731
3 750 788 96
3 760 591 685
3 752 629 561
3 844 865 915
3 916 917 20
3 918 17 675
3 12 150 680
3 321 320 213
3 328 345 344
3 796 73 32
3 62 302 161
3 919 62 161
3 329 753 330
3 176 301 316
3 709 716 920
3 287 355 749
3 875 647 281
3 921 152 660
3 567 922 902
3 905 784 577
3 299 319 222
3 923 843 846
3 261 685 684
3 924 632 843
3 416 163 162
3 871 925 443
3 925 926 688
3 659 604 927
3 571 51 187
3 362 258 257
3 119 323 39
3 444 247 289
3 261 666 433
3 579 743 580
3 405 155 911
3 217 473 215
3 871 443 811
3 57 642 650
3 792 928 790
3 551 792 791
3 532 531 882
3 867 866 599
3 402 929 930
3 510 71 297
3 767 358 185
3 346 899 893
3 931 587 804
3 166 890 72
3 932 933 934
3 916 759 917
3 255 758 181
3 935 80 645
3 109 867 599
3 147 637 673
3 641 507 650
3 540 897 541
3 906 206 392
3 677 676 724
3 387 936 929
3 413 422 937
3 589 803 587
3 372 269 810
3 924 843 923
3 770 697 722
3 836 367 366
3 429 492 427
3 632 924 633
3 346 761 344
3 474 938 475
3 493 492 800
3 408 165 145
3 666 263 420
3 318 8 222
3 532 548 547
3 483 800 492
3 48 242 149
3 441 401 400
3 262 684 95
3 154 300 155
3 884 745 352
3 811 203 872
3 210 909 208
3 939 453 455
3 805 940 315
3 8 318 375
3 586 294 237
3 232 826 632
3 871 811 872
3 941 567 769
3 646 279 281
3 753 9 723
3 156 757 157
3 393 191 942
3 747 662 487
3 200 461 703
3 587 558 592
3 690 689 713
3 698 858 390
3 700 702 625
3 915 695 845
3 762 943 457
3 934 944 932
3 634 43 37
3 240 418 945
3 153 898 268
3 199 731 946
3 121 277 122
3 562 260 209
3 515 514 718
3 930 929 238
3 18 167 166
3 435 11 699
3 893 899 466
3 418 699 329
3 673 637 396
3 64 65 177
3 761 894 887
3 228 414 377
3 86 279 646
3 5 789 675
3 419 421 662
3 15 918 677
3 232 781 230
3 486 463 462
3 397 295 384
3 620 619 947
3 691 513 368
3 543 769 569
3 321 426 322
3 365 196 404
3 277 909 192
3 186 910 744
3 941 922 567
3 600 913 360
3 828 49 51
3 696 806 269
3 902 568 567
3 657 522 948
3 475 938 588
3 423 284 937
3 503 272 274
3 239 435 699
3 62 61 141
3 69 577 831
3 469 383 949
3 610 740 611
3 105 351 258
3 228 374 778
3 530 235 234
3 779 778 374
3 899 346 674
3 936 236 238
3 538 378 377
3 464 132 746
3 583 917 759
3 237 295 398
3 773 832 774
3 807 725 727
3 869 868 824
3 631 522 560
3 231 230 500
3 152 921 505
3 104 106 301
3 950 759 916
3 160 951 851
3 600 360 952
3 594 953 595
3 61 312 954
3 318 319 455
3 738 949 383
3 45 236 863
3 47 88 87
3 724 225 707
3 287 749 878
3 517 310 309
3 588 604 475
3 550 955 763
3 565 610 164
3 766 584 432
3 586 237 386
3 794 956 809
3 313 105 107
3 53 64 940
3 858 527 810
3 323 119 169
3 168 313 599
3 931 557 558
3 217 611 343
3 861 862 686
3 282 953 594
3 206 171 207
3 819 818 25
3 402 298 451
3 55 554 888
3 434 239 241
3 501 500 957
3 694 663 303
3 958 499 498
3 772 636 370
3 325 74 73
3 163 787 254
3 708 645 707
3 225 224 707
3 564 305 304
3 739 623 735
3 706 639 638
3 352 898 897
3 103 222 8
3 940 518 833
3 387 90 863
3 226 303 305
3 832 728 70
3 83 207 603
3 291 365 405
3 591 546 520
3 872 203 188
3 121 208 909
3 641 339 734
3 133 209 208
3 705 51 572
3 855 397 384
3 522 631 523
3 950 916 803
3 732 731 526
3 874 81 347
3 751 521 795
3 33 434 415
3 87 48 47
3 836 120 367
3 385 866 386
3 438 439 529
3 760 433 590
3 675 17 814
3 807 727 351
3 317 301 106
3 287 878 959
3 562 563 687
3 636 714 253
3 450 449 174
3 904 903 819
3 603 170 681
3 24 904 25
3 97 431 95
3 160 178 951
3 110 177 65
3 365 197 196
3 867 108 275
3 688 926 686
3 399 654 400
3 716 626 920
3 21 287 389
3 648 584 128
3 283 456 670
3 110 160 177
3 401 874 347
3 214 854 573
3 866 363 386
3 32 114 113
3 745 876 353
3 572 446 612
3 418 240 239
3 660 152 35
3 574 29 214
3 106 258 362
3 116 131 67
3 376 229 377
3 764 792 551
3 614 613 311
3 437 259 351
3 330 646 647
3 717 594 593
3 391 233 235
3 39 323 223
3 663 421 304
3 412 174 173
3 132 464 562
3 546 555 795
3 588 938 589
3 109 599 313
3 814 5 675
3 276 954 410
3 552 554 57
3 600 952 601
3 251 782 654
3 528 527 698
3 873 488 487
3 319 59 960
3 175 174 266
3 57 650 552
3 109 108 867
3 663 304 303
3 613 961 53
3 501 957 947
3 284 423 285
3 848 962 640
3 666 134 123
3 224 649 708
3 403 447 298
3 733 525 413
3 91 19 74
3 140 873 138
3 963 359 661
3 416 216 840
3 378 945 502
3 741 877 600
3 402 320 322
3 964 776 756
3 623 739 821
3 348 331 333
3 384 383 469
3 220 34 33
3 37 36 634
3 214 213 855
3 769 516 697
3 243 381 244
3 620 947 865
3 448 264 449
3 718 79 719
3 437 436 965
3 966 792 764
3 787 786 165
3 721 695 957
3 712 714 967
3 107 109 313
3 87 86 797
3 748 100 563
3 504 894 465
3 593 739 735
3 637 354 396
3 883 459 568
3 745 884 450
3 959 698 389
3 143 342 968
3 534 927 592
3 218 820 778
3 370 636 407
3 964 756 156
3 23 969 669
3 952 359 963
3 475 838 476
3 916 20 804
3 665 605 604
3 417 726 725
3 683 701 582
3 970 54 961
3 745 353 352
3 325 796 616
3 228 820 414
3 466 899 673
3 406 559 472
3 942 971 393
3 689 565 714
3 956 895 809
3 139 366 513
3 972 694 693
3 671 935 708
3 177 388 64
3 97 96 788
3 959 528 698
3 383 382 738
3 930 238 398
3 677 645 15
3 725 314 417
3 137 861 135
3 392 850 906
3 74 19 18
3 942 191 190
3 799 798 26
3 919 161 852
3 42 202 47
3 699 418 239
3 973 824 868
3 679 974 883
3 120 836 119
3 116 127 975
3 659 539 857
3 531 730 703
3 20 917 183
3 971 942 790
3 896 211 837
3 610 565 740
3 566 695 271
3 194 332 844
3 654 653 251
3 108 107 142
3 876 427 976
3 776 835 651
3 350 354 639
3 265 904 908
3 252 251 653
3 361 661 359
3 141 61 275
3 913 600 877
3 249 726 616
3 821 355 356
3 623 356 621
3 958 498 932
3 910 186 50
3 977 523 690
3 642 57 978
3 606 979 607
3 122 590 433
3 374 228 227
3 279 88 812
3 530 850 235
3 200 946 461
3 86 646 797
3 791 256 551
3 140 139 513
3 140 488 873
3 421 771 304
3 548 883 974
3 315 940 388
3 957 500 721
3 805 362 816
3 390 860 22
3 750 96 521
3 397 930 398
3 543 644 516
3 980 841 284
3 783 908 904
3 542 925 715
3 96 95 684
3 711 785 667
3 556 305 430
3 17 918 15
3 3 815 4
3 506 553 552
3 446 572 980
3 172 496 439
3 802 963 972
3 423 255 256
3 844 915 845
3 213 320 397
3 117 40 223
3 816 362 257
3 594 717 692
3 594 692 282
3 194 195 333
3 953 97 788
3 404 405 365
3 554 553 560
3 492 234 976
3 554 55 57
3 810 809 858
3 512 511 597
3 590 591 760
3 861 210 260
3 978 847 642
3 640 533 532
3 728 832 729
3 781 793 230
3 125 24 23
3 167 822 145
3 114 889 245
3 479 70 477
3 981 582 621
3 491 535 489
3 440 758 982
3 402 451 929
3 669 92 829
3 427 492 976
3 190 284 286
3 415 434 241
3 28 799 26
3 913 765 138
3 942 190 286
3 45 598 385
3 358 291 185
3 795 914 751
3 68 970 445
3 273 647 274
3 786 890 166
3 935 671 580
3 806 696 720
3 696 695 721
3 94 829 92
3 25 904 819
3 171 906 494
3 276 61 954
3 495 530 529
3 66 126 116
3 223 40 39
3 205 150 149
3 345 483 468
3 936 863 236
3 480 484 743
3 44 314 168
3 154 207 300
3 64 388 940
3 368 748 691
3 91 102 7
3 549 548 983
3 412 450 174
3 347 399 401
3 872 135 861
3 201 184 199
3 903 472 559
3 784 831 577
3 460 459 883
3 564 431 305
3 63 62 919
3 958 932 885
3 474 476 754
3 827 146 828
3 957 915 947
3 344 326 328
3 480 457 481
3 247 246 984
3 297 672 508
3 612 961 613
3 123 134 133
3 536 474 755
3 8 822 6
3 234 233 976
3 859 858 809
3 56 978 57
3 74 166 72
3 293 741 835
3 58 985 59
3 609 561 553
3 132 562 209
3 561 629 631
3 629 752 680
3 465 378 504
3 316 388 177
3 892 933 498
3 53 940 833
3 744 910 876
3 28 27 655
3 230 721 500
3 759 950 537
3 886 557 860
3 347 799 399
3 461 460 703
3 670 130 283
3 732 776 4
3 238 929 936
3 400 875 467
3 566 308 288
3 598 599 866
3 587 931 558
3 375 143 145
3 248 125 124
3 864 293 84
3 59 447 60
3 5 4 652
3 982 758 175
3 807 351 105
3 959 914 528
3 315 317 362
3 85 964 156
3 749 355 821
3 79 718 514
3 706 638 827
3 614 311 310
3 962 869 640
3 958 794 781
3 825 824 973
3 489 823 490
3 617 817 986
3 351 727 436
3 945 272 502
3 81 874 881
3 83 603 84
3 660 37 43
3 256 181 551
3 471 530 493
3 863 90 46
3 228 377 229
3 824 780 296
3 790 928 971
3 921 585 13
3 389 22 21
3 72 889 114
3 965 219 218
3 861 686 872
3 687 686 862
3 685 591 520
3 113 33 32
3 409 395 9
3 328 800 345
3 387 452 102
3 17 16 643
3 391 268 898
3 171 206 906
3 292 405 911
3 746 462 464
3 818 508 969
3 598 866 385
3 761 656 326
3 233 898 352
3 523 977 524
3 101 100 748
3 213 29 321
3 438 326 655
3 517 350 639
3 340 342 143
3 162 164 610
3 648 556 430
3 329 10 753
3 795 555 914
3 879 585 43
3 79 891 719
3 112 178 110
3 252 799 28
3 719 891 743
3 310 517 706
3 711 716 709
3 608 921 13
3 297 508 510
3 490 511 491
3 859 895 886
3 948 522 524
3 210 861 137
3 165 167 145
3 649 648 128
3 478 640 869
3 505 507 734
3 925 871 926
3 169 119 170
3 103 452 221
3 182 355 287
3 927 534 659
3 547 549 849
3 946 842 461
3 151 152 505
3 568 679 883
3 636 772 987
3 31 425 29
3 525 186 744
3 320 402 930
3 431 262 95
3 292 911 158
3 746 134 419
3 794 958 956
3 980 284 446
3 689 523 630
3 879 43 42
3 871 686 926
3 378 465 376
3 968 370 143
3 467 281 280
3 374 349 779
3 965 218 778
3 415 220 33
3 101 748 368
3 770 941 769
3 529 471 327
3 120 578 367
3 484 988 718
3 982 175 266
3 251 504 503
3 17 643 814
3 677 707 645
3 247 984 989
3 503 502 272
3 910 428 427
3 881 99 82
3 859 809 895
3 960 939 319
3 560 561 631
3 136 348 333
3 102 452 103
3 438 655 27
3 550 763 551
3 338 501 339
3 905 577 509
3 147 827 638
3 697 516 515
3 778 820 228
3 19 91 7
3 835 602 651
3 529 327 438
3 908 444 440
3 85 293 964
3 563 464 463
3 611 740 680
3 908 783 444
3 11 409 9
3 975 704 131
3 969 508 672
3 682 119 836
3 990 718 988
3 201 729 767
3 496 172 223
3 390 858 860
3 82 578 38
3 128 130 670
3 59 985 960
3 618 322 617
3 267 156 158
3 408 787 165
3 811 424 203
3 157 757 184
3 927 604 588
3 734 339 501
3 698 527 858
3 624 717 622
3 337 826 338
3 693 303 226
3 588 587 592
3 269 271 696
3 731 842 946
3 59 299 447
3 316 301 317
3 538 414 241
3 364 197 365
3 372 528 555
3 660 585 921
3 989 290 289
3 68 67 970
3 864 742 293
3 451 387 929
3 261 684 262
3 257 259 779
3 179 289 180
3 622 717 735
3 797 723 242
3 956 958 885
3 602 652 651
3 572 614 705
3 375 822 8
3 682 170 119
3 595 953 788
3 349 257 779
3 716 711 717
3 159 177 160
3 49 429 428
3 294 384 295
3 392 206 268
3 117 798 118
3 459 461 544
3 580 891 935
3 522 554 560
3 380 194 844
3 932 606 885
3 14 150 12
3 221 299 222
3 302 62 141
3 937 422 423
3 92 672 570
3 927 588 592
3 887 894 504
3 311 613 833
3 260 562 687
3 729 832 773
3 639 354 637
3 124 379 248
3 962 870 869
3 835 964 293
3 688 100 99
3 46 89 615
3 810 269 808
3 980 571 841
3 252 656 250
3 687 862 260
3 443 925 542
3 273 418 329
3 806 793 794
3 850 495 906
3 159 161 302
3 917 981 635
3 890 786 840
3 79 80 891
3 28 656 252
3 583 582 981
3 502 504 378
3 220 820 218
3 806 794 808
3 441 400 467
3 571 980 572
3 151 505 619
3 346 893 761
3 903 904 265
3 91 74 325
3 672 669 969
3 400 654 875
3 607 991 511
3 495 850 530
3 517 639 706
3 828 705 706
3 853 126 66
3 494 324 169
3 190 446 284
3 43 634 41
3 781 499 958
3 157 185 292
3 455 319 939
3 361 873 487
3 654 782 875
3 192 909 193
3 826 232 231
3 946 200 199
3 751 750 521
3 497 839 813
3 14 880 149
3 157 292 158
3 541 153 404
3 49 428 50
3 147 638 637
3 289 247 989
3 804 22 931
3 424 88 47
3 278 590 122
3 986 837 617
3 582 701 700
3 577 69 510
3 434 33 113
3 53 961 54
3 563 100 687
3 736 139 138
3 913 873 360
3 598 45 168
3 568 459 569
3 470 901 855
3 774 784 357
3 928 792 966
3 819 903 559
3 454 340 455
3 255 422 175
3 138 873 913
3 705 828 51
3 670 458 671
3 282 766 953
3 933 932 498
3 280 279 812
3 992 718 990
3 512 535 491
3 350 816 257
3 823 886 895
3 22 804 20
3 287 959 389
3 299 298 447
3 739 595 788
3 107 212 142
3 807 105 313
3 761 326 344
3 353 876 976
3 186 733 187
3 506 921 608
3 395 473 205
3 798 117 26
3 550 777 955
3 938 474 537
3 169 171 494
3 538 240 945
3 325 616 615
3 16 15 79
3 618 211 60
3 914 959 878
3 189 348 136
3 860 931 22
3 308 566 270
3 655 656 28
3 680 752 12
3 931 860 557
3 259 437 779
3 635 356 183
3 887 251 250
3 139 736 836
3 540 448 884
3 586 386 363
3 589 950 803
3 938 537 589
3 273 330 647
3 49 828 146
3 16 516 644
3 36 35 331
3 675 677 918
3 937 284 841
3 381 409 244
3 708 935 645
3 418 272 945
3 310 705 614
3 818 969 23
3 947 915 865
3 545 644 543
3 266 449 264
3 398 238 237
3 961 445 970
3 897 153 541
3 801 768 952
3 737 681 682
3 128 671 649
3 441 467 442
3 345 800 483
3 80 935 891
3 601 768 602
3 183 355 182
3 338 826 231
3 621 635 981
3 380 845 566
3 387 863 936
3 603 171 170
3 438 327 326
3 952 360 359
3 622 621 700
3 768 601 952
3 735 623 622
3 589 537 950
3 879 14 585
3 412 745 450
3 879 42 48
3 676 802 724
3 97 953 432
3 413 937 841
3 956 885 895
3 110 65 111
3 352 897 540
3 92 669 672
3 802 801 963
3 46 615 44
3 558 535 592
3 364 784 559
3 730 533 728
3 747 487 462
3 765 877 742
3 407 254 787
3 812 88 424
3 539 0 993
3 134 746 132
3 974 983 548
3 457 456 762
3 50 428 910
3 243 216 381
3 345 468 674
3 350 518 816
3 730 200 703
3 915 957 695
3 54 970 67
3 944 979 606
3 466 465 893
3 460 882 531
3 426 617 322
3 982 908 440
3 243 840 216
3 444 289 440
3 944 606 932
3 243 889 840
3 386 237 236
3 236 45 385
3 747 419 662
3 912 988 484
3 143 375 340
3 526 756 732
3 480 579 457
3 972 661 694
3 249 436 726
3 302 301 176
3 135 188 189
3 125 783 24
3 875 274 647
3 539 993 857
3 477 70 728
3 403 322 618
3 276 336 335
3 815 842 731
3 673 396 229
3 525 745 412
3 659 856 604
3 361 662 661
3 304 771 564
3 789 676 675
3 542 401 441
3 620 865 332
3 882 548 532
3 890 889 72
3 900 581 583
3 165 786 166
3 188 135 872
3 756 776 732
3 528 914 555
3 60 77 58
3 790 286 285
3 417 44 615
3 652 768 789
3 177 176 316
3 582 700 621
3 225 693 226
3 789 5 652
3 802 972 693
3 505 921 506
3 466 673 229
3 555 546 306
3 982 266 908
3 684 520 96
3 771 420 263
3 277 288 278
3 566 845 695
3 945 378 538
3 976 233 353
3 766 432 953
3 660 43 585
3 409 11 244
3 880 48 149
3 370 968 371
3 905 819 559
3 911 300 267
3 905 509 819
3 827 147 146
3 835 776 964
3 793 720 230
3 331 620 332
3 943 481 457
3 341 340 454
3 823 885 490
3 401 542 874
3 714 713 689
3 445 961 612
3 538 241 240
3 99 881 715
3 101 368 578
3 721 720 696
3 965 436 219
3 785 775 667
3 405 292 291
3 681 864 84
3 46 90 89
3 769 543 516
3 530 234 493
3 972 963 661
3 834 93 780
3 300 83 267
3 737 736 765
3 164 163 253
3 39 38 120
3 975 131 116
3 541 404 196
3 118 81 40
3 824 296 479
3 494 496 324
3 193 909 210
3 290 777 180
3 917 635 183
3 822 167 6
3 387 451 452
3 907 575 536
3 967 636 987
3 285 256 791
3 570 296 780
3 501 947 619
3 799 653 399
3 992 627 515
3 191 66 68
3 898 233 391
3 991 597 511
3 952 963 801
3 125 23 98
3 339 641 337
3 831 774 832
3 465 894 893
3 887 504 251
3 965 778 437
3 733 841 571
3 367 578 368
3 288 380 566
3 571 187 733
3 930 397 320
3 42 41 202
3 799 252 653
3 550 181 180
3 69 71 510
3 860 859 886
3 606 511 490
3 264 448 198
3 456 458 670
3 692 717 711
3 69 832 70
3 307 278 308
3 574 30 29
3 506 609 553
3 515 718 992
3 790 942 286
3 243 245 889
3 461 842 544
3 548 882 883
3 884 448 450
3 200 730 201
3 848 640 547
3 48 880 879
3 583 981 917
3 725 313 314
3 117 172 26
3 916 804 803
3 162 610 217
3 337 843 632
3 967 714 636
3 664 604 856
3 805 518 940
3 729 201 730
3 758 179 181
3 774 357 358
3 925 688 715
3 82 81 881
3 753 797 330
3 554 522 658
3 391 235 392
3 285 791 790
3 782 274 875
3 539 534 1
3 446 445 612
3 333 195 136
3 569 769 567
3 864 737 742
3 248 783 125
