ply
format ascii 1.0
element vertex 994
property float x
property float y
property float z
element face 1828
property list uchar uint vertex_indices
end_header
110.534 184.316 36.4928
110.113 183.746 37.2363
111.426 183.849 37.2857
85.7793 183.747 31.6266
85.7123 182.644 30.4405
86.7998 182.832 31.432
107.46 181.692 13.8424
106.979 182.563 13.0374
108.598 182.291 13.3397
102.83 176.429 18.5572
101.687 176.655 18.0756
102.421 177.401 17.4129
106.922 175.536 22.0496
106.796 175.276 23.2768
105.66 175.132 22.3953
88.4227 184.733 33.9729
86.9322 185.502 33.8362
87.3667 184.423 33.1354
106.437 181.071 14.3725
106.094 181.89 13.6581
103.936 183.926 38.5547
103.509 183.223 37.6977
104.914 182.987 37.3787
78.3108 189.225 20.5925
79.4742 188.485 19.8668
79.4569 187.831 20.5826
92.0681 175.263 21.1004
91.2206 175.928 20.5117
92.5461 175.473 20.0171
109.801 189.233 6.978
109.556 190.476 6.0639
111.456 189.911 6.4419
102.158 180.542 14.8849
100.83 179.961 15.3445
100.943 180.893 14.6352
105.258 175.37 26.5215
104.029 175.187 26.4559
104.553 175.031 25.4933
92.0646 174.928 24.7163
90.8239 175.656 24.3162
91.7775 175.09 23.5335
102.546 174.708 24.7448
103.054 174.666 23.5217
104.141 174.821 24.4128
102.493 184.288 11.596
103.17 185.174 10.8252
103.769 184.111 11.6376
101.982 174.657 22.7952
103.309 174.86 22.1492
89.6643 182.241 16.0733
88.5071 182.877 16.1409
89.2767 183.735 15.3549
92.0766 188.272 11.5529
91.998 187.027 12.3901
91.0953 188.136 12.0584
112.313 176.906 25.3881
112.316 176.935 26.1633
111.152 176.606 26.03
112.143 184.713 11.1785
110.988 184.324 11.4976
110.832 185.434 10.5002
98.5474 189.221 8.2938
97.2558 189.161 8.8385
97.4383 190.441 8.272
93.0585 187.65 11.539
92.7026 189.04 10.8991
88.9586 189.687 12.1015
90.1111 188.94 12.0142
88.8898 188.532 12.7592
79.6631 186.381 24.9031
79.3888 186.62 26.1338
78.7165 187.304 25.1905
104.785 180.195 15.0729
103.65 180.872 14.5815
105.058 181.278 14.2177
77.2532 190.626 20.9699
77.6772 190.627 20.2615
112.118 185.277 10.6769
112.112 185.852 10.159
88.1656 185.927 34.8305
89.3005 185.112 34.7503
93.274 174.605 23.7914
93.3362 174.58 25.2331
86.1819 179.664 25.36
86.7528 179.109 26.333
85.8385 180.092 26.7495
100.977 175.01 21.0589
102.08 174.932 21.4996
100.868 174.655 22.2048
104.283 183.094 12.5531
105.138 183.822 11.8508
105.335 182.587 13.032
76.7876 189.383 23.2804
76.047 190.255 24.0654
76.1476 190.421 23.2339
97.254 181.474 34.8829
98.5054 181.703 35.3627
97.2035 182.281 35.8599
78.104 190.603 19.55
94.7596 174.573 25.7533
95.2351 174.925 26.9084
93.6979 174.745 26.5235
106.333 183.442 12.1921
107.844 183.234 12.4279
97.581 185.859 10.9669
98.2794 184.949 11.6382
96.8059 185.294 11.5882
98.7112 186.104 10.5831
99.2761 187.258 9.4959
99.8439 186.329 10.2551
93.4976 189.504 10.2992
92.1855 190.661 10.3371
92.9421 190.56 10.0427
101.9 179.372 15.8178
103.335 179.707 15.4955
102.673 178.53 16.4425
90.1786 189.818 11.534
91.6772 175.219 22.3159
92.7949 174.774 22.8136
89.6504 176.502 25.1628
90.9357 175.579 25.4692
99.1498 177.434 30.5558
99.4791 178.212 31.4649
98.0235 178.098 31.1395
78.5263 190.71 18.8113
79.0017 189.465 19.4135
89.1864 190.815 11.4606
89.9235 190.798 11.1283
93.4918 184.317 36.135
94.7743 184.372 36.834
94.049 184.994 37.0266
91.3864 189.464 11.2215
96.6686 176.912 29.6253
97.8134 177.25 30.1578
96.6543 177.929 30.6899
100.52 174.866 26.4924
101.637 175.155 27.2159
100.409 175.33 27.8435
90.0987 177.419 28.6916
90.5237 176.43 27.8981
91.1509 177.016 28.8173
98.2873 188.193 8.9771
98.1045 187.239 9.718
110.997 180.452 15.0539
110.321 179.774 15.6707
109.274 180.419 15.0025
90.8432 181.776 15.9296
92.0445 180.938 16.0029
90.4768 181.027 16.4904
104.592 175.263 21.3081
106.154 175.617 21.1942
106.353 175.724 26.9729
106.416 175.446 25.8296
85.1531 181.036 22.0038
85.826 180.18 23.11
84.825 181.201 23.3224
84.8049 181.192 26.9792
83.7047 182.312 26.4486
84.3273 181.529 25.8349
95.4615 188.589 9.9474
94.6619 189.477 9.8179
96.0391 189.403 9.2424
107.533 177.433 18.0962
108.611 178.017 17.5703
108.895 177.498 18.4452
107.927 179.772 15.4883
106.352 180.226 15.0962
107.709 180.685 14.7496
101.607 185.178 10.9788
88.8251 177.176 24.014
88.3346 177.552 25.02
87.7189 178.202 23.7243
90.8124 175.911 21.6764
84.5879 185.298 16.9667
83.8453 185.098 17.882
83.6137 186.292 17.1291
95.6535 187.701 10.4015
94.2081 188.268 10.6845
93.6725 190.585 9.7143
82.3658 188.516 16.4312
82.1691 189.505 15.8241
83.3096 188.417 15.6172
102.474 183.413 37.8047
102.538 184.072 38.6787
83.0236 183.236 27.4369
82.8523 183.146 25.8787
87.2195 183.322 16.5165
88.0555 183.856 15.7681
101.033 174.694 25.2524
101.955 174.886 25.9963
87.8651 187.949 13.5019
87.9143 189.376 12.7154
101.485 176.907 30.071
100.857 176.089 29.0452
102.471 176.259 29.2495
101.653 175.645 28.3448
83.4731 182.934 21.2248
82.6815 183.632 21.8419
82.6987 184.036 20.5642
83.1647 183.901 28.7292
82.3323 185.032 29.1037
82.1154 184.461 27.9458
101.622 174.586 24.0135
100.219 174.528 24.4823
103.997 175.625 20.1972
105.212 175.774 20.2572
86.8686 179.148 22.8325
86.5592 179.313 24.1065
98.8748 176.63 29.6071
97.8511 176.263 29.1541
99.3562 175.811 28.6392
111.007 186.337 9.6993
97.4111 186.822 10.2314
108.022 188.522 7.4191
108.185 189.387 6.6637
105.273 176.826 18.4093
106.184 177.528 17.5884
106.762 176.831 18.8767
98.8018 181.168 14.6031
99.9505 181.588 14.1551
99.7155 180.574 14.9645
108.4 184.159 11.5713
109.248 183.208 12.5127
90.614 175.849 22.9628
92.1011 182.993 34.3179
91.4427 182.327 33.4106
92.8529 181.976 33.7478
95.7265 180.757 15.2538
96.8778 180.427 15.3922
95.2961 179.955 15.9149
108.166 178.135 31.4568
108.838 177.63 30.6713
109.789 178.155 31.3149
86.5115 180.338 19.4105
87.7119 179.368 18.8689
87.2983 179.155 20.0346
104.141 186.114 9.94
104.328 187.29 8.8436
105.442 186.5 9.4351
100.053 178.042 16.8968
98.8386 177.949 17.0156
99.0499 178.842 16.3222
103.063 175.247 20.8426
104.947 178.121 16.7918
103.633 177.733 17.0788
103.807 178.706 16.2828
79.5376 190.665 17.464
80.4476 189.688 17.3809
79.683 189.565 18.3453
101.224 181.803 13.8488
93.7868 176.291 18.7047
95.2161 175.87 19.0397
93.7513 175.49 19.5054
110.078 177.902 18.2504
109.741 178.387 17.291
84.0797 187.18 15.9643
84.513 188.047 15.0415
95.8191 183.55 13.0781
97.0449 184.269 12.272
97.1434 183.351 13.0202
98.0286 175.463 28.1543
97.6193 179.813 33.0819
96.7884 180.695 33.9535
96.4305 179.869 32.934
82.575 184.937 19.5335
81.6624 186.168 19.4627
82.6934 185.93 18.4869
85.2514 180.639 25.6581
86.1388 180.044 21.8561
105.052 179.4 33.0025
103.593 179.088 32.748
104.548 178.539 32.085
98.0153 176.499 18.1088
99.1518 176.066 18.634
97.8008 175.757 19.0748
99.8851 188.206 8.5722
99.8265 189.295 7.9202
100.558 177.564 30.824
100.947 178.385 31.8012
99.8352 174.798 21.4481
98.7703 174.652 21.8118
98.7232 175.029 20.7161
95.7968 184.534 37.5255
94.6279 185.569 37.839
86.9286 186.907 14.557
85.8533 187.902 14.4383
86.7731 188.145 13.8903
102.241 182.729 36.9604
101.979 177.81 31.1508
81.368 189.385 16.7493
81.4143 190.722 15.8556
82.7482 183.266 24.2154
83.5786 182.371 25.0049
86.6378 179.552 27.8303
103.971 188.425 7.859
105.198 188.111 7.9609
77.7762 188.268 25.3063
78.266 187.873 24.0441
108.7 185.107 10.6771
109.67 184.115 11.649
85.5294 180.369 24.3478
96.4238 186.684 10.7323
96.8279 188.016 9.638
93.3695 180.997 33.1434
94.3316 180.396 33.0485
94.3728 181.528 34.0627
102.419 179.607 33.328
101.207 179.246 32.8172
102.322 178.673 32.2588
92.4626 184.73 13.6384
91.5056 184.252 14.2907
91.5066 185.281 13.6612
98.2212 190.466 8.0423
99.9565 185.23 11.1748
101.154 184.494 11.6015
94.6922 186.016 11.909
95.084 187.026 11.0754
95.7728 185.924 11.5079
110.064 182.329 13.3503
110.79 183.314 12.4582
107.923 187.413 8.4621
109.082 188.118 7.874
109.255 187.074 8.8977
89.8899 176.325 24.0077
89.5202 176.666 23.0905
103.829 182.102 13.5337
91.4815 176.993 18.526
90.2649 177.206 18.9037
90.3769 178.083 18.1248
100.425 176.375 18.3193
100.331 175.668 19.2891
104.148 175.541 27.457
103.859 175.936 28.5788
102.821 175.587 27.9923
101.411 190.416 7.2602
101.055 189.07 7.8781
100.604 190.459 7.41
110.156 177.099 28.8924
108.776 177.094 29.5688
108.794 176.71 28.5557
111.207 181.42 14.1499
112.518 181.272 14.3871
112.471 180.715 14.8965
106.628 176.141 20.194
91.6698 177.9 17.8633
91.1333 179.03 17.3206
92.4383 178.485 17.2712
94.0727 174.632 22.2813
102.913 175.173 26.8292
95.3886 182.551 13.9065
94.2262 183.346 13.762
98.3825 183.683 12.6374
85.3706 181.635 19.4697
86.1833 181.412 18.6472
94.1852 182.103 14.5138
101.397 183.457 37.7906
101.08 184.29 38.7891
81.849 184.216 24.022
82.0878 183.903 25.2668
91.0793 179.565 30.9079
90.3931 179.037 30.2147
91.9439 178.674 30.6459
95.6721 184.801 12.264
101.607 187.951 8.5909
82.0231 184.154 22.8599
83.1076 183.057 22.845
91.327 175.838 27.3904
91.3842 175.422 26.4897
92.6117 175.258 27.274
112.581 179.336 16.7003
111.432 179.374 16.3041
112.565 179.747 16.0751
103.769 180.037 33.8057
95.175 181.604 14.6443
96.3442 181.57 14.5626
109.883 181.359 14.2035
95.6683 178.955 16.5657
96.6722 179.341 16.1808
96.5143 178.112 17.1129
78.9869 190.709 18.1321
102.798 177.146 30.4159
104.832 177.383 17.5564
102.452 189.095 7.611
103.871 189.346 7.2119
105.31 189.054 7.1609
103.032 186.214 9.9616
103.028 187.119 9.1842
106.044 184.654 11.0613
94.0241 187.102 11.52
103.742 182.444 36.6851
104.973 182.107 36.3398
86.5383 179.843 20.6128
87.0994 179.137 21.4817
87.0668 190.684 12.4984
87.7735 190.691 12.1361
104.2 176.203 19.1048
94.4368 180.872 15.3584
106.616 188.083 7.8228
105.739 187.349 8.6027
94.9624 174.798 21.2048
96.3722 174.776 21.2924
95.5261 174.49 22.3156
108.074 186.203 9.6531
109.357 185.901 9.9918
84.0727 182.078 22.4963
83.7826 182.234 23.7498
81.9298 184.473 21.574
110.165 178.967 16.6193
109.147 179.481 15.8456
103.798 176.896 18.0091
99.8192 190.433 7.6276
102.21 190.393 7.0892
85.009 184.195 17.5041
85.7359 185.014 16.297
97.9617 179.563 15.8839
99.3665 179.726 15.6279
107.303 178.165 17.0912
101.766 183.501 12.3504
99.3341 177.023 17.7203
95.2742 178.458 31.189
95.7724 179.152 32.048
94.4948 179.287 31.9662
84.8264 186.164 16.1286
85.3867 187.069 15.2202
100.575 174.504 23.355
111.698 188.809 7.5623
110.325 188.173 7.935
88.0072 181.075 17.4658
88.6665 181.838 16.7012
89.2774 180.954 16.9757
94.7951 182.386 35.0131
95.914 181.65 34.7773
95.9707 182.654 35.7636
98.3583 178.879 32.077
100.468 179.012 16.1313
101.438 178.253 16.6975
99.5912 182.578 13.3997
98.0369 182.657 13.4932
90.5682 176.635 19.6914
90.0383 176.676 20.8757
81.8439 188.038 17.4548
96.9216 174.419 22.4851
98.2603 174.417 22.7578
97.6159 174.353 23.7403
80.8681 188.622 17.9574
89.1573 187.337 13.3541
88.4124 186.607 14.07
109.893 184.965 10.8759
83.5829 183.608 19.6842
83.4053 184.667 18.8465
84.3608 183.826 18.4997
107.464 185.09 10.6611
107.167 184.12 11.5423
112.515 182.429 13.3459
112.528 181.848 13.878
111.301 182.403 13.3327
93.3793 186.591 38.0217
92.0684 187.061 37.6998
92.286 185.966 36.9075
82.4422 186.769 31.6396
81.7136 186.728 30.6186
82.7649 185.653 30.6199
94.2827 177.123 29.608
94.3917 176.203 28.5908
95.5576 176.528 29.0819
95.1335 178.141 17.2338
94.4449 179.174 16.5415
97.6578 174.727 21.4655
91.2235 180.155 16.6846
104.656 190.334 6.624
105.481 190.406 6.4876
89.3323 177.879 18.9433
81.7868 185.161 20.4957
105.623 176.309 19.3638
106.167 186.237 41.3578
107.764 186.094 41.2148
106.91 187.206 42.0813
79.3117 187.004 27.1631
78.795 187.835 27.6721
78.3223 187.811 26.4373
90.5977 187.361 37.1737
91.3164 188.111 38.1211
90.5437 188.246 37.9193
90.038 180.007 17.2362
89.1965 187.45 36.5737
89.8073 188.368 37.6148
93.1932 176.757 29.0825
92.8851 177.764 30.2053
92.1274 177.187 29.3731
108.579 182.578 36.5455
109.545 181.717 35.36
109.546 182.532 36.1852
88.6335 179.939 17.863
88.8581 178.733 18.4908
88.647 177.472 22.6954
88.8475 177.553 21.2504
89.7088 176.69 22.0436
111.191 178.39 31.4524
111.133 179.296 32.7098
110.13 178.908 32.2837
107.656 177.286 30.358
107.513 176.636 29.0695
96.867 177.09 17.727
96.5926 176.227 18.4499
95.629 177.051 17.9283
107.533 175.805 26.347
108.426 175.794 25.2754
108.89 176.101 26.5021
78.5869 187.708 22.7592
79.4579 186.843 22.4654
79.1413 187.013 23.8317
110.683 182.008 35.6311
110.393 182.94 36.5496
92.0239 176.257 28.2866
86.9726 186.503 34.7501
86.3361 187.46 35.1962
85.6394 186.567 34.0491
92.854 183.738 14.0696
93.5006 184.743 13.1997
111.47 183.374 36.7384
99.6054 180.743 34.3411
99.7674 181.465 35.188
111.471 176.438 22.936
111.153 176.757 21.4667
112.34 177.207 21.8959
86.0208 183.799 16.9319
83.975 182.908 28.5989
104.435 180.78 34.7424
103.217 180.963 34.9785
89.4013 177.339 20.0238
88.3905 178.274 19.7485
80.8371 186.713 29.2636
79.8897 187.733 29.3868
79.9199 187.035 28.2794
109.13 184.298 38.1373
108.937 183.399 37.1569
104.547 186.304 41.297
105.404 185.615 40.6969
97.6969 178.586 16.6264
110.14 184.566 38.3098
84.2628 182.443 20.1773
84.322 181.977 21.3927
96.1707 174.337 23.5003
84.4565 186.167 33.0052
83.6039 185.801 31.8388
84.8365 184.922 32.0795
101.108 180.146 33.8004
79.149 188.599 29.798
80.0629 188.386 30.7045
79.0491 189.495 30.7756
82.9624 189.612 15.0726
83.9577 189.347 14.6276
109.909 176.168 25.5367
109.772 176.052 24.4448
111.16 176.39 24.5941
102.292 180.453 34.3044
93.4474 182.582 34.5871
107.41 182.557 36.7206
107.634 183.363 37.5071
81.1109 185.317 21.8231
110.432 176.216 23.5135
109.15 175.955 23.1785
96.699 175.855 28.6067
95.4916 175.545 28.057
95.506 180.756 33.7508
109.796 177.24 19.327
103.46 178.064 31.5458
82.9847 187.83 33.3367
82.0294 187.876 32.4371
83.2457 186.858 32.6437
77.4473 188.684 24.0972
88.1514 184.77 15.1893
89.2026 185.181 14.5767
107.934 190.48 6.1635
108.748 190.382 6.1603
103.885 187.234 41.9082
103.133 187.225 41.8086
80.0337 186.14 23.5405
92.32 174.874 25.9787
91.2778 186.523 36.8567
91.1109 185.671 36.0616
101.634 187.199 41.6194
100.953 186.13 40.895
102.523 186.077 40.9763
94.7584 183.417 35.9594
105.641 175.014 23.8222
102.991 188.012 8.3471
106.759 184.098 38.5765
107.722 185.093 39.7501
106.381 184.912 39.7634
99.8916 178.961 32.3644
100.04 179.825 33.3548
107.969 184.197 38.2855
97.9012 184.315 38.3108
96.8427 184.471 38.0004
97.8443 183.554 37.4465
111.547 182.9 36.2737
111.714 182.432 35.9584
102.117 185.894 10.3626
100.913 186.098 10.3345
88.9125 179.506 29.9022
88.6324 180.402 30.5175
87.598 180.594 30.079
87.2072 178.611 25.0168
109.254 186.021 40.6093
108.447 187.1 41.9732
110.778 181.092 34.6293
111.927 181.499 35.0031
107.894 175.581 23.8619
108.812 175.818 24.2223
108.273 176.991 19.1278
107.729 176.496 19.9545
89.755 186.247 13.7645
91.1051 186.2 13.276
90.4375 185.212 14.1235
103.082 183.205 12.486
102.276 182.463 13.1934
110.676 187.315 8.7714
110.058 186.429 9.5394
106.907 176.109 27.877
105.377 175.859 27.895
100.472 185.174 39.8526
99.0135 185.292 39.6961
99.8208 184.458 38.8556
98.2906 186.17 40.2092
98.6404 187.344 41.0363
97.8924 187.342 40.8086
86.2245 188.577 35.7641
85.4954 188.665 35.4209
108.929 176.081 21.9372
109.683 176.456 21.1136
110.235 176.352 22.2933
111.087 177.729 30.1822
112.505 178.115 30.4681
103.278 174.917 25.5499
101.793 184.763 39.4631
111.273 178.496 17.6234
93.2846 181.351 15.3037
92.4271 182.034 15.2236
93.1293 182.688 14.5548
78.7773 188.437 28.6507
109.576 176.595 27.6949
111.008 176.911 27.5943
86.1512 184.685 32.6805
85.5981 185.596 33.1955
89.924 184.206 34.2908
100.06 175.225 20.324
98.8875 175.459 19.6544
93.8134 183.303 35.3819
92.6401 183.737 35.2232
110.141 176.467 26.6562
86.46 181.423 29.9888
87.1428 181.793 30.7754
94.7116 175.215 20.0612
95.9027 175.172 20.2198
91.6335 176.139 19.4049
92.6533 176.254 18.8599
112.423 177.101 23.2981
112.374 177.028 24.0414
109.742 185.264 39.2463
105.567 175.126 25.026
92.2302 179.654 31.4544
93.4316 178.739 31.2488
93.4498 179.811 32.1437
110.95 186.639 41.3076
109.241 187.17 42.0649
96.9044 178.87 31.8682
94.7007 186.656 38.7632
93.5398 187.843 39.0311
77.2986 189.458 21.8203
93.2378 185.467 36.9992
92.1594 184.858 35.9017
77.7174 188.592 22.8929
93.5551 180.175 15.9746
92.2786 179.702 16.5599
88.037 183.161 32.4545
89.1711 182.246 32.3005
89.302 183.426 33.3319
81.4121 188.994 32.8588
80.7744 189.053 32.374
107.882 176.079 21.1355
87.8058 178.052 26.0504
88.9177 177.035 26.2403
100.872 187.26 41.5301
98.1198 180.809 34.2486
98.7988 180.198 33.607
98.0038 174.76 26.2428
96.7019 175.044 27.3463
96.2516 174.675 25.9695
110.779 177.04 20.1776
112.374 177.433 20.5173
93.2319 175.936 28.1315
95.9102 185.551 38.5076
92.0508 181.448 32.9053
92.6389 180.478 32.3873
105.193 177.71 31.1152
105.755 178.526 32.044
85.119 187.627 34.6287
104.133 181.569 35.6827
100.85 177.285 17.4824
99.5938 186.121 40.6354
100.116 187.252 41.3657
99.3864 187.289 41.2013
81.7732 185.937 29.6232
91.4241 190.725 10.6185
90.3535 184.11 14.7988
91.7263 183.219 14.7979
90.7407 183.306 33.9475
91.3998 184.026 34.8655
96.3918 187.592 40.3876
95.6757 187.686 40.0929
95.9881 186.539 39.386
112.431 177.939 19.2205
112.368 177.673 19.8274
111.17 177.752 18.9762
95.5577 174.438 24.7041
97.1133 186.466 39.913
97.3721 185.412 39.1406
87.7675 187.325 35.7502
88.8383 186.609 35.7152
106.991 178.437 31.9389
106.66 177.768 31.1412
84.779 188.727 35.0201
102.853 175.767 19.6199
90.1821 182.576 33.0564
100.452 183.981 12.1244
100.867 182.86 13.0066
99.6215 183.423 12.7175
80.2478 186.075 27.2599
81.1835 185.075 27.1625
81.1628 185.758 28.3473
84.2582 183.553 29.8638
84.9034 182.528 29.4014
86.9001 184.446 15.9798
108.131 176.278 27.5829
98.6226 184.598 38.8092
89.374 176.868 27.5799
88.3112 177.683 27.267
103.017 190.379 6.9104
99.1014 183.626 37.7289
109.08 176.639 20.1468
87.5601 179.58 29.112
87.7722 178.643 28.1564
90.1007 186.559 36.2829
86.4412 182.74 17.3482
85.5259 182.758 18.1987
95.5091 177.495 30.1251
94.2321 177.953 30.5808
94.1497 175.328 27.549
100.347 182.843 36.897
99.4759 182.266 36.1155
100.709 181.874 35.7761
107.934 175.688 22.5684
101.604 175.939 19.0467
106.138 187.182 42.0331
105.387 187.115 41.9693
84.843 181.75 28.2633
83.9625 182.207 27.5446
83.0224 187.48 16.6833
103.805 185.72 40.6358
98.9055 179.473 32.8276
92.9662 177.294 17.997
92.7917 187.927 38.7088
83.4987 190.795 14.5088
84.2078 190.77 14.0835
88.9141 177.8 28.3993
95.7615 183.596 36.6502
82.1347 183.969 26.7047
88.52 181.277 31.1699
84.1498 187.385 33.7954
84.1037 188.746 34.6069
95.265 179.899 32.8127
112.676 178.975 17.3439
81.329 184.647 25.9549
81.1662 184.836 24.7906
94.2439 187.776 39.3964
85.6631 181.549 29.2098
82.0822 190.764 15.3809
97.5543 181.525 14.4549
96.6823 182.509 13.76
76.8248 189.232 24.897
108.948 178.94 32.4505
96.5353 175.567 19.3634
80.2359 188.357 18.9998
81.0451 185.127 23.3061
94.958 187.76 39.7581
107.086 179.111 16.0663
108.507 178.771 16.4979
98.469 182.772 36.6094
87.9636 182.25 31.6688
85.9698 189.234 13.5624
85.0813 188.681 14.3215
84.9151 189.682 13.9112
107.785 178.946 32.476
107.832 179.694 33.3614
100.948 180.962 34.725
102.616 181.51 14.0572
101.629 175.389 20.1742
92.9162 174.874 21.7794
93.6031 174.969 20.8375
89.7942 179.11 17.8151
89.6949 181.203 31.672
90.6663 181.603 32.4589
105.614 184.42 39.1852
105.306 183.785 38.3388
94.3406 185.244 12.5465
106.537 179.173 32.8356
99.2955 184.382 11.9331
106.351 179.839 33.5859
106.823 180.532 34.4369
105.336 180.296 34.161
99.1091 174.432 23.9346
99.5953 174.479 22.6961
112.398 178.777 31.7723
86.8906 183.719 32.2366
84.8765 183.839 30.9289
94.7421 184.184 13.0584
111.76 188.208 8.1049
78.9501 187.753 21.4722
80.0547 186.648 21.2198
98.252 180.464 15.1844
100.267 183.684 37.9546
108.644 181.316 14.2097
108.496 181.755 35.6497
77.2011 188.96 26.2933
76.2699 190.112 25.7363
109.894 177.513 30.0689
91.51 182.212 15.4594
90.4628 182.987 15.3827
76.4557 190.531 22.4427
76.8238 190.576 21.6801
80.4797 185.593 24.4929
80.4027 185.589 25.8826
92.4086 185.818 13.0041
76.0788 190.183 24.9033
86.5705 180.468 28.9803
90.1281 176.162 26.5643
111.99 187.036 9.1409
107.691 187.203 42.0924
112.478 178.427 31.1289
106.047 178.446 16.5831
86.9277 185.528 15.3526
83.9259 184.744 30.9566
111.437 177.363 28.8358
103.771 176.549 29.682
104.074 177.331 30.6608
112.553 177.469 28.3154
112.393 177.243 27.6116
78.2041 189.641 29.3533
78.6161 189.578 30.079
87.9422 178.396 20.9157
95.1404 190.612 9.0607
95.9029 190.599 8.7498
88.4653 190.795 11.7897
107.124 190.449 6.2559
106.709 189.212 6.8563
110.995 185.765 39.6582
111.058 185.276 39.0564
105.516 181.246 35.3432
106.662 181.346 35.3878
106.113 182.237 36.4166
99.2289 175.02 27.1751
97.9245 175.016 27.2353
104.511 184.904 10.924
87.3304 178.579 27.1686
104.907 176.25 29.0043
101.818 186.873 9.5342
100.609 187.212 9.4187
76.9138 190.064 27.2415
77.813 188.79 27.4987
77.3212 189.908 27.9637
98.252 174.525 24.8915
99.4401 174.668 25.5651
91.1801 177.995 29.7044
94.7679 174.438 23.4432
97.4302 175.187 20.2501
86.8043 181.737 17.8179
88.5797 178.769 29.0669
101.565 182.232 36.2691
104.415 174.824 23.1888
104.495 174.96 22.1967
94.3156 174.456 24.5676
80.752 187.456 30.3086
81.194 187.889 31.4865
84.6496 182.8 19.1436
109.45 180.826 34.4559
107.316 181.843 35.892
94.4952 176.724 18.3102
112.363 176.945 24.7189
104.753 179.149 15.9256
105.845 179.431 15.7302
89.7116 185.786 35.4746
112.42 179.186 32.3763
93.7185 178.258 17.2513
94.2774 177.504 17.8056
107.949 181.065 34.915
112.111 186.44 9.6491
84.968 181.476 20.6516
85.7327 180.705 20.6186
93.2805 179.192 16.6838
102.388 187.21 41.7205
106.308 190.422 6.3818
82.0599 188.971 33.2975
80.9331 186.085 20.5447
80.5034 187.232 19.8269
80.3513 185.943 22.3822
87.829 178.266 22.2578
104.622 187.133 41.9224
81.4407 187.285 18.6639
100.095 176.713 29.7968
87.5962 182.244 16.972
84.5669 181.368 24.5624
89.0862 188.452 37.2459
89.7832 178.408 29.3511
101.956 181.36 35.2803
105.143 176.861 30.0284
104.31 184.633 39.4468
103.053 184.939 39.7686
88.3428 183.889 33.2321
96.6467 190.555 8.488
97.1469 187.48 40.6224
106.992 175.404 24.7321
82.7473 188.871 33.7051
112.57 177.663 29.0628
112.591 177.883 29.7575
96.8133 174.433 24.67
97.2649 174.614 25.5767
108.73 185.04 39.3096
85.645 190.661 13.22
106.62 185.829 9.9871
106.876 186.851 9.0236
106.343 183.177 37.5146
110.93 180.196 33.6997
112.418 179.623 32.9774
112.35 180.088 33.4884
90.6806 184.903 35.2364
105.334 185.567 10.2667
86.0048 186.13 15.4551
106.827 185.526 40.651
112.398 183.009 12.7978
93.3398 186.25 12.3645
83.4157 188.85 34.1824
87.02 189.272 13.1075
92.0647 188.04 38.4319
112.289 180.569 34.0096
97.885 177.517 17.3624
83.2882 184.551 29.8893
106.155 176.392 28.9828
112.415 177.158 22.6019
103.831 190.408 6.7447
104.953 185.111 40.045
94.3997 190.619 9.3692
89.7576 180.166 30.796
96.8798 183.321 36.8558
99.0166 190.443 7.8344
82.7778 190.75 14.9641
108.387 180.347 34.0489
106.389 177.009 30.1529
109.591 179.784 33.3517
102.863 181.877 35.9767
112.264 183.573 12.2797
90.5666 187.108 12.9275
77.7775 189.781 28.637
90.7964 180.475 31.5413
85.6713 180.668 27.9812
98.7186 181.981 13.9851
84.9136 190.713 13.6413
112.599 178.307 18.6061
112.539 180.204 15.4743
78.1393 188.559 21.6846
89.9296 187.99 12.6419
86.3714 190.592 12.8734
91.612 180.72 32.0503
76.5572 190.074 26.5105
80.1794 189.105 31.8571
90.6902 190.746 10.8432
87.2789 180.499 18.3558
112.352 177.277 21.1562
112.315 177.065 26.863
112.124 181.038 34.5155
87.9014 185.854 14.6925
101.799 185.424 40.2866
82.5294 186.923 17.7682
79.5747 189.337 31.3939
80.1423 190.69 16.8825
112.269 184.146 11.7199
112.008 187.634 8.6259
112.616 178.622 17.9793
88.3617 188.423 36.8757
80.752 190.74 16.3632
87.6483 188.513 36.518
111.892 181.972 35.459
86.9462 188.532 36.0868
111.241 184.819 38.3568
3 0 1 2
3 3 4 5
3 6 7 8
3 9 10 11
3 12 13 14
3 15 16 17
3 6 18 19
3 20 21 22
3 23 24 25
3 26 27 28
3 29 30 31
3 32 33 34
3 35 36 37
3 38 39 40
3 41 42 43
3 44 45 46
3 47 48 42
3 49 50 51
3 52 53 54
3 55 56 57
3 58 59 60
3 61 62 63
3 64 52 65
3 66 67 68
3 69 70 71
3 72 73 74
3 75 76 23
3 77 60 78
3 79 15 80
3 81 82 38
3 83 84 85
3 86 87 88
3 89 90 91
3 92 93 94
3 95 96 97
3 23 76 98
3 99 100 101
3 7 102 103
3 104 105 106
3 107 108 109
3 110 111 112
3 113 114 115
3 66 116 67
3 40 117 118
3 119 39 120
3 121 122 123
3 98 124 125
3 126 127 116
3 128 129 130
3 52 131 65
3 132 133 134
3 135 136 137
3 138 139 140
3 141 108 142
3 143 144 145
3 146 147 148
3 14 149 150
3 151 35 152
3 153 154 155
3 156 157 158
3 159 160 161
3 162 163 164
3 165 166 167
3 45 44 168
3 169 170 171
3 6 167 18
3 27 26 172
3 173 174 175
3 176 177 159
3 160 110 178
3 179 180 181
3 182 21 183
3 157 184 185
3 50 186 187
3 188 41 189
3 68 190 191
3 192 193 194
3 193 195 194
3 196 197 198
3 199 200 201
3 202 188 203
3 204 205 149
3 154 206 207
3 208 209 210
3 211 78 60
3 104 212 107
3 29 213 214
3 215 216 217
3 218 219 220
3 221 222 103
3 223 172 117
3 224 225 226
3 227 228 229
3 230 231 232
3 233 234 235
3 236 237 238
3 239 240 241
3 242 204 149
3 136 195 137
3 243 244 245
3 246 247 248
3 219 249 34
3 250 251 252
3 102 91 90
3 253 163 254
3 255 181 256
3 257 258 259
3 210 209 260
3 261 262 263
3 264 265 266
3 156 267 85
3 268 206 154
3 269 270 271
3 272 273 274
3 34 220 219
3 275 61 276
3 122 277 278
3 279 280 281
3 282 283 129
3 284 285 286
3 21 182 287
3 188 202 41
3 283 130 129
3 192 288 277
3 180 289 290
3 185 291 292
3 84 293 85
3 237 294 295
3 296 297 71
3 298 299 221
3 300 207 83
3 301 302 212
3 303 304 305
3 306 307 308
3 309 310 311
3 61 63 312
3 313 168 314
3 315 316 317
3 318 222 319
3 320 321 322
3 223 323 324
3 89 91 325
3 326 327 328
3 273 329 330
3 331 332 333
3 334 335 336
3 337 338 339
3 52 64 53
3 340 341 342
3 150 205 343
3 344 345 346
3 81 118 347
3 331 348 36
3 349 350 257
3 351 259 258
3 352 353 233
3 350 349 354
3 355 183 356
3 357 291 358
3 359 360 361
3 106 362 317
3 335 363 275
3 364 365 291
3 366 367 368
3 369 370 371
3 131 52 54
3 270 269 372
3 373 349 374
3 111 65 131
3 375 318 340
3 376 377 378
3 379 246 248
3 380 192 194
3 216 215 381
3 363 335 382
3 383 384 294
3 385 386 236
3 102 90 387
3 315 388 316
3 389 390 22
3 268 391 392
3 393 394 191
3 302 142 212
3 132 209 133
3 204 395 205
3 373 227 396
3 397 398 295
3 399 400 401
3 402 322 403
3 404 155 405
3 198 197 406
3 144 407 408
3 381 215 409
3 336 276 410
3 382 334 411
3 412 173 413
3 241 414 415
3 416 162 216
3 314 44 417
3 273 272 418
3 159 302 176
3 419 420 421
3 422 255 423
3 424 47 202
3 425 426 29
3 427 428 429
3 430 431 432
3 433 123 122
3 364 406 197
3 115 244 11
3 434 435 239
3 402 403 298
3 436 437 351
3 438 27 439
3 440 289 179
3 422 413 173
3 441 442 443
3 444 248 247
3 190 445 446
3 447 403 60
3 448 449 450
3 451 221 452
3 212 104 301
3 453 454 455
3 456 457 458
3 459 460 461
3 462 463 464
3 465 466 376
3 467 280 442
3 85 267 83
3 148 147 468
3 384 469 470
3 323 169 324
3 327 471 328
3 276 335 275
3 265 264 472
3 343 473 217
3 474 475 476
3 477 478 479
3 480 481 482
3 148 468 483
3 484 480 485
3 486 487 488
3 429 148 483
3 489 490 491
3 234 492 493
3 494 495 496
3 497 498 499
3 500 501 338
3 502 503 504
3 505 506 507
3 508 509 510
3 511 512 491
3 366 368 513
3 514 515 516
3 517 309 518
3 519 2 1
3 520 521 96
3 522 523 524
3 525 412 413
3 199 184 526
3 372 527 528
3 529 530 471
3 531 532 533
3 435 113 115
3 1 534 535
3 474 536 537
3 377 414 538
3 0 539 1
3 540 541 196
3 443 542 441
3 543 544 545
3 306 546 307
3 547 548 549
3 181 550 551
3 552 553 554
3 555 306 372
3 556 224 226
3 557 489 558
3 148 429 49
3 364 559 406
3 560 553 561
3 562 464 563
3 431 564 262
3 253 565 164
3 270 566 271
3 567 568 569
3 570 297 296
3 571 572 51
3 214 573 574
3 536 575 576
3 510 509 577
3 578 82 101
3 579 580 458
3 581 582 583
3 584 430 432
3 585 14 13
3 424 202 203
3 382 586 363
3 587 588 589
3 590 307 591
3 370 407 144
3 592 535 534
3 593 594 595
3 596 512 597
3 598 168 599
3 600 601 602
3 171 603 207
3 475 604 605
3 511 606 607
3 506 608 609
3 144 408 145
3 217 610 611
3 612 613 614
3 429 483 492
3 615 616 417
3 617 211 618
3 151 619 620
3 479 296 71
3 621 622 623
3 624 625 626
3 515 627 628
3 148 49 146
3 629 630 631
3 497 632 633
3 189 634 348
3 356 635 621
3 636 254 407
3 637 638 639
3 547 640 532
3 337 641 642
3 643 16 644
3 15 645 80
3 646 281 647
3 648 649 556
3 650 507 552
3 338 231 500
3 4 651 652
3 399 653 654
3 496 495 439
3 655 326 656
3 270 306 308
3 657 658 522
3 534 539 659
3 507 506 552
3 37 660 35
3 661 662 663
3 604 664 665
3 666 420 419
3 667 668 456
3 23 669 75
3 128 670 671
3 672 297 570
3 458 457 579
3 544 543 569
3 673 674 147
3 675 676 677
3 678 679 568
3 630 629 680
3 681 170 682
3 458 580 671
3 683 582 581
3 684 685 520
3 686 687 688
3 523 689 690
3 691 486 513
3 140 513 488
3 282 692 283
3 693 694 303
3 513 486 488
3 695 696 271
3 628 697 515
3 390 389 698
3 11 10 699
3 700 701 702
3 531 703 460
3 97 432 431
3 291 357 364
3 704 111 131
3 705 310 706
3 707 224 708
3 196 448 540
3 709 710 711
3 712 713 714
3 40 81 38
3 715 688 99
3 523 631 630
3 278 288 308
3 716 717 624
3 51 50 187
3 718 719 484
3 720 721 230
3 722 697 628
3 723 395 204
3 707 677 724
3 725 726 727
3 728 729 730
3 263 262 564
3 731 732 4
3 186 525 733
3 619 505 734
3 335 334 382
3 717 593 735
3 736 737 682
3 361 487 662
3 738 382 411
3 595 739 593
3 630 680 740
3 624 626 716
3 294 382 383
3 741 293 742
3 719 743 484
3 744 745 525
3 746 747 462
3 748 463 691
3 749 750 751
3 493 328 471
3 13 12 752
3 9 753 10
3 474 754 755
3 756 526 757
3 596 519 512
3 175 758 255
3 545 643 644
3 463 486 691
3 759 537 536
3 685 261 760
3 761 250 656
3 762 456 668
3 551 763 764
3 569 459 544
3 480 482 485
3 711 667 692
3 87 242 48
3 138 765 736
3 16 514 516
3 134 666 419
3 624 700 625
3 129 584 766
3 201 767 184
3 652 602 768
3 769 697 770
3 564 771 263
3 430 305 431
3 772 370 369
3 358 773 774
3 667 775 668
3 245 115 114
3 198 448 196
3 651 4 776
3 692 667 283
3 737 765 742
3 550 180 777
3 778 779 437
3 780 93 92
3 758 440 179
3 518 350 517
3 422 173 175
3 499 781 232
3 372 306 270
3 782 251 503
3 783 248 444
3 784 364 357
3 370 144 143
3 710 785 711
3 614 572 612
3 382 294 586
3 786 787 416
3 739 788 749
3 216 162 217
3 768 676 789
3 343 611 680
3 790 791 792
3 191 394 66
3 261 263 666
3 618 60 403
3 793 781 794
3 795 521 520
3 32 249 796
3 89 325 615
3 242 87 797
3 798 799 347
3 472 264 198
3 408 407 787
3 800 328 493
3 676 801 802
3 803 804 587
3 805 315 362
3 279 86 88
3 806 720 793
3 354 373 396
3 434 113 435
3 313 725 807
3 808 809 810
3 424 811 812
3 590 278 307
3 497 813 498
3 3 814 643
3 101 82 99
3 3 545 815
3 520 546 795
3 689 630 740
3 518 805 816
3 426 817 617
3 25 818 23
3 723 9 395
3 818 819 509
3 220 415 820
3 808 794 809
3 456 283 667
3 533 477 728
3 767 773 358
3 749 821 739
3 822 375 145
3 346 345 674
3 489 557 823
3 824 825 780
3 225 802 693
3 817 426 425
3 558 489 535
3 620 35 151
3 142 302 141
3 826 337 632
3 827 828 706
3 584 129 128
3 519 1 512
3 829 830 669
3 275 108 141
3 69 831 832
3 700 624 622
3 121 123 133
3 608 13 752
3 105 258 106
3 833 613 53
3 533 478 477
3 834 780 825
3 84 603 681
3 309 833 518
3 835 741 602
3 756 757 156
3 417 616 726
3 836 366 139
3 211 617 837
3 282 129 766
3 838 475 605
3 774 831 784
3 497 633 839
3 840 786 416
3 600 602 741
3 708 649 671
3 413 841 733
3 842 545 544
3 229 396 227
3 72 114 73
3 337 642 843
3 184 757 526
3 616 796 249
3 844 845 380
3 846 843 847
3 331 35 620
3 848 547 849
3 235 850 392
3 10 329 699
3 545 3 643
3 578 120 38
3 812 442 280
3 767 729 773
3 851 852 161
3 394 853 66
3 21 20 183
3 579 480 743
3 496 223 324
3 854 214 855
3 426 321 29
3 395 409 215
3 462 487 486
3 856 659 857
3 419 747 746
3 623 821 356
3 245 244 115
3 137 195 193
3 584 648 430
3 194 333 332
3 269 806 808
3 576 583 759
3 478 533 640
3 858 859 860
3 734 507 641
3 208 121 133
3 242 723 204
3 788 750 749
3 861 260 862
3 190 68 445
3 863 46 45
3 737 864 681
3 332 865 844
3 330 797 646
3 261 433 760
3 174 449 266
3 866 867 363
3 868 869 870
3 137 193 210
3 686 871 872
3 361 360 873
3 663 662 421
3 468 147 674
3 153 268 154
3 542 715 874
3 875 281 467
3 744 876 745
3 741 742 877
3 751 878 749
3 879 880 14
3 299 59 319
3 436 249 219
3 232 632 497
3 824 479 869
3 715 881 874
3 882 460 883
3 869 479 478
3 442 811 443
3 376 466 229
3 499 232 497
3 318 455 340
3 115 11 435
3 666 123 433
3 682 836 736
3 642 641 650
3 75 669 830
3 352 540 884
3 406 472 198
3 70 479 71
3 606 490 885
3 397 855 213
3 843 642 847
3 823 557 886
3 250 761 887
3 161 160 851
3 414 820 415
3 556 649 224
3 752 561 608
3 311 833 309
3 565 253 714
3 6 19 7
3 100 688 687
3 888 554 658
3 7 103 8
3 16 79 514
3 509 508 818
3 840 889 890
3 372 810 527
3 253 254 636
3 343 205 473
3 536 576 759
3 565 689 740
3 189 136 135
3 743 891 580
3 892 498 813
3 107 105 104
3 54 67 131
3 761 893 894
3 423 256 285
3 166 74 18
3 92 570 780
3 885 823 895
3 114 32 73
3 211 896 78
3 897 898 153
3 899 674 673
3 900 583 576
3 189 41 634
3 374 227 373
3 535 512 1
3 363 867 275
3 526 731 199
3 814 3 5
3 901 854 855
3 546 591 307
3 325 73 796
3 678 568 902
3 221 451 298
3 395 215 473
3 723 797 753
3 503 274 782
3 801 676 768
3 155 404 153
3 439 495 529
3 305 556 226
3 472 903 265
3 787 163 416
3 734 501 619
3 904 24 783
3 694 661 663
3 470 855 384
3 559 784 905
3 27 172 439
3 118 798 347
3 812 811 442
3 150 343 680
3 727 726 436
3 349 373 354
3 748 563 463
3 802 225 724
3 771 421 420
3 906 495 494
3 536 755 907
3 908 266 265
3 121 909 277
3 185 184 767
3 910 427 876
3 32 34 249
3 815 545 842
3 158 911 267
3 192 380 288
3 348 634 36
3 912 484 485
3 533 730 531
3 913 877 765
3 911 155 300
3 608 561 609
3 751 914 878
3 4 815 731
3 750 788 96
3 760 591 685
3 752 629 561
3 844 865 915
3 916 917 20
3 918 17 675
3 12 150 680
3 321 320 213
3 328 345 344
3 796 73 32
3 62 302 161
3 919 62 161
3 329 753 330
3 176 301 316
3 709 716 920
3 287 355 749
3 875 647 281
3 921 152 660
3 567 922 902
3 905 784 577
3 299 319 222
3 923 843 846
3 261 685 684
3 924 632 843
3 416 163 162
3 871 925 443
3 925 926 688
3 659 604 927
3 571 51 187
3 362 258 257
3 119 323 39
3 444 247 289
3 261 666 433
3 579 743 580
3 405 155 911
3 217 473 215
3 871 443 811
3 57 642 650
3 792 928 790
3 551 792 791
3 532 531 882
3 867 866 599
3 402 929 930
3 510 71 297
3 767 358 185
3 346 899 893
3 931 587 804
3 166 890 72
3 932 933 934
3 916 759 917
3 255 758 181
3 935 80 645
3 109 867 599
3 147 637 673
3 641 507 650
3 540 897 541
3 906 206 392
3 677 676 724
3 387 936 929
3 413 422 937
3 589 803 587
3 372 269 810
3 924 843 923
3 770 697 722
3 836 367 366
3 429 492 427
3 632 924 633
3 346 761 344
3 474 938 475
3 493 492 800
3 408 165 145
3 666 263 420
3 318 8 222
3 532 548 547
3 483 800 492
3 48 242 149
3 441 401 400
3 262 684 95
3 154 300 155
3 884 745 352
3 811 203 872
3 210 909 208
3 939 453 455
3 805 940 315
3 8 318 375
3 586 294 237
3 232 826 632
3 871 811 872
3 941 567 769
3 646 279 281
3 753 9 723
3 156 757 157
3 393 191 942
3 747 662 487
3 200 461 703
3 587 558 592
3 690 689 713
3 698 858 390
3 700 702 625
3 915 695 845
3 762 943 457
3 934 944 932
3 634 43 37
3 240 418 945
3 153 898 268
3 199 731 946
3 121 277 122
3 562 260 209
3 515 514 718
3 930 929 238
3 18 167 166
3 435 11 699
3 893 899 466
3 418 699 329
3 673 637 396
3 64 65 177
3 761 894 887
3 228 414 377
3 86 279 646
3 5 789 675
3 419 421 662
3 15 918 677
3 232 781 230
3 486 463 462
3 397 295 384
3 620 619 947
3 691 513 368
3 543 769 569
3 321 426 322
3 365 196 404
3 277 909 192
3 186 910 744
3 941 922 567
3 600 913 360
3 828 49 51
3 696 806 269
3 902 568 567
3 657 522 948
3 475 938 588
3 423 284 937
3 503 272 274
3 239 435 699
3 62 61 141
3 69 577 831
3 469 383 949
3 610 740 611
3 105 351 258
3 228 374 778
3 530 235 234
3 779 778 374
3 899 346 674
3 936 236 238
3 538 378 377
3 464 132 746
3 583 917 759
3 237 295 398
3 773 832 774
3 807 725 727
3 869 868 824
3 631 522 560
3 231 230 500
3 152 921 505
3 104 106 301
3 950 759 916
3 160 951 851
3 600 360 952
3 594 953 595
3 61 312 954
3 318 319 455
3 738 949 383
3 45 236 863
3 47 88 87
3 724 225 707
3 287 749 878
3 517 310 309
3 588 604 475
3 550 955 763
3 565 610 164
3 766 584 432
3 586 237 386
3 794 956 809
3 313 105 107
3 53 64 940
3 858 527 810
3 323 119 169
3 168 313 599
3 931 557 558
3 217 611 343
3 861 862 686
3 282 953 594
3 206 171 207
3 819 818 25
3 402 298 451
3 55 554 888
3 434 239 241
3 501 500 957
3 694 663 303
3 958 499 498
3 772 636 370
3 325 74 73
3 163 787 254
3 708 645 707
3 225 224 707
3 564 305 304
3 739 623 735
3 706 639 638
3 352 898 897
3 103 222 8
3 940 518 833
3 387 90 863
3 226 303 305
3 832 728 70
3 83 207 603
3 291 365 405
3 591 546 520
3 872 203 188
3 121 208 909
3 641 339 734
3 133 209 208
3 705 51 572
3 855 397 384
3 522 631 523
3 950 916 803
3 732 731 526
3 874 81 347
3 751 521 795
3 33 434 415
3 87 48 47
3 836 120 367
3 385 866 386
3 438 439 529
3 760 433 590
3 675 17 814
3 807 727 351
3 317 301 106
3 287 878 959
3 562 563 687
3 636 714 253
3 450 449 174
3 904 903 819
3 603 170 681
3 24 904 25
3 97 431 95
3 160 178 951
3 110 177 65
3 365 197 196
3 867 108 275
3 688 926 686
3 399 654 400
3 716 626 920
3 21 287 389
3 648 584 128
3 283 456 670
3 110 160 177
3 401 874 347
3 214 854 573
3 866 363 386
3 32 114 113
3 745 876 353
3 572 446 612
3 418 240 239
3 660 152 35
3 574 29 214
3 106 258 362
3 116 131 67
3 376 229 377
3 764 792 551
3 614 613 311
3 437 259 351
3 330 646 647
3 717 594 593
3 391 233 235
3 39 323 223
3 663 421 304
3 412 174 173
3 132 464 562
3 546 555 795
3 588 938 589
3 109 599 313
3 814 5 675
3 276 954 410
3 552 554 57
3 600 952 601
3 251 782 654
3 528 527 698
3 873 488 487
3 319 59 960
3 175 174 266
3 57 650 552
3 109 108 867
3 663 304 303
3 613 961 53
3 501 957 947
3 284 423 285
3 848 962 640
3 666 134 123
3 224 649 708
3 403 447 298
3 733 525 413
3 91 19 74
3 140 873 138
3 963 359 661
3 416 216 840
3 378 945 502
3 741 877 600
3 402 320 322
3 964 776 756
3 623 739 821
3 348 331 333
3 384 383 469
3 220 34 33
3 37 36 634
3 214 213 855
3 769 516 697
3 243 381 244
3 620 947 865
3 448 264 449
3 718 79 719
3 437 436 965
3 966 792 764
3 787 786 165
3 721 695 957
3 712 714 967
3 107 109 313
3 87 86 797
3 748 100 563
3 504 894 465
3 593 739 735
3 637 354 396
3 883 459 568
3 745 884 450
3 959 698 389
3 143 342 968
3 534 927 592
3 218 820 778
3 370 636 407
3 964 756 156
3 23 969 669
3 952 359 963
3 475 838 476
3 916 20 804
3 665 605 604
3 417 726 725
3 683 701 582
3 970 54 961
3 745 353 352
3 325 796 616
3 228 820 414
3 466 899 673
3 406 559 472
3 942 971 393
3 689 565 714
3 956 895 809
3 139 366 513
3 972 694 693
3 671 935 708
3 177 388 64
3 97 96 788
3 959 528 698
3 383 382 738
3 930 238 398
3 677 645 15
3 725 314 417
3 137 861 135
3 392 850 906
3 74 19 18
3 942 191 190
3 799 798 26
3 919 161 852
3 42 202 47
3 699 418 239
3 973 824 868
3 679 974 883
3 120 836 119
3 116 127 975
3 659 539 857
3 531 730 703
3 20 917 183
3 971 942 790
3 896 211 837
3 610 565 740
3 566 695 271
3 194 332 844
3 654 653 251
3 108 107 142
3 876 427 976
3 776 835 651
3 350 354 639
3 265 904 908
3 252 251 653
3 361 661 359
3 141 61 275
3 913 600 877
3 249 726 616
3 821 355 356
3 623 356 621
3 958 498 932
3 910 186 50
3 977 523 690
3 642 57 978
3 606 979 607
3 122 590 433
3 374 228 227
3 279 88 812
3 530 850 235
3 200 946 461
3 86 646 797
3 791 256 551
3 140 139 513
3 140 488 873
3 421 771 304
3 548 883 974
3 315 940 388
3 957 500 721
3 805 362 816
3 390 860 22
3 750 96 521
3 397 930 398
3 543 644 516
3 980 841 284
3 783 908 904
3 542 925 715
3 96 95 684
3 711 785 667
3 556 305 430
3 17 918 15
3 3 815 4
3 506 553 552
3 446 572 980
3 172 496 439
3 802 963 972
3 423 255 256
3 844 915 845
3 213 320 397
3 117 40 223
3 816 362 257
3 594 717 692
3 594 692 282
3 194 195 333
3 953 97 788
3 404 405 365
3 554 553 560
3 492 234 976
3 554 55 57
3 810 809 858
3 512 511 597
3 590 591 760
3 861 210 260
3 978 847 642
3 640 533 532
3 728 832 729
3 781 793 230
3 125 24 23
3 167 822 145
3 114 889 245
3 479 70 477
3 981 582 621
3 491 535 489
3 440 758 982
3 402 451 929
3 669 92 829
3 427 492 976
3 190 284 286
3 415 434 241
3 28 799 26
3 913 765 138
3 942 190 286
3 45 598 385
3 358 291 185
3 795 914 751
3 68 970 445
3 273 647 274
3 786 890 166
3 935 671 580
3 806 696 720
3 696 695 721
3 94 829 92
3 25 904 819
3 171 906 494
3 276 61 954
3 495 530 529
3 66 126 116
3 223 40 39
3 205 150 149
3 345 483 468
3 936 863 236
3 480 484 743
3 44 314 168
3 154 207 300
3 64 388 940
3 368 748 691
3 91 102 7
3 549 548 983
3 412 450 174
3 347 399 401
3 872 135 861
3 201 184 199
3 903 472 559
3 784 831 577
3 460 459 883
3 564 431 305
3 63 62 919
3 958 932 885
3 474 476 754
3 827 146 828
3 957 915 947
3 344 326 328
3 480 457 481
3 247 246 984
3 297 672 508
3 612 961 613
3 123 134 133
3 536 474 755
3 8 822 6
3 234 233 976
3 859 858 809
3 56 978 57
3 74 166 72
3 293 741 835
3 58 985 59
3 609 561 553
3 132 562 209
3 561 629 631
3 629 752 680
3 465 378 504
3 316 388 177
3 892 933 498
3 53 940 833
3 744 910 876
3 28 27 655
3 230 721 500
3 759 950 537
3 886 557 860
3 347 799 399
3 461 460 703
3 670 130 283
3 732 776 4
3 238 929 936
3 400 875 467
3 566 308 288
3 598 599 866
3 587 931 558
3 375 143 145
3 248 125 124
3 864 293 84
3 59 447 60
3 5 4 652
3 982 758 175
3 807 351 105
3 959 914 528
3 315 317 362
3 85 964 156
3 749 355 821
3 79 718 514
3 706 638 827
3 614 311 310
3 962 869 640
3 958 794 781
3 825 824 973
3 489 823 490
3 617 817 986
3 351 727 436
3 945 272 502
3 81 874 881
3 83 603 84
3 660 37 43
3 256 181 551
3 471 530 493
3 863 90 46
3 228 377 229
3 824 780 296
3 790 928 971
3 921 585 13
3 389 22 21
3 72 889 114
3 965 219 218
3 861 686 872
3 687 686 862
3 685 591 520
3 113 33 32
3 409 395 9
3 328 800 345
3 387 452 102
3 17 16 643
3 391 268 898
3 171 206 906
3 292 405 911
3 746 462 464
3 818 508 969
3 598 866 385
3 761 656 326
3 233 898 352
3 523 977 524
3 101 100 748
3 213 29 321
3 438 326 655
3 517 350 639
3 340 342 143
3 162 164 610
3 648 556 430
3 329 10 753
3 795 555 914
3 879 585 43
3 79 891 719
3 112 178 110
3 252 799 28
3 719 891 743
3 310 517 706
3 711 716 709
3 608 921 13
3 297 508 510
3 490 511 491
3 859 895 886
3 948 522 524
3 210 861 137
3 165 167 145
3 649 648 128
3 478 640 869
3 505 507 734
3 925 871 926
3 169 119 170
3 103 452 221
3 182 355 287
3 927 534 659
3 547 549 849
3 946 842 461
3 151 152 505
3 568 679 883
3 636 772 987
3 31 425 29
3 525 186 744
3 320 402 930
3 431 262 95
3 292 911 158
3 746 134 419
3 794 958 956
3 980 284 446
3 689 523 630
3 879 43 42
3 871 686 926
3 378 465 376
3 968 370 143
3 467 281 280
3 374 349 779
3 965 218 778
3 415 220 33
3 101 748 368
3 770 941 769
3 529 471 327
3 120 578 367
3 484 988 718
3 982 175 266
3 251 504 503
3 17 643 814
3 677 707 645
3 247 984 989
3 503 502 272
3 910 428 427
3 881 99 82
3 859 809 895
3 960 939 319
3 560 561 631
3 136 348 333
3 102 452 103
3 438 655 27
3 550 763 551
3 338 501 339
3 905 577 509
3 147 827 638
3 697 516 515
3 778 820 228
3 19 91 7
3 835 602 651
3 529 327 438
3 908 444 440
3 85 293 964
3 563 464 463
3 611 740 680
3 908 783 444
3 11 409 9
3 975 704 131
3 969 508 672
3 682 119 836
3 990 718 988
3 201 729 767
3 496 172 223
3 390 858 860
3 82 578 38
3 128 130 670
3 59 985 960
3 618 322 617
3 267 156 158
3 408 787 165
3 811 424 203
3 157 757 184
3 927 604 588
3 734 339 501
3 698 527 858
3 624 717 622
3 337 826 338
3 693 303 226
3 588 587 592
3 269 271 696
3 731 842 946
3 59 299 447
3 316 301 317
3 538 414 241
3 364 197 365
3 372 528 555
3 660 585 921
3 989 290 289
3 68 67 970
3 864 742 293
3 451 387 929
3 261 684 262
3 257 259 779
3 179 289 180
3 622 717 735
3 797 723 242
3 956 958 885
3 602 652 651
3 572 614 705
3 375 822 8
3 682 170 119
3 595 953 788
3 349 257 779
3 716 711 717
3 159 177 160
3 49 429 428
3 294 384 295
3 392 206 268
3 117 798 118
3 459 461 544
3 580 891 935
3 522 554 560
3 380 194 844
3 932 606 885
3 14 150 12
3 221 299 222
3 302 62 141
3 937 422 423
3 92 672 570
3 927 588 592
3 887 894 504
3 311 613 833
3 260 562 687
3 729 832 773
3 639 354 637
3 124 379 248
3 962 870 869
3 835 964 293
3 688 100 99
3 46 89 615
3 810 269 808
3 980 571 841
3 252 656 250
3 687 862 260
3 443 925 542
3 273 418 329
3 806 793 794
3 850 495 906
3 159 161 302
3 917 981 635
3 890 786 840
3 79 80 891
3 28 656 252
3 583 582 981
3 502 504 378
3 220 820 218
3 806 794 808
3 441 400 467
3 571 980 572
3 151 505 619
3 346 893 761
3 903 904 265
3 91 74 325
3 672 669 969
3 400 654 875
3 607 991 511
3 495 850 530
3 517 639 706
3 828 705 706
3 853 126 66
3 494 324 169
3 190 446 284
3 43 634 41
3 781 499 958
3 157 185 292
3 455 319 939
3 361 873 487
3 654 782 875
3 192 909 193
3 826 232 231
3 946 200 199
3 751 750 521
3 497 839 813
3 14 880 149
3 157 292 158
3 541 153 404
3 49 428 50
3 147 638 637
3 289 247 989
3 804 22 931
3 424 88 47
3 278 590 122
3 986 837 617
3 582 701 700
3 577 69 510
3 434 33 113
3 53 961 54
3 563 100 687
3 736 139 138
3 913 873 360
3 598 45 168
3 568 459 569
3 470 901 855
3 774 784 357
3 928 792 966
3 819 903 559
3 454 340 455
3 255 422 175
3 138 873 913
3 705 828 51
3 670 458 671
3 282 766 953
3 933 932 498
3 280 279 812
3 992 718 990
3 512 535 491
3 350 816 257
3 823 886 895
3 22 804 20
3 287 959 389
3 299 298 447
3 739 595 788
3 107 212 142
3 807 105 313
3 761 326 344
3 353 876 976
3 186 733 187
3 506 921 608
3 395 473 205
3 798 117 26
3 550 777 955
3 938 474 537
3 169 171 494
3 538 240 945
3 325 616 615
3 16 15 79
3 618 211 60
3 914 959 878
3 189 348 136
3 860 931 22
3 308 566 270
3 655 656 28
3 680 752 12
3 931 860 557
3 259 437 779
3 635 356 183
3 887 251 250
3 139 736 836
3 540 448 884
3 586 386 363
3 589 950 803
3 938 537 589
3 273 330 647
3 49 828 146
3 16 516 644
3 36 35 331
3 675 677 918
3 937 284 841
3 381 409 244
3 708 935 645
3 418 272 945
3 310 705 614
3 818 969 23
3 947 915 865
3 545 644 543
3 266 449 264
3 398 238 237
3 961 445 970
3 897 153 541
3 801 768 952
3 737 681 682
3 128 671 649
3 441 467 442
3 345 800 483
3 80 935 891
3 601 768 602
3 183 355 182
3 338 826 231
3 621 635 981
3 380 845 566
3 387 863 936
3 603 171 170
3 438 327 326
3 952 360 359
3 622 621 700
3 768 601 952
3 735 623 622
3 589 537 950
3 879 14 585
3 412 745 450
3 879 42 48
3 676 802 724
3 97 953 432
3 413 937 841
3 956 885 895
3 110 65 111
3 352 897 540
3 92 669 672
3 802 801 963
3 46 615 44
3 558 535 592
3 364 784 559
3 730 533 728
3 747 487 462
3 765 877 742
3 407 254 787
3 812 88 424
3 539 0 993
3 134 746 132
3 974 983 548
3 457 456 762
3 50 428 910
3 243 216 381
3 345 468 674
3 350 518 816
3 730 200 703
3 915 957 695
3 54 970 67
3 944 979 606
3 466 465 893
3 460 882 531
3 426 617 322
3 982 908 440
3 243 840 216
3 444 289 440
3 944 606 932
3 243 889 840
3 386 237 236
3 236 45 385
3 747 419 662
3 912 988 484
3 143 375 340
3 526 756 732
3 480 579 457
3 972 661 694
3 249 436 726
3 302 301 176
3 135 188 189
3 125 783 24
3 875 274 647
3 539 993 857
3 477 70 728
3 403 322 618
3 276 336 335
3 815 842 731
3 673 396 229
3 525 745 412
3 659 856 604
3 361 662 661
3 304 771 564
3 789 676 675
3 542 401 441
3 620 865 332
3 882 548 532
3 890 889 72
3 900 581 583
3 165 786 166
3 188 135 872
3 756 776 732
3 528 914 555
3 60 77 58
3 790 286 285
3 417 44 615
3 652 768 789
3 177 176 316
3 582 700 621
3 225 693 226
3 789 5 652
3 802 972 693
3 505 921 506
3 466 673 229
3 555 546 306
3 982 266 908
3 684 520 96
3 771 420 263
3 277 288 278
3 566 845 695
3 945 378 538
3 976 233 353
3 766 432 953
3 660 43 585
3 409 11 244
3 880 48 149
3 370 968 371
3 905 819 559
3 911 300 267
3 905 509 819
3 827 147 146
3 835 776 964
3 793 720 230
3 331 620 332
3 943 481 457
3 341 340 454
3 823 885 490
3 401 542 874
3 714 713 689
3 445 961 612
3 538 241 240
3 99 881 715
3 101 368 578
3 721 720 696
3 965 436 219
3 785 775 667
3 405 292 291
3 681 864 84
3 46 90 89
3 769 543 516
3 530 234 493
3 972 963 661
3 834 93 780
3 300 83 267
3 737 736 765
3 164 163 253
3 39 38 120
3 975 131 116
3 541 404 196
3 118 81 40
3 824 296 479
3 494 496 324
3 193 909 210
3 290 777 180
3 917 635 183
3 822 167 6
3 387 451 452
3 907 575 536
3 967 636 987
3 285 256 791
3 570 296 780
3 501 947 619
3 799 653 399
3 992 627 515
3 191 66 68
3 898 233 391
3 991 597 511
3 952 963 801
3 125 23 98
3 339 641 337
3 831 774 832
3 465 894 893
3 887 504 251
3 965 778 437
3 733 841 571
3 367 578 368
3 288 380 566
3 571 187 733
3 930 397 320
3 42 41 202
3 799 252 653
3 550 181 180
3 69 71 510
3 860 859 886
3 606 511 490
3 264 448 198
3 456 458 670
3 692 717 711
3 69 832 70
3 307 278 308
3 574 30 29
3 506 609 553
3 515 718 992
3 790 942 286
3 243 245 889
3 461 842 544
3 548 882 883
3 884 448 450
3 200 730 201
3 848 640 547
3 48 880 879
3 583 981 917
3 725 313 314
3 117 172 26
3 916 804 803
3 162 610 217
3 337 843 632
3 967 714 636
3 664 604 856
3 805 518 940
3 729 201 730
3 758 179 181
3 774 357 358
3 925 688 715
3 82 81 881
3 753 797 330
3 554 522 658
3 391 235 392
3 285 791 790
3 782 274 875
3 539 534 1
3 446 445 612
3 333 195 136
3 569 769 567
3 864 737 742
3 248 783 125
